<ttFont>
          <CharString index="0">
            -31 0 -13 -32 -9 -24 -58 -171 -1 -1 0 -7 rrcurveto
            -1 vlineto
            -11 8 -11 12 vhcurveto
            7 0 6 4 5 6 3 4 62 110 32 57 6 11 8 12 0 16 0 20 -14 18 -23 0 rrcurveto
            return
          </CharString>
          <CharString index="1">
            -32 0 -13 -32 -8 -24 -59 -171 -1 -1 0 -7 rrcurveto
            -1 vlineto
            -11 8 -11 12 vhcurveto
            7 0 6 4 5 6 4 4 61 110 33 57 6 11 7 12 0 16 0 20 -14 18 -22 0 rrcurveto
            return
          </CharString>
          <CharString index="2">
            -31 0 -13 -32 -9 -24 -58 -171 -1 -1 0 -6 rrcurveto
            -1 vlineto
            -12 8 -11 12 vhcurveto
            7 0 6 4 5 6 3 4 62 110 32 57 6 11 8 13 0 15 0 20 -14 18 -23 0 rrcurveto
            return
          </CharString>
          <CharString index="3">
            -31 -30 -23 -32 hvcurveto
            0 -10 3 -9 5 -7 25 -37 65 25 0 -51 0 -9 -3 -17 -23 -21 -23 -21 -20 -1 0 -17 rrcurveto
            -11 9 -6 10 21 80 43 89 64 -41 51 -47 vhcurveto
            return
          </CharString>
          <CharString index="4">
            -31 -28 -24 -34 -35 28 -25 31 34 26 28 31 33 -28 26 -32 hvcurveto
            return
          </CharString>
          <CharString index="5">
            66 0 33 -6 11 0 13 0 9 9 0 13 0 20 -13 3 -9 1 -42 5 -21 -1 0 28 0 20 38 105 49 91 6 11 6 1 11 0 rrcurveto
            235 hlineto
            9 0 5 -1 4 -9 39 -89 36 -119 0 -18 0 -17 -15 -1 -5 -1 -48 -6 -11 3 0 -31 0 -10 6 -7 14 0 12 0 35 6 72 0 rrcurveto
            61 0 50 -6 4 0 13 0 7 9 0 13 0 2 -1 7 -1 4 -6 24 -44 -22 -25 37 -6 9 4 -6 -109 265 rrcurveto
            -144 332 rlineto
            -4 10 -12 28 -26 0 -9 0 -8 -3 -7 -5 -12 -10 7 10 -150 -285 -54 -106 -51 -107 -48 -107 -15 -34 -10 -10 -32 -4 -30 -4 -15 1 0 -27 rrcurveto
            -8 4 -13 16 vhcurveto
            3 0 46 6 59 0 rrcurveto
            return
          </CharString>
          <CharString index="6">
            -205 hlineto
            -4 -2 2 2 hvcurveto
            0 6 40 77 62 116 4 7 6 10 9 0 5 0 3 -2 3 -5 15 -24 73 -172 0 -10 rrcurveto
            -6 -4 -1 -5 vhcurveto
            return
          </CharString>
          <CharString index="7">
            185 131 111 137 vhcurveto
            92 0 71 -46 41 -52 18 -23 4 -16 4 -27 5 -40 -2 -7 26 0 17 0 3 10 0 7 0 10 -27 201 0 1 -1 6 -2 6 -10 0 rrcurveto
            -2 0 -6 -1 -3 0 -19 -5 7 -31 -17 0 -13 0 -62 53 -121 0 rrcurveto
            -1 hlineto
            -93 0 -94 -37 -68 -65 -65 -63 -46 -95 0 -101 0 -95 40 -95 68 -66 67 -65 93 -38 93 0 56 0 65 13 64 37 21 13 2 8 24 0 rrcurveto
            28 0 1 0 rlineto
            5 0 13 1 4 15 3 7 22 156 0 0 0 8 -9 3 -7 0 -12 0 -2 -10 -1 -3 -37 -120 -109 -77 -115 0 rrcurveto
            -156 -125 143 184 hvcurveto
            return
          </CharString>
          <CharString index="8">
            -22 0 -21 2 -21 4 -26 5 -10 9 0 25 rrcurveto
            509 vlineto
            25 9 6 58 vhcurveto
            62 0 80 -14 66 -48 79 -59 41 -100 0 -96 0 -177 -149 -91 -146 0 rrcurveto
            return
          </CharString>
          <CharString index="9">
            -14 3 -9 15 vhcurveto
            59 -2 23 4 0 -39 rrcurveto
            -506 vlineto
            0 -22 -4 -13 -23 -1 -53 -3 -21 4 0 -25 rrcurveto
            -26 14 -2 9 vhcurveto
            283 hlineto
            30 0 30 1 29 5 143 26 147 134 0 177 0 142 -91 100 -99 46 -89 41 -103 3 -98 0 rrcurveto
            -182 hlineto
            -9 -13 -2 -19 hvcurveto
            return
          </CharString>
          <CharString index="10">
            -24 -3 -12 -10 hvcurveto
            -31 vlineto
            -32 -21 -1 -17 vhcurveto
            -153 hlineto
            -19 -1 12 10 hvcurveto
            151 vlineto
            19 2 19 29 vhcurveto
            188 hlineto
            31 0 -3 -4 50 -89 5 -7 6 -11 17 0 17 0 4 9 0 6 0 5 -20 83 -9 45 -3 10 -5 6 -14 0 rrcurveto
            -460 hlineto
            -9 -10 -2 -20 hvcurveto
            0 -29 27 7 39 -6 22 -4 5 -1 0 -15 rrcurveto
            -521 vlineto
            0 -22 -3 -10 -19 -7 -66 -25 -10 0 0 -18 0 -5 5 -25 19 0 18 0 31 12 75 0 rrcurveto
            344 hlineto
            21 0 6 5 3 15 30 134 1 2 0 6 rrcurveto
            1 vlineto
            17 -11 6 -7 vhcurveto
            -3 0 -3 -1 -4 -2 -16 -10 -35 -83 -18 -14 -20 -15 -92 -6 -32 0 -31 0 -31 2 -31 5 -29 4 -3 16 0 18 rrcurveto
            229 vlineto
            38 26 2 23 vhcurveto
            138 hlineto
            14 12 -2 -20 hvcurveto
            -54 vlineto
            -9 2 -13 25 26 2 18 11 vhcurveto
            184 vlineto
            11 -2 18 -26 vhcurveto
            return
          </CharString>
          <CharString index="11">
            67 0 76 23 62 54 3 3 5 5 6 0 9 0 9 -21 12 0 rrcurveto
            11 3 9 11 hvcurveto
            169 vlineto
            0 4 0 3 1 3 6 25 47 -10 0 31 0 9 -7 12 -19 0 -10 0 -33 -4 -64 0 rrcurveto
            -2 hlineto
            -62 0 -30 4 -11 0 -15 0 -7 -11 0 -12 0 -18 16 -4 12 -1 73 -7 21 4 0 -33 rrcurveto
            -113 vlineto
            0 -5 0 -6 -3 -6 -9 -17 -70 -48 -86 0 rrcurveto
            -104 -157 74 264 217 123 74 101 hvcurveto
            87 0 81 -49 49 -67 50 -69 -28 -32 32 0 22 0 7 6 0 10 0 4 -11 79 0 102 rrcurveto
            27 vlineto
            11 -7 3 -7 vhcurveto
            -5 0 -4 -1 -3 -2 -11 -6 -14 -33 -19 0 rrcurveto
            -4 hlineto
            -12 3 -72 62 -119 0 rrcurveto
            -184 -152 -149 -203 -210 163 -168 187 hvcurveto
            return
          </CharString>
          <CharString index="12">
            65 0 53 -6 3 0 13 0 3 11 0 17 0 23 -34 -3 -15 2 -48 5 0 14 0 14 rrcurveto
            271 vlineto
            10 2 7 13 vhcurveto
            341 hlineto
            9 4 -2 -9 hvcurveto
            -271 vlineto
            0 -22 -2 -15 -28 -1 -61 -5 -10 5 0 -31 0 -10 3 -10 13 0 4 0 52 6 65 0 65 0 53 -6 4 0 16 0 4 14 0 12 rrcurveto
            0 26 -24 -4 -38 3 -26 2 -2 18 0 12 rrcurveto
            0 5 0 525 rlineto
            0 13 2 13 25 3 47 7 22 -3 0 29 0 12 -7 8 -12 0 -4 0 -56 -4 -71 0 -62 0 -31 2 -10 0 -16 0 -8 -9 0 -15 rrcurveto
            0 -32 45 16 26 -11 20 -7 1 -19 0 -17 rrcurveto
            -148 vlineto
            -8 -1 -10 -16 vhcurveto
            -338 hlineto
            -11 -2 6 8 hvcurveto
            165 vlineto
            0 18 3 11 20 1 61 4 15 -3 0 20 0 3 -1 3 0 3 -2 12 -2 9 -15 0 -12 0 -36 -2 -72 0 rrcurveto
            -3 hlineto
            -70 0 -35 2 -12 0 -19 0 -4 -20 0 -7 0 -22 26 4 18 -3 30 -4 21 2 0 -32 rrcurveto
            -529 vlineto
            0 -17 -2 -13 -24 -2 -55 -4 -13 3 0 -22 0 -15 4 -12 16 0 4 0 52 6 67 0 rrcurveto
            return
          </CharString>
          <CharString index="13">
            -17 -5 -16 -12 hvcurveto
            0 -17 11 -3 12 -1 52 -3 14 3 0 -21 0 -3 -1 -5 0 -6 rrcurveto
            -520 vlineto
            0 -17 -3 -10 -18 -1 -70 -5 -14 4 0 -21 0 -3 0 -3 1 -3 1 -11 1 -12 15 0 4 0 56 6 68 0 68 0 55 -6 4 0 rrcurveto
            17 3 17 12 hvcurveto
            0 24 -23 -5 -56 4 -18 2 0 13 0 10 rrcurveto
            540 vlineto
            0 8 2 8 14 1 51 5 12 -3 0 30 0 16 -9 3 -8 0 -10 0 -31 -4 -63 0 -62 0 -49 5 -4 0 rrcurveto
            return
          </CharString>
          <CharString index="14">
            -4 hlineto
            -66 0 -54 5 -4 0 -17 0 -5 -15 0 -12 0 -17 13 -3 9 -1 57 -6 24 4 0 -35 rrcurveto
            -621 vlineto
            0 -26 -2 -14 -7 -25 -5 -19 -11 -42 -34 0 -43 0 -4 66 -49 0 rrcurveto
            -27 -18 -23 -26 -35 32 -42 48 hvcurveto
            49 0 64 56 10 10 50 48 38 73 0 81 rrcurveto
            537 vlineto
            0 19 3 13 23 2 47 5 17 -5 0 32 0 10 -3 10 -14 0 -12 0 -35 -4 -70 0 rrcurveto
            return
          </CharString>
          <CharString index="15">
            16 4 13 15 hvcurveto
            0 19 -15 2 -7 1 -65 5 -15 -4 0 39 rrcurveto
            211 vlineto
            8 1 12 13 vhcurveto
            1 hlineto
            12 0 -1 -4 250 -287 25 -29 -1 5 74 -1 28 0 5 -4 14 0 21 0 8 14 0 9 0 5 -3 6 -3 4 -16 16 -19 -11 -33 21 rrcurveto
            -15 10 12 -10 -279 294 -5 5 -3 4 0 6 0 9 0 -3 179 193 22 23 19 27 31 13 36 15 53 -7 0 28 0 9 -6 12 -22 0 rrcurveto
            -10 0 -30 -2 -60 0 rrcurveto
            -6 hlineto
            -63 0 -31 2 -11 0 -14 0 -9 -8 0 -13 0 -36 66 30 0 -43 0 -8 -4 -8 -4 -5 -5 -8 -116 -129 -61 -68 -9 -10 -7 -11 -10 0 rrcurveto
            -11 -2 10 7 hvcurveto
            0 213 0 4 rlineto
            0 10 1 16 14 7 22 10 55 -15 0 30 0 8 -6 18 -23 0 -11 0 -33 -4 -66 0 rrcurveto
            -1 hlineto
            -66 0 -33 4 -11 0 -22 0 -7 -15 0 -9 0 -18 15 -5 13 -1 53 -5 18 3 0 -48 rrcurveto
            -497 vlineto
            0 -17 -1 -6 -2 -5 -17 -40 -77 39 0 -47 0 -11 3 -12 14 0 4 0 54 6 66 0 67 0 54 -6 4 0 rrcurveto
            return
          </CharString>
          <CharString index="16">
            -7 hlineto
            -69 1 -34 2 -11 0 -12 0 -7 -6 0 -19 0 -19 12 -4 13 -1 43 -1 13 5 0 -28 rrcurveto
            0 -525 0 -3 rlineto
            0 -13 -1 -13 -22 -6 -43 -9 -12 0 0 -20 rrcurveto
            -8 3 -8 13 vhcurveto
            53 hlineto
            return
          </CharString>
          <CharString index="17">
            224 0 179 -6 14 0 23 0 2 11 2 11 7 47 13 89 0 5 0 20 -24 3 -6 0 -6 0 -5 -3 -4 -5 -6 -7 -26 -63 -10 -15 rrcurveto
            -17 -26 -21 -1 -17 0 rrcurveto
            -3 0 -191 0 rlineto
            -24 -2 15 17 hvcurveto
            507 vlineto
            0 34 14 -7 68 2 rrcurveto
            11 11 3 20 16 -1 11 -16 hvcurveto
            -12 0 -37 -3 -72 0 rrcurveto
            return
          </CharString>
          <CharString index="18">
            17 -10 6 -11 vhcurveto
            -9 0 -28 -3 -57 0 -58 0 -29 3 -9 0 -22 0 -7 -14 0 -10 0 -17 15 -3 7 -1 44 -5 19 -1 2 -43 rrcurveto
            return
          </CharString>
          <CharString index="19">
            6 -98 3 -98 0 -102 0 -36 -1 -35 -1 -36 rrcurveto
            return
          </CharString>
          <CharString index="20">
            -5 -1 -5 -6 vhcurveto
            -7 0 -8 10 -181 196 rrcurveto
            -91 102 -157 182 rlineto
            -11 13 -8 6 -21 0 rrcurveto
            -123 hlineto
            -13 -9 -5 -21 -19 8 -3 10 hvcurveto
            55 -4 27 -32 7 -7 32 -29 1 -6 0 -9 rrcurveto
            0 -1 0 -3 rlineto
            -24 -461 1 3 -5 -12 -16 -33 -47 8 -22 -7 -13 -4 -2 -19 0 -3 0 -12 9 -8 12 0 5 0 52 6 66 0 65 0 53 -6 4 0 rrcurveto
            11 6 8 11 hvcurveto
            0 21 -9 3 -4 2 -7 2 -41 5 -13 0 -42 3 -3 10 0 52 rrcurveto
            29 vlineto
            0 122 5 116 8 117 1 1 1 3 2 0 4 0 16 -19 202 -225 rrcurveto
            207 -236 rlineto
            28 -32 11 -10 10 0 20 0 0 33 0 14 rrcurveto
            return
          </CharString>
          <CharString index="21">
            0 28 -4 84 0 169 rrcurveto
            return
          </CharString>
          <CharString index="22">
            0 90 2 91 2 90 rrcurveto
            0 97 91 -67 0 52 rrcurveto
            return
          </CharString>
          <CharString index="23">
            204 -158 179 -215 -201 -168 -164 -203 vhcurveto
            1 -101 43 -99 72 -69 71 -68 98 -40 98 0 rrcurveto
            195 164 151 210 hvcurveto
            return
          </CharString>
          <CharString index="24">
            198 134 85 124 vhcurveto
            66 0 65 -24 49 -43 81 -71 29 -114 0 -96 rrcurveto
            -210 -150 -75 -114 -189 -95 177 173 vhcurveto
            return
          </CharString>
          <CharString index="25">
            0 -60 -40 -39 -42 -17 -28 -11 -28 -3 -36 0 rrcurveto
            -59 -7 0 18 hvcurveto
            235 vlineto
            0 1 -1 1 0 1 0 7 1 6 5 3 9 7 38 3 13 0 rrcurveto
            101 74 -72 -80 hvcurveto
            return
          </CharString>
          <CharString index="26">
            -66 0 -66 -12 -89 0 rrcurveto
            -35 hlineto
            -9 -4 -4 -15 hvcurveto
            0 -10 5 -4 10 -2 69 -12 15 1 0 -32 rrcurveto
            -517 vlineto
            0 -20 -3 -12 -24 -3 -46 -4 -16 2 0 -22 0 -12 3 -15 15 0 4 0 55 6 69 0 69 0 56 -6 4 0 13 0 7 9 0 13 rrcurveto
            return
          </CharString>
          <CharString index="27">
            0 31 -24 -4 -67 6 -25 3 -1 17 0 12 rrcurveto
            0 3 0 231 rlineto
            12 5 3 9 vhcurveto
            73 hlineto
            7 0 5 0 5 -4 6 -4 -3 4 89 -124 rrcurveto
            100 -142 rlineto
            12 -16 41 -57 53 0 rrcurveto
            58 29 58 15 6 -4 5 -6 hvcurveto
            -13 0 -4 -22 -26 0 -21 0 -19 16 -14 16 -38 45 -24 68 -123 144 -1 1 -1 1 0 2 0 3 3 1 2 1 27 10 87 56 0 100 rrcurveto
            70 -53 104 -180 vhcurveto
            return
          </CharString>
          <CharString index="28">
            0 -65 37 -65 82 -32 67 -27 64 3 58 -42 36 -26 22 -40 0 -44 0 -78 -66 -61 -79 0 -59 0 -45 32 -25 34 rrcurveto
            return
          </CharString>
          <CharString index="29">
            -30 40 11 -25 -7 70 -6 49 -1 9 -21 0 -17 0 -4 -10 -1 -11 -9 -114 -14 -37 0 -12 0 -6 4 -9 14 0 9 0 7 3 10 0 rrcurveto
            14 0 7 -5 10 -9 38 -33 56 -22 58 0 123 0 96 96 0 119 0 91 -54 65 -72 31 -64 27 -72 -1 -54 39 rrcurveto
            return
          </CharString>
          <CharString index="30">
            -31 22 -20 32 0 37 0 52 41 42 56 0 44 0 39 -26 27 -30 48 -55 -11 -36 32 -1 rrcurveto
            1 hlineto
            10 7 5 10 hvcurveto
            0 8 -4 24 0 49 0 50 4 25 0 8 0 11 -7 8 -9 0 -24 0 -3 -40 -15 0 -13 0 -35 40 -81 0 rrcurveto
            -105 -74 -80 -89 hvcurveto
            return
          </CharString>
          <CharString index="31">
            13 4 10 10 hvcurveto
            0 20 -2 6 -16 2 -78 7 -13 -4 0 26 rrcurveto
            524 vlineto
            13 1 14 21 vhcurveto
            147 hlineto
            31 0 -2 -6 47 -82 4 -7 6 -12 13 0 11 0 8 10 0 12 0 6 -4 20 -20 102 -2 13 -2 10 -16 0 rrcurveto
            -583 hlineto
            -8 0 -10 -1 -3 -14 -28 -129 -1 -3 0 -6 rrcurveto
            -1 vlineto
            -14 9 -11 13 vhcurveto
            19 0 1 12 41 81 7 14 4 6 27 0 rrcurveto
            149 hlineto
            26 1 -17 -14 hvcurveto
            -507 vlineto
            0 -20 -4 -14 -30 -3 -62 -6 -11 4 0 -25 0 -14 4 -12 16 0 4 0 60 6 72 0 73 0 58 -6 5 0 rrcurveto
            return
          </CharString>
          <CharString index="32">
            12 0 14 -18 vhcurveto
            -9 0 -26 -3 -53 0 -53 0 -26 3 -9 0 -10 0 -9 -5 0 -17 0 -18 11 -3 11 -1 46 -5 21 1 0 -49 rrcurveto
            -272 vlineto
            0 -21 1 -20 0 -21 rrcurveto
            -14 vlineto
            0 -29 -1 -45 -18 -37 -41 -87 -104 -4 -38 0 -55 0 -75 9 -50 46 -57 51 -4 70 0 71 rrcurveto
            313 vlineto
            0 14 3 17 29 4 41 6 21 -7 0 27 0 15 -4 11 -15 0 -11 0 -32 -3 -64 0 rrcurveto
            -6 hlineto
            -61 1 -30 2 -10 0 -16 0 -4 -15 0 -9 0 -20 19 -3 8 -1 26 -3 16 1 0 -27 rrcurveto
            -252 vlineto
            0 -25 -1 -26 0 -25 0 -47 1 -39 12 -42 12 -39 48 -132 239 0 76 0 64 15 49 34 83 58 6 95 0 69 rrcurveto
            32 vlineto
            0 16 -1 15 0 16 rrcurveto
            227 vlineto
            0 3 1 4 0 3 0 105 67 -58 0 44 rrcurveto
            return
          </CharString>
          <CharString index="33">
            -20 -5 -17 -11 hvcurveto
            0 -8 4 -5 1 -1 14 -17 31 22 13 -31 8 -21 66 -233 136 -333 10 -23 7 -33 22 0 3 0 3 1 3 2 15 7 -8 -10 136 352 rrcurveto
            1 2 1 2 2 0 5 0 -1 -2 119 -301 9 -25 13 -28 20 0 17 0 11 19 13 29 163 348 70 233 7 13 21 38 52 -31 0 39 rrcurveto
            18 -7 5 -10 vhcurveto
            -10 0 -30 -3 -59 0 rrcurveto
            -1 hlineto
            -61 0 -30 3 -10 0 -15 0 -3 -10 0 -12 0 -12 2 -9 18 -2 43 -5 23 2 0 -25 0 -22 -66 -233 -99 -209 -2 -6 -5 -12 -9 0 rrcurveto
            -1 hlineto
            -5 0 -4 5 -3 4 -13 18 -97 234 -70 211 -1 5 -1 4 0 4 0 19 15 4 16 2 33 4 10 -1 0 20 0 13 -3 9 -14 0 rrcurveto
            -10 0 -31 -3 -61 0 rrcurveto
            -1 hlineto
            -62 0 -31 3 -10 0 rrcurveto
            -14 -9 -8 -15 -18 7 -4 10 hvcurveto
            59 -3 -2 3 13 -38 65 -188 1 -1 0 -8 rrcurveto
            -1 vlineto
            0 -4 -1 -4 -1 -4 -99 -250 3 0 -11 0 -6 0 -6 10 -3 8 -82 220 -17 44 -57 179 -2 4 -1 4 0 5 0 2 1 6 4 5 rrcurveto
            18 22 51 -28 0 37 0 9 0 16 -18 0 -9 0 -29 -3 -56 0 -58 0 -29 3 -9 0 rrcurveto
            return
          </CharString>
          <CharString index="34">
            0 14 -4 9 -18 1 -97 5 -13 -4 0 24 rrcurveto
            195 vlineto
            0 31 1 -9 103 140 rrcurveto
            145 187 rlineto
            24 31 28 3 0 21 0 8 -7 12 -21 0 -9 0 -26 -2 -54 -1 rrcurveto
            -3 hlineto
            -53 0 -27 3 -9 0 -16 0 -5 -12 0 -8 0 -51 92 48 0 -49 0 -28 -26 -31 -149 -205 -1 -1 -2 -5 -5 0 -6 0 -2 4 -6 10 rrcurveto
            -138 239 -4 4 0 10 rrcurveto
            2 vlineto
            0 20 18 2 8 1 51 4 14 -4 0 30 0 10 -3 10 -15 0 -11 0 -32 -3 -66 0 -66 0 -33 3 -11 0 -20 0 -5 -13 0 -9 rrcurveto
            0 -6 2 -5 2 -3 11 -21 23 19 19 -24 5 -7 -5 7 184 -295 15 -25 6 -6 0 -24 rrcurveto
            -207 vlineto
            0 -22 -15 1 -14 -1 -66 -4 -12 5 0 -27 0 -22 13 -6 12 0 4 0 61 6 77 0 75 0 61 -6 5 0 13 0 3 10 0 9 rrcurveto
            return
          </CharString>
          <CharString index="35">
            -19 12 -6 8 vhcurveto
            15 0 4 14 2 8 20 78 -4 14 50 0 rrcurveto
            323 hlineto
            12 2 -7 -4 hvcurveto
            0 -4 0 -2 -14 -16 rrcurveto
            return
          </CharString>
          <CharString index="36">
            -150 -166 -142 -177 -130 -184 rrcurveto
            return
          </CharString>
          <CharString index="37">
            -4 -5 -4 -6 0 -8 rrcurveto
            -20 21 -1 7 vhcurveto
            2 0 523 0 rlineto
            40 5 -8 46 7 72 5 42 7 20 0 42 rrcurveto
            1 vlineto
            20 -15 8 -9 vhcurveto
            -11 0 -6 -7 -2 -3 -7 -14 -5 -61 -12 -29 -25 -59 -50 -2 -73 0 rrcurveto
            -21 hlineto
            -33 0 -33 1 -32 2 -77 5 -23 1 0 22 0 6 3 6 2 3 45 80 57 72 58 70 rrcurveto
            145 182 rlineto
            83 109 7 7 0 10 rrcurveto
            7 -4 11 -20 vhcurveto
            -436 hlineto
            return
          </CharString>
          <CharString index="38">
            -28 0 -22 11 -5 16 -4 9 -6 15 -16 0 rrcurveto
            -9 -12 -6 -22 hvcurveto
            -37 vlineto
            0 -90 -8 -45 0 -15 rrcurveto
            return
          </CharString>
          <CharString index="39">
            -12 0 -14 14 vhcurveto
            446 hlineto
            14 0 15 13 hvcurveto
            2 vlineto
            12 -2 13 -12 vhcurveto
            -446 hlineto
            -13 -1 -13 -12 hvcurveto
            return
          </CharString>
          <CharString index="40">
            0 -22 18 -16 7 -7 140 -142 0 -3 12 0 rrcurveto
            2 hlineto
            11 8 10 10 hvcurveto
            0 13 -5 3 -100 149 -9 14 -18 28 -28 0 rrcurveto
            -1 hlineto
            -19 -18 -15 -22 hvcurveto
            return
          </CharString>
          <CharString index="41">
            -23 21 -13 19 vhcurveto
            13 0 6 7 3 4 2 4 27 63 57 0 26 0 20 -14 12 -13 20 -23 4 -25 0 -32 rrcurveto
            -36 vlineto
            0 -7 -1 -5 -7 -2 -2 -1 -120 -4 -54 -43 -24 -19 -18 -32 0 -38 rrcurveto
            -1 vlineto
            -61 45 -51 69 vhcurveto
            37 0 33 13 23 15 25 17 -3 5 5 0 1 0 0 -1 1 0 rrcurveto
            return
          </CharString>
          <CharString index="42">
            2 -1 24 -40 45 0 rrcurveto
            52 25 56 23 9 -5 4 -4 hvcurveto
            -15 0 2 -33 -31 0 rrcurveto
            -10 -24 5 39 hvcurveto
            197 vlineto
            0 12 -1 12 -1 12 -10 98 -97 12 -38 0 rrcurveto
            -83 -71 -53 -36 hvcurveto
            return
          </CharString>
          <CharString index="43">
            -13 0 -18 2 -12 11 -16 14 -5 25 0 16 0 25 11 18 13 11 33 31 68 5 18 0 9 0 1 -5 0 -24 rrcurveto
            0 -41 0 -24 rlineto
            0 -9 -1 -7 -5 -7 rrcurveto
            -5 -7 -29 -34 -49 0 rrcurveto
            return
          </CharString>
          <CharString index="44">
            75 0 58 41 32 44 3 4 3 6 0 6 0 10 -8 7 -9 0 -23 0 -21 -54 -78 0 rrcurveto
            -92 -66 83 93 84 53 70 61 hvcurveto
            58 0 17 -60 46 0 rrcurveto
            21 19 15 23 38 -55 36 -72 -128 -86 -95 -136 -123 77 -92 115 hvcurveto
            return
          </CharString>
          <CharString index="45">
            37 0 40 -10 30 -28 10 -10 0 -7 0 -7 rrcurveto
            -224 vlineto
            0 -8 -1 -7 -2 -8 -8 -26 -48 -17 -38 0 rrcurveto
            -69 -105 61 124 101 52 66 102 hvcurveto
            return
          </CharString>
          <CharString index="46">
            -1 hlineto
            -158 -64 -112 -104 -126 87 -102 131 hvcurveto
            78 0 38 39 3 0 rrcurveto
            1 1 -1 -2 hvcurveto
            -33 vlineto
            -9 5 -1 3 vhcurveto
            10 0 13 19 46 25 40 23 19 0 0 15 0 14 -18 0 -1 0 -36 2 -10 -3 -1 15 -1 9 -2 186 0 99 0 194 3 97 0 33 rrcurveto
            8 -4 6 -8 vhcurveto
            -4 0 -19 -9 -106 -52 -3 -2 -6 -3 0 -6 0 -10 12 -4 7 -2 53 -21 7 0 0 -20 rrcurveto
            -168 vlineto
            -5 -2 -4 -5 vhcurveto
            -5 0 -38 15 -65 0 rrcurveto
            return
          </CharString>
          <CharString index="47">
            -171 111 -54 82 vhcurveto
            71 0 65 36 41 53 5 6 2 6 0 4 0 9 -7 6 -9 0 -10 0 -8 -9 -5 -5 -31 -30 -44 -19 -44 0 -126 0 -22 133 0 12 rrcurveto
            0 9 6 -1 207 71 29 10 52 10 0 30 rrcurveto
            1 vlineto
            0 9 -4 8 -4 5 -37 51 -66 45 -69 0 rrcurveto
            -100 -85 -85 -140 hvcurveto
            return
          </CharString>
          <CharString index="48">
            0 -4 -3 -5 -6 -3 -2 -1 -182 -71 -3 0 rrcurveto
            -2 -3 1 6 89 38 54 58 56 49 -54 -12 hvcurveto
            return
          </CharString>
          <CharString index="49">
            64 41 -71 -70 -62 -35 -49 -54 -62 -41 67 75 hvcurveto
            66 37 44 50 vhcurveto
            return
          </CharString>
          <CharString index="50">
            0 17 7 18 12 12 7 7 3 4 7 0 rrcurveto
            3 hlineto
            104 -11 62 9 45 -23 11 -5 29 -18 0 -36 rrcurveto
            -29 -24 -44 -103 vhcurveto
            -92 -71 39 60 hvcurveto
            return
          </CharString>
          <CharString index="51">
            0 -26 6 -25 13 -22 28 -51 33 -3 0 -10 0 -1 0 -1 -1 -1 rrcurveto
            return
          </CharString>
          <CharString index="52">
            -1 -1 -56 -42 0 -51 0 -45 37 -9 0 -6 0 -2 -1 -1 -1 -1 rrcurveto
            return
          </CharString>
          <CharString index="53">
            -1 -1 -51 -25 0 -61 rrcurveto
            -46 32 -80 164 165 43 82 55 vhcurveto
            0 44 -28 49 -63 18 rrcurveto
            return
          </CharString>
          <CharString index="54">
            -78 23 -167 -27 0 60 0 22 27 29 18 0 13 0 12 -9 33 0 94 0 72 76 0 92 0 38 -11 19 0 6 0 3 2 3 2 2 rrcurveto
            9 7 63 14 0 39 0 20 -19 21 -19 0 -16 0 -8 -15 -5 -8 -13 -19 -20 -13 -19 0 -22 0 -32 36 -72 0 rrcurveto
            -93 -69 -72 -84 hvcurveto
            return
          </CharString>
          <CharString index="55">
            -7 2 -7 9 vhcurveto
            3 0 39 6 48 0 50 0 38 -6 3 0 8 0 5 4 0 18 0 14 -9 3 -8 1 -25 3 -12 1 0 28 -4 187 -5 31 -20 47 rrcurveto
            -23 53 -45 38 -66 0 -68 0 -44 -37 -6 0 rrcurveto
            -2 -3 1 6 hvcurveto
            1 308 rlineto
            16 -9 3 -6 vhcurveto
            -1 hlineto
            -7 0 -1 -2 -107 -62 -2 -1 -14 -6 0 -12 0 -26 66 9 5 -25 1 -6 3 -158 0 -81 rrcurveto
            -4 vlineto
            0 -92 -2 -92 -3 -91 -1 -14 0 -16 -23 -4 -28 -6 -9 1 0 -17 0 -9 0 -11 12 0 3 0 40 6 51 0 49 0 40 -6 3 0 rrcurveto
            9 2 12 9 hvcurveto
            0 36 -67 -32 -8 43 -2 7 0 234 0 6 0 5 0 4 1 4 5 20 39 29 43 0 32 0 29 -16 20 -20 25 -27 23 -39 0 -144 rrcurveto
            0 -76 0 -8 -20 -3 -44 -6 -13 4 0 -21 rrcurveto
            return
          </CharString>
          <CharString index="56">
            -27 21 -20 26 26 23 21 27 25 -22 21 -26 vhcurveto
            -26 -22 -21 -26 hvcurveto
            return
          </CharString>
          <CharString index="57">
            -47 vlineto
            0 -18 -2 -14 -25 -4 -45 -6 -4 2 0 -23 0 -10 5 -7 10 0 3 0 39 6 50 0 49 0 40 -6 3 0 11 0 1 14 0 8 rrcurveto
            0 17 -12 -1 -33 5 -22 3 -1 3 0 122 rrcurveto
            33 vlineto
            0 122 6 97 0 8 rrcurveto
            12 -8 4 -6 vhcurveto
            -1 hlineto
            -5 0 -1 -2 -104 -50 -11 -5 -16 -4 0 -12 0 -8 7 -3 5 -2 64 -26 4 1 0 -16 0 -19 -1 -58 0 -116 rrcurveto
            return
          </CharString>
          <CharString index="58">
            0 -108 1 -54 0 -18 0 -69 -40 -10 -17 0 -10 0 -9 3 -11 0 rrcurveto
            -29 -15 -24 -19 -20 17 -14 21 hvcurveto
            59 0 77 104 13 18 10 15 5 10 0 19 0 30 -4 90 0 180 0 115 2 57 0 19 0 9 -2 7 -8 0 -3 0 -2 -1 -2 -1 rrcurveto
            -119 -51 -1 2 0 -10 0 -6 5 -4 4 -2 54 -33 6 0 0 -22 rrcurveto
            0 -21 -2 -64 0 -127 rrcurveto
            return
          </CharString>
          <CharString index="59">
            -26 21 -20 26 26 23 21 26 26 -22 20 -26 vhcurveto
            -26 -22 -20 -27 hvcurveto
            return
          </CharString>
          <CharString index="60">
            -1 vlineto
            -15 8 -2 5 vhcurveto
            3 0 42 6 51 0 52 0 41 -6 3 0 12 0 4 9 0 12 0 14 -9 2 -7 1 -48 6 -28 33 -26 31 -116 139 0 -2 0 5 rrcurveto
            0 3 3 2 4 4 65 67 35 38 45 12 38 10 20 -10 0 26 0 12 -4 7 -11 0 -11 0 -33 -3 -66 0 rrcurveto
            -58 hlineto
            -11 -10 -3 -10 hvcurveto
            -10 vlineto
            0 -14 26 1 0 -29 0 -24 -10 -3 -89 -91 -1 -2 -3 -2 -2 0 rrcurveto
            -3 0 2 2 hvcurveto
            472 vlineto
            7 -1 10 -10 vhcurveto
            -4 0 0 0 -95 -42 -6 -2 -14 -4 0 -11 0 0 0 -4 4 -4 1 -1 29 -20 16 -11 9 -6 3 -5 0 -13 rrcurveto
            -539 vlineto
            -3 -35 -48 27 0 -34 0 -7 4 -11 13 0 8 0 23 4 47 0 47 0 23 -4 7 0 6 0 8 3 0 14 0 16 -12 3 -9 2 rrcurveto
            -38 5 -8 -1 0 20 rrcurveto
            103 vlineto
            0 4 0 4 1 3 1 4 21 25 6 0 2 0 2 -1 0 -1 1 -1 102 -124 0 -22 0 -30 -47 28 0 -38 rrcurveto
            return
          </CharString>
          <CharString index="61">
            0 13 -5 5 -12 2 -40 7 -11 -2 0 32 rrcurveto
            633 vlineto
            9 -2 10 -12 vhcurveto
            -5 0 -4 -2 -3 -2 -121 -63 -2 2 0 -8 rrcurveto
            -1 vlineto
            0 -11 13 -4 40 -24 17 -10 6 0 0 -15 rrcurveto
            -509 vlineto
            0 -20 -2 -15 -26 -3 -34 -4 -7 1 0 -19 rrcurveto
            -3 vlineto
            -7 1 -11 13 vhcurveto
            3 0 39 5 48 0 50 0 41 -6 3 0 10 0 2 8 0 12 rrcurveto
            return
          </CharString>
          <CharString index="62">
            0 1 1 3 0 2 rrcurveto
            39 vlineto
            8 -3 7 -9 vhcurveto
            -4 0 -3 -2 -3 -2 -93 -50 -2 1 0 -8 rrcurveto
            -1 vlineto
            0 -4 3 -3 3 -3 45 -34 0 2 0 -24 rrcurveto
            -239 vlineto
            0 -17 -1 -13 -25 -4 -31 -5 -8 1 0 -20 0 -14 10 -4 6 0 3 0 37 6 48 0 49 0 41 -7 3 0 9 0 4 8 0 10 rrcurveto
            0 22 -12 -2 -42 7 -21 3 -1 14 0 11 rrcurveto
            0 3 0 237 rlineto
            0 4 0 5 1 4 4 18 41 47 58 0 23 0 55 -9 22 -51 12 -30 1 -60 0 -18 rrcurveto
            -155 vlineto
            0 -17 -3 -5 -13 -2 -40 -7 -12 2 0 -18 0 -10 2 -10 12 0 2 0 36 6 44 0 50 0 25 -6 9 0 6 0 9 3 0 17 rrcurveto
            0 7 -1 9 -13 2 -35 5 -13 -2 0 28 rrcurveto
            2 vlineto
            0 138 1 18 0 17 0 17 0 17 -2 17 -10 124 -87 20 -45 0 rrcurveto
            -2 hlineto
            -86 -1 -47 -59 -4 0 rrcurveto
            -1 hlineto
            -1 -2 1 3 hvcurveto
            return
          </CharString>
          <CharString index="63">
            -123 85 -100 127 112 101 80 143 134 -90 94 -119 -112 -104 -89 -139 vhcurveto
            return
          </CharString>
          <CharString index="64">
            -82 -55 75 104 134 79 42 52 76 72 -78 -107 -89 -57 -81 -85 hvcurveto
            return
          </CharString>
          <CharString index="65">
            -2 -1 2 3 hvcurveto
            40 vlineto
            9 -1 11 -11 vhcurveto
            -3 0 -3 -2 -3 -1 -104 -51 -1 2 0 -5 1 -4 2 -2 1 -1 47 -34 8 1 0 -20 rrcurveto
            -265 vlineto
            0 -15 -4 -6 -14 -3 -27 -7 -18 6 0 -24 0 -10 6 -7 10 0 3 0 43 6 56 0 54 0 44 -6 3 0 13 0 1 12 0 8 rrcurveto
            0 23 -13 -4 -60 5 -24 2 -1 17 0 11 rrcurveto
            0 4 0 240 rlineto
            0 7 0 5 4 6 6 9 40 32 32 0 33 0 1 -25 25 0 17 0 13 13 11 7 8 7 18 11 1 17 rrcurveto
            1 vlineto
            28 -46 16 -32 vhcurveto
            -11 0 -9 -1 -9 -3 -27 -10 -73 -55 -4 0 rrcurveto
            return
          </CharString>
          <CharString index="66">
            0 -49 30 -50 81 -23 32 -9 88 -10 0 -66 0 -40 -36 -27 -45 0 rrcurveto
            return
          </CharString>
          <CharString index="67">
            -58 0 -46 38 -10 21 -14 28 16 34 -25 0 -15 0 -3 -5 0 -26 0 -14 1 -19 0 -27 0 -15 2 -8 10 -11 29 -34 63 -16 46 0 rrcurveto
            99 53 71 64 hvcurveto
            0 16 -4 33 -26 30 -37 43 -47 3 -51 14 rrcurveto
            return
          </CharString>
          <CharString index="68">
            -74 21 -5 37 0 14 0 32 29 21 34 0 33 0 36 -21 13 -18 14 -20 -3 -29 21 0 8 0 15 3 0 13 0 4 -13 66 -6 35 rrcurveto
            -1 5 -3 14 -12 0 -12 0 -4 -10 -9 0 -5 0 -15 5 -30 0 rrcurveto
            -90 -54 -58 -60 hvcurveto
            return
          </CharString>
          <CharString index="69">
            32 hlineto
            6 1 -4 -5 hvcurveto
            0 -22 -4 -155 0 -44 0 -11 0 -10 1 -11 7 -94 54 -28 40 0 55 0 49 50 35 40 2 3 5 6 0 8 0 9 -7 9 -11 0 rrcurveto
            -22 0 -39 -60 -48 0 -42 0 -9 39 0 35 0 24 0 23 1 187 rrcurveto
            7 3 2 7 vhcurveto
            117 hlineto
            9 0 5 1 4 4 5 6 4 17 0 6 0 19 -17 0 -9 0 -3 0 -2 1 -3 0 rrcurveto
            -90 hlineto
            -12 -8 3 17 hvcurveto
            0 14 1 42 0 14 0 13 -7 3 -6 0 -11 0 -6 -13 -3 -5 -54 -92 -50 -18 0 -17 rrcurveto
            -12 11 -1 9 vhcurveto
            return
          </CharString>
          <CharString index="70">
            1 2 0 -4 hvcurveto
            -23 vlineto
            -10 2 -10 12 vhcurveto
            4 0 4 2 3 2 86 47 14 -23 0 30 0 6 -1 3 -7 3 -44 21 -6 -3 0 12 rrcurveto
            313 vlineto
            10 -1 10 -14 vhcurveto
            -13 0 -12 -1 -98 -3 -8 -1 -6 -3 0 -13 0 -10 5 -4 10 -2 51 -9 15 1 0 -28 rrcurveto
            -246 vlineto
            0 -12 -2 -1 -15 -17 -18 -18 -29 -18 -38 0 -53 0 -37 36 -16 31 -18 36 0 37 0 30 rrcurveto
            205 vlineto
            7 -2 5 -8 vhcurveto
            -10 0 -11 -1 -83 -5 -10 -1 -1 -6 0 -7 rrcurveto
            -3 vlineto
            0 -17 13 4 18 -8 27 -10 0 -9 0 -9 0 -16 -1 -113 0 -32 0 -21 1 -20 2 -20 12 -92 60 -53 81 0 83 0 51 51 5 0 rrcurveto
            return
          </CharString>
          <CharString index="71">
            -8 0 -24 -4 -48 0 -47 0 -24 4 -7 0 -11 0 -1 -9 0 -8 0 -16 8 -3 10 -1 43 -3 18 3 0 -24 0 -11 -25 -122 -72 -127 rrcurveto
            -1 -3 -3 -6 -8 0 -6 0 -5 5 -5 9 -65 103 -60 134 0 19 0 16 13 4 10 1 56 5 2 -3 0 16 rrcurveto
            6 vlineto
            7 -3 8 -11 vhcurveto
            -10 0 -31 -3 -62 0 -62 0 -31 3 -10 0 -13 0 -3 -9 0 -14 0 -32 50 31 25 -39 4 -6 34 -70 0 -8 rrcurveto
            -1 vlineto
            -1 -15 -51 -100 -39 -60 0 -1 -4 -7 -6 0 -6 0 -3 6 -1 2 -41 80 -38 84 -33 87 -3 6 -3 8 0 5 0 30 62 -31 0 37 rrcurveto
            12 -5 5 -7 vhcurveto
            -7 0 -22 -3 -43 0 rrcurveto
            -3 hlineto
            -44 0 -23 3 -7 0 -15 0 -3 -8 0 -9 0 -33 28 25 16 -28 7 -12 51 -146 107 -203 9 -17 8 -9 12 0 8 0 6 4 4 5 rrcurveto
            8 9 0 3 67 135 37 79 0 0 3 0 4 0 -1 -1 63 -122 47 -87 11 -25 19 0 11 0 7 6 10 19 161 300 -33 67 43 9 rrcurveto
            9 1 22 -5 0 26 0 10 -5 7 -10 0 rrcurveto
            return
          </CharString>
          <CharString index="72">
            29 0 21 25 24 37 73 111 61 140 45 109 70 174 -12 0 21 3 32 4 7 -1 0 16 0 11 0 9 -12 0 -7 0 -23 -3 -46 0 rrcurveto
            -1 hlineto
            -47 0 -24 3 -7 0 -12 0 -7 -7 0 -11 0 -15 10 -3 9 -1 33 -3 15 4 0 -24 0 -33 -30 -78 -52 -124 -2 -2 -2 -8 -6 0 rrcurveto
            -5 -2 4 2 hvcurveto
            -68 128 -41 109 0 9 0 11 8 2 7 1 30 3 7 -2 0 22 0 8 -2 8 -11 0 -8 0 -24 -3 -47 0 -47 0 -24 3 -7 0 rrcurveto
            -11 -3 -7 -10 hvcurveto
            0 -33 22 21 16 -21 2 -3 35 -65 18 -34 82 -164 29 -62 0 -22 0 -28 -41 -63 -26 -24 -37 -35 -51 -12 0 -40 0 -20 17 -16 22 0 rrcurveto
            return
          </CharString>
          <CharString index="73">
            -8 -8 -3 -12 hvcurveto
            -30 vlineto
            0 -58 -10 -41 0 -3 0 -10 13 -3 5 0 14 0 2 13 1 3 9 39 -1 6 14 0 rrcurveto
            119 hlineto
            10 10 -3 -11 hvcurveto
            0 -5 -3 -5 -3 -3 rrcurveto
            -204 -275 rlineto
            -5 -8 -8 -10 0 -12 rrcurveto
            -9 4 -14 26 vhcurveto
            232 hlineto
            9 8 -1 -14 hvcurveto
            -60 vlineto
            -10 3 -8 14 20 10 5 15 vhcurveto
            0 6 -1 16 0 32 rrcurveto
            return
          </CharString>
          <CharString index="74">
            0 80 13 59 0 4 0 14 -17 3 -7 0 -14 0 -2 -13 -1 -3 -10 -51 2 -10 -19 0 -3 0 -6 1 -6 0 rrcurveto
            -145 hlineto
            -8 -8 1 10 hvcurveto
            0 7 1 -2 226 307 2 4 4 4 0 6 rrcurveto
            11 -10 4 -12 vhcurveto
            -218 hlineto
            -25 0 20 37 -23 0 rrcurveto
            return
          </CharString>
          <CharString index="75">
            -27 22 -20 26 26 22 21 27 25 -21 21 -27 -25 -23 -21 -26 vhcurveto
            return
          </CharString>
          <CharString index="76">
            -29 0 -17 -28 -9 -14 -103 -152 -2 0 0 -13 0 -10 7 -10 12 0 6 0 5 2 4 3 5 4 88 89 46 47 13 14 11 13 0 18 rrcurveto
            22 -17 15 -20 vhcurveto
            return
          </CharString>
          <CharString index="77">
            -31 -28 -23 -35 -35 29 -24 31 34 25 27 31 33 -28 26 -32 hvcurveto
            return
          </CharString>
          <CharString index="78">
            0 -30 31 -12 10 -5 178 -85 0 -1 8 0 rrcurveto
            1 hlineto
            10 10 7 12 hvcurveto
            0 5 -2 4 -2 4 -4 6 4 -3 -153 111 -13 10 -18 13 -21 0 -21 0 -18 -14 0 -22 rrcurveto
            return
          </CharString>
          <CharString index="79">
            -20 0 -18 -13 -13 -10 rrcurveto
            -138 -100 rlineto
            -12 -8 -7 -8 0 -10 0 -12 10 -8 10 0 9 0 -1 1 179 85 14 7 27 11 0 29 0 21 -19 15 -21 0 rrcurveto
            return
          </CharString>
          <CharString index="80">
            24 0 57 72 26 0 14 0 10 -12 55 -46 6 -6 10 -8 10 0 11 0 5 9 0 6 0 9 -1 -2 -93 115 -9 10 -6 4 -10 0 rrcurveto
            -19 0 -13 -16 -6 -8 -86 -107 0 3 0 -9 0 -4 3 -10 12 0 rrcurveto
            return
          </CharString>
          <CharString index="81">
            -45 0 -22 43 -45 0 -23 0 -15 -11 -12 -12 -14 -14 -31 -48 0 -4 0 -5 9 -10 4 0 8 0 18 52 44 0 rrcurveto
            return
          </CharString>
          <CharString index="82">
            40 0 16 -45 51 0 24 0 20 11 14 11 24 18 32 39 0 8 0 7 -15 6 -4 0 rrcurveto
            -12 0 -20 -46 -46 0 rrcurveto
            return
          </CharString>
          <CharString index="83">
            -46 -39 -40 -48 -49 39 -39 46 47 38 39 49 47 -37 41 -48 hvcurveto
            return
          </CharString>
          <CharString index="84">
            26 20 -25 -25 -24 -18 -25 -27 -26 -20 23 27 26 20 23 25 hvcurveto
            return
          </CharString>
          <CharString index="85">
            -19 0 -32 8 -1 0 -11 0 -3 -23 0 -1 0 -3 1 -2 3 -2 rrcurveto
            return
          </CharString>
          <CharString index="86">
            9 0 7 8 8 13 40 69 2 8 11 0 9 0 1 -5 40 -70 9 -15 6 -8 11 0 4 0 11 3 0 13 0 4 -2 4 -1 3 rrcurveto
            -46 133 -16 61 -27 0 -17 0 -9 -22 -3 -7 -18 -40 -44 -130 0 -7 0 -12 10 -3 5 0 rrcurveto
            return
          </CharString>
          <CharString index="87">
            4 -4 43 -9 32 0 rrcurveto
            65 17 43 32 hvcurveto
            return
          </CharString>
          <CharString index="88">
            -66 0 -44 68 -12 0 rrcurveto
            -13 -11 -13 -9 -5 60 -106 84 hvcurveto
            4 hlineto
            84 61 106 5 10 -14 12 -11 hvcurveto
            -11 0 -45 -68 -66 0 rrcurveto
            return
          </CharString>
          <CharString index="89">
            -3 vlineto
            20 -119 48 -30 45 0 rrcurveto
            99 30 146 8 6 -10 1 -8 hvcurveto
            -7 0 -3 -4 -2 -3 -4 -6 -30 -80 -60 0 rrcurveto
            -1 hlineto
            -24 0 -20 14 -16 20 -29 39 13 21 -19 0 -8 0 -14 -2 0 -8 rrcurveto
            return
          </CharString>
          <CharString index="90">
            -31 26 -24 32 31 27 25 31 31 -26 25 -32 -30 -28 -25 -32 vhcurveto
            return
          </CharString>
          <CharString index="91">
            -24 0 -57 -72 -26 0 -14 0 -11 12 -54 46 -6 6 -10 8 -10 0 -11 0 -5 -9 0 -6 0 -9 5 -3 89 -110 9 -10 6 -4 10 0 rrcurveto
            19 0 13 16 6 8 86 107 0 -3 0 9 0 8 -8 6 -7 0 rrcurveto
            return
          </CharString>
          <CharString index="92">
            -9 0 -7 -8 -8 -14 -40 -68 -2 -8 -11 0 -2 0 -4 0 -4 5 -1 2 -26 45 -13 23 -9 15 -6 8 -11 0 -4 0 -11 -3 0 -13 rrcurveto
            0 -4 2 -4 1 -3 46 -133 16 -61 27 0 17 0 9 22 3 7 18 39 44 131 0 7 0 12 -10 3 -5 0 rrcurveto
            return
          </CharString>
          <CharString index="93">
            0 -108 1 -54 0 -18 0 -69 -40 -10 -17 0 -10 0 -9 3 -11 0 rrcurveto
            -29 -15 -24 -19 -20 17 -14 21 hvcurveto
            59 0 77 104 13 18 10 15 5 10 0 19 0 30 -4 90 0 180 0 115 2 57 0 19 0 9 -2 7 -8 0 -3 0 -2 -1 -2 -1 rrcurveto
            -119 -51 -1 2 0 -10 0 -6 5 -4 4 -2 54 -33 6 0 0 -22 0 -21 -2 -64 0 -127 rrcurveto
            return
          </CharString>
          <CharString index="94">
            -41 -23 -31 -25 -16 10 -27 40 hvcurveto
            6 0 5 1 6 0 36 0 7 -23 0 -14 0 -37 -35 -15 0 -16 rrcurveto
            -10 8 -9 11 14 42 30 80 84 -52 28 -34 vhcurveto
            return
          </CharString>
          <CharString index="95">
            41 22 31 25 16 -9 27 -40 hvcurveto
            -6 0 -6 -1 -6 0 -36 0 -7 23 0 15 0 37 36 15 0 15 0 10 -8 9 -11 1 rrcurveto
            -15 -42 -31 -80 -84 52 -28 35 hvcurveto
            return
          </CharString>
          <CharString index="96">
            -41 -23 -31 -25 -16 10 -27 40 hvcurveto
            6 0 5 1 6 0 36 0 7 -23 0 -14 0 -37 -35 -15 0 -16 rrcurveto
            -9 8 -10 10 vhcurveto
            1 hlineto
            14 42 30 80 84 -52 28 -34 hvcurveto
            return
          </CharString>
        <CharString name=".notdef">
          78 0 50 391 50 hstem
          50 50 300 50 vstem
          50 hmoveto
          400 491 -400 hlineto
          50 -441 rmoveto
          391 300 -391 vlineto
          endchar
        </CharString>
        <CharString name="A">
          399 -6 51 255 52 hstem
          9 175 438 195 vstem
          137 hmoveto
          -102 callsubr
          372 352 rmoveto
          -101 callsubr
          endchar
        </CharString>
        <CharString name="AE">
          588 -6 42 -36 55 245 52 17 58 204 62 -55 55 -40 48 hstemhm
          517 91 211 54 hintmask 0011100110000000
          508 352 rmoveto
          -178 hlineto
          -4 -5 0 4 hvcurveto
          0 10 131 215 44 45 3 3 4 2 4 0 5 0 4 -4 1 -8 rrcurveto
          -258 vlineto
          -7 -5 -2 -4 vhcurveto
          -200 323 rmoveto
          hintmask 1011001110000000
          0 -10 4 -10 16 -2 71 -11 26 1 0 -18 0 -16 -36 -29 -136 -220 -136 -220 -17 -61 -23 -20 -21 -18 -34 0 -15 -5 -8 -3 -3 -9 0 -9 rrcurveto
          -10 5 -11 11 vhcurveto
          hintmask 0111000110000000
          4 0 51 6 65 0 rrcurveto
          hintmask 1011000110000000
          64 0 53 -6 4 0 14 0 3 13 0 9 0 19 -10 3 -8 1 -46 7 -26 -2 0 28 0 19 46 109 57 89 6 10 -2 1 53 0 rrcurveto
          166 hlineto
          4 0 6 -1 1 -8 rrcurveto
          -197 vlineto
          0 -11 0 -10 -4 -8 -18 -40 -78 35 0 -45 0 -10 6 -11 11 0 rrcurveto
          hintmask 0111010110000000
          14 0 14 6 109 0 rrcurveto
          335 hlineto
          20 0 11 0 4 20 29 128 2 8 0 7 0 15 -9 8 -9 0 -3 0 -4 -1 -3 -2 -16 -10 -35 -83 -18 -14 -13 -10 -60 -11 -70 0 rrcurveto
          -31 0 -32 2 -31 5 -31 4 -1 12 0 30 rrcurveto
          221 vlineto
          38 25 2 24 vhcurveto
          138 hlineto
          23 3 -6 -31 hvcurveto
          -39 vlineto
          -9 1 -13 26 26 1 18 11 vhcurveto
          184 vlineto
          11 -1 18 -26 -24 -3 -12 -10 vhcurveto
          -18 vlineto
          -33 -2 -13 -36 vhcurveto
          -153 hlineto
          -19 -1 12 10 hvcurveto
          147 vlineto
          22 0 20 31 vhcurveto
          191 hlineto
          19 0 7 0 6 -9 7 -11 33 -71 7 -12 4 -7 7 -3 8 0 12 0 13 8 0 11 0 4 -22 83 -7 44 -1 7 -2 6 -9 3 rrcurveto
          hintmask 0011100110000000
          -9 2 -393 -2 -51 2 rrcurveto
          hintmask 1011001110000000
          -100 4 -28 4 -9 0 -11 0 -3 -21 0 -5 rrcurveto
          endchar
        </CharString>
        <CharString name="Aacute">
          399 -6 51 255 52 376 169 hstem
          9 175 175 248 15 195 vstem
          567 897 rmoveto
          -28 callsubr
          -430 -897 rmoveto
          -102 callsubr
          372 352 rmoveto
          -101 callsubr
          endchar
        </CharString>
        <CharString name="Abreve">
          399 -6 51 255 52 386 65 hstem
          9 175 113 293 32 195 vstem
          443 803 rmoveto
          -19 callsubr
          -306 -803 rmoveto
          -102 callsubr
          372 352 rmoveto
          -101 callsubr
          endchar
        </CharString>
        <CharString name="Acircumflex">
          399 -6 51 255 52 448 79 hstem
          9 175 135 243 60 195 vstem
          334 728 rmoveto
          -27 callsubr
          -197 -728 rmoveto
          -102 callsubr
          372 352 rmoveto
          -101 callsubr
          endchar
        </CharString>
        <CharString name="Adieresis">
          399 -6 51 255 52 376 94 hstem
          9 175 141 96 39 96 66 195 vstem
          460 775 rmoveto
          -32 callsubr
          -135 hmoveto
          -32 callsubr
          -188 -775 rmoveto
          -102 callsubr
          372 352 rmoveto
          -101 callsubr
          endchar
        </CharString>
        <CharString name="Agrave">
          399 -6 51 255 52 377 169 hstem
          9 175 104 248 86 195 vstem
          288 862 rmoveto
          -29 callsubr
          -151 -862 rmoveto
          -102 callsubr
          372 352 rmoveto
          -101 callsubr
          endchar
        </CharString>
        <CharString name="Aring">
          399 -6 51 255 52 361 39 99 38 hstem
          9 175 174 40 91 39 94 195 vstem
          443 889 rmoveto
          -24 callsubr
          -38 vmoveto
          -23 callsubr
          -306 -851 rmoveto
          -102 callsubr
          372 352 rmoveto
          -101 callsubr
          endchar
        </CharString>
        <CharString name="Atilde">
          399 -6 51 255 52 393 54 -9 52 hstemhm
          9 175 101 304 33 195 hintmask 00100100
          492 799 rmoveto
          hintmask 00010100
          -26 callsubr
          hintmask 00100100
          -25 callsubr
          hintmask 11001010
          -355 -799 rmoveto
          -102 callsubr
          372 352 rmoveto
          -101 callsubr
          endchar
        </CharString>
        <CharString name="B">
          142 0 41 314 43 253 44 hstemhm
          94 85 223 89 -44 89 hintmask 11110100
          90 686 rmoveto
          -29 0 -15 1 -4 0 rrcurveto
          -12 -6 -7 -11 -21 8 -4 10 hvcurveto
          34 -3 18 -1 0 -28 rrcurveto
          -547 vlineto
          0 -17 -10 -1 -11 -2 -43 -5 -13 1 0 -19 0 -23 9 -1 10 0 rrcurveto
          2 hlineto
          45 0 34 2 35 0 46 0 45 -6 46 0 72 0 37 18 11 5 59 26 68 67 0 96 0 89 -62 70 -77 15 -2 1 -1 1 0 1 rrcurveto
          0 1 1 1 1 1 rrcurveto
          hintmask 11111000
          53 33 42 58 0 63 0 54 -32 40 -29 21 -52 36 -73 4 -41 0 rrcurveto
          -60 0 -53 -9 -61 0 rrcurveto
          312 -167 rmoveto
          0 -20 -5 -19 -9 -18 -32 -61 -68 -3 -40 0 rrcurveto
          -13 0 -45 0 rlineto
          -9 -1 5 8 hvcurveto
          0 214 0 2 rlineto
          0 4 0 5 5 4 10 8 40 3 20 0 117 0 30 -84 0 -48 rrcurveto
          -145 -478 rmoveto
          -16 0 -16 2 -15 2 -29 5 -1 15 0 17 rrcurveto
          258 vlineto
          8 1 7 13 vhcurveto
          51 hlineto
          28 0 29 0 27 -6 rrcurveto
          hintmask 11110100
          87 -19 31 -70 0 -59 0 -105 -91 -55 -99 0 rrcurveto
          endchar
        </CharString>
        <CharString name="C">
          278 -24 51 433 -21 211 46 hstem
          19 96 498 49 vstem
          115 354 rmoveto
          -100 callsubr
          endchar
        </CharString>
        <CharString name="Cacute">
          278 -24 51 412 21 190 46 32 169 hstem
          19 96 162 248 88 49 vstem
          485 897 rmoveto
          -28 callsubr
          -370 -543 rmoveto
          -100 callsubr
          endchar
        </CharString>
        <CharString name="Ccaron">
          278 -24 51 412 21 190 46 32 79 hstem
          19 96 153 243 102 49 vstem
          496 879 rmoveto
          -16 callsubr
          -381 -525 rmoveto
          -100 callsubr
          endchar
        </CharString>
        <CharString name="Ccedilla">
          278 -195 36 -23 31 128 50 433 -21 211 46 hstemhm
          19 96 305 61 132 49 hintmask 10111111
          363 -23 rmoveto
          -7 -17 -12 -31 0 -1 0 -3 3 0 2 0 42 -3 29 -22 0 -27 0 -19 -16 -13 -22 0 rrcurveto
          hintmask 01111111
          -22 callsubr
          hintmask 10111111
          4 -4 43 -9 32 0 rrcurveto
          65 17 43 32 hvcurveto
          1 vlineto
          50 -36 26 -48 vhcurveto
          -3 hlineto
          -3 -1 1 2 hvcurveto
          0 1 1 2 5 13 59 3 58 17 52 30 21 13 2 8 24 0 rrcurveto
          28 0 1 0 rlineto
          5 0 13 1 4 15 3 7 22 156 0 0 0 8 -9 3 -7 0 -12 0 -2 -10 -1 -3 -37 -120 -109 -77 -115 0 rrcurveto
          -156 -125 143 184 185 131 111 137 hvcurveto
          92 0 71 -46 41 -52 18 -23 4 -16 4 -27 5 -40 -2 -7 26 0 17 0 3 10 0 7 0 10 -27 201 0 1 -1 6 -2 6 -10 0 rrcurveto
          -2 0 -6 -1 -3 0 -19 -5 7 -31 -17 0 -13 0 -62 53 -121 0 rrcurveto
          -1 hlineto
          -93 0 -94 -37 -68 -65 -65 -63 -46 -95 0 -101 rrcurveto
          0 -188 148 -161 196 -9 rrcurveto
          endchar
        </CharString>
        <CharString name="Ccircumflex">
          278 -24 51 412 21 190 46 104 79 hstem
          19 96 149 243 106 49 vstem
          279 728 rmoveto
          -27 callsubr
          -164 -374 rmoveto
          -100 callsubr
          endchar
        </CharString>
        <CharString name="Cdotaccent">
          278 -24 51 412 21 190 46 63 112 hstem
          19 96 213 116 169 49 vstem
          328 814 rmoveto
          -17 callsubr
          -213 -460 rmoveto
          -100 callsubr
          endchar
        </CharString>
        <CharString name="D">
          287 0 48 585 42 hstem
          111 89 395 100 vstem
          300 48 rmoveto
          -99 callsubr
          -289 606 rmoveto
          -98 callsubr
          endchar
        </CharString>
        <CharString name="Dcaron">
          287 0 48 585 42 53 79 hstem
          111 89 31 243 121 100 vstem
          459 879 rmoveto
          -16 callsubr
          -159 -831 rmoveto
          -99 callsubr
          -289 606 rmoveto
          -98 callsubr
          endchar
        </CharString>
        <CharString name="E">
          156 0 55 314 58 211 53 hstem
          107 91 211 55 vstem
          436 513 rmoveto
          -97 callsubr
          endchar
        </CharString>
        <CharString name="Eacute">
          156 0 55 314 58 211 53 37 169 hstemhm
          107 91 -36 248 -1 55 hintmask 00010100
          370 897 rmoveto
          -28 callsubr
          hintmask 11101010
          66 -384 rmoveto
          -97 callsubr
          endchar
        </CharString>
        <CharString name="Ebreve">
          156 0 55 314 58 211 53 47 65 hstemhm
          107 91 -58 293 -24 55 hintmask 00010100
          286 803 rmoveto
          -19 callsubr
          hintmask 11101010
          150 -290 rmoveto
          -97 callsubr
          endchar
        </CharString>
        <CharString name="Ecaron">
          156 0 55 314 58 211 53 37 79 hstemhm
          107 91 -34 243 2 55 hintmask 00010100
          392 879 rmoveto
          -16 callsubr
          hintmask 11101010
          44 -366 rmoveto
          -97 callsubr
          endchar
        </CharString>
        <CharString name="Ecircumflex">
          156 0 55 314 58 211 53 109 79 hstemhm
          107 91 -34 243 2 55 hintmask 00010100
          179 728 rmoveto
          -27 callsubr
          hintmask 11101010
          257 -215 rmoveto
          -97 callsubr
          endchar
        </CharString>
        <CharString name="Edieresis">
          156 0 55 314 58 211 53 37 94 hstemhm
          107 91 -28 96 39 96 8 55 hintmask 00010110
          305 775 rmoveto
          -32 callsubr
          -135 hmoveto
          -32 callsubr
          hintmask 11101001
          266 -262 rmoveto
          -97 callsubr
          endchar
        </CharString>
        <CharString name="Edotaccent">
          156 0 55 314 58 211 53 68 112 hstem
          107 91 30 116 65 55 vstem
          228 814 rmoveto
          -17 callsubr
          208 -301 rmoveto
          -97 callsubr
          endchar
        </CharString>
        <CharString name="Egrave">
          156 0 55 314 58 211 53 38 169 hstemhm
          107 91 -37 248 0 55 hintmask 00010100
          161 862 rmoveto
          -29 callsubr
          hintmask 11101010
          275 -349 rmoveto
          -97 callsubr
          endchar
        </CharString>
        <CharString name="Euro">
          291 -14 60 188 62 49 61 188 60 hstem
          119 61 vstem
          451 594 rmoveto
          129 0 72 -82 13 -21 0 0 11 21 17 42 -76 72 -73 28 -99 0 -92 0 -168 -56 -56 -192 rrcurveto
          -84 0 -25 -61 99 0 0 -49 -70 0 -25 -62 105 0 rlineto
          59 -191 154 -57 111 0 86 0 69 30 60 48 rrcurveto
          0 78 -4 1 rlineto
          -3 -3 -72 -94 -140 0 -87 0 -124 54 -45 134 rrcurveto
          365 0 26 62 -404 0 rlineto
          0 5 -1 8 0 12 0 11 1 8 0 5 rrcurveto
          425 0 25 61 -437 0 rlineto
          52 143 120 45 86 0 rrcurveto
          endchar
        </CharString>
        <CharString name="F">
          119 -6 51 315 58 218 51 hstem
          98 96 209 47 vstem
          450 483 rmoveto
          13 -10 8 -13 vhcurveto
          -17 0 -5 -14 -2 -13 -9 -50 3 -9 -21 0 rrcurveto
          -167 hlineto
          -12 -3 5 10 hvcurveto
          167 vlineto
          19 2 17 27 vhcurveto
          184 hlineto
          20 0 5 -5 10 -16 37 -66 6 -17 20 0 11 0 9 9 0 14 0 6 -17 74 -6 27 -6 24 -15 1 -12 0 rrcurveto
          -5 0 -190 0 rlineto
          -54 0 -70 -3 -38 0 -50 0 -25 4 -9 0 rrcurveto
          -11 -7 -7 -23 -21 18 0 5 hvcurveto
          50 -2 15 3 0 -32 rrcurveto
          -530 vlineto
          0 -17 -4 -11 -26 -3 -43 -4 -14 5 0 -29 0 -14 8 -9 15 0 4 0 58 6 73 0 72 0 58 -6 5 0 rrcurveto
          13 4 10 11 hvcurveto
          9 vlineto
          0 27 -23 -6 -65 2 -41 2 0 18 0 17 rrcurveto
          248 vlineto
          14 1 14 21 vhcurveto
          163 hlineto
          12 0 5 -3 1 -11 7 -58 -3 -18 24 0 11 0 16 5 0 21 0 9 -4 28 0 57 0 56 4 27 0 10 rrcurveto
          endchar
        </CharString>
        <CharString name="G">
          269 -24 53 231 46 156 -21 217 48 hstem
          16 100 429 84 vstem
          366 -24 rmoveto
          -96 callsubr
          endchar
        </CharString>
        <CharString name="Gbreve">
          269 -24 53 231 46 135 21 196 48 32 65 hstem
          16 100 88 293 48 84 vstem
          350 803 rmoveto
          -19 callsubr
          16 -827 rmoveto
          -96 callsubr
          endchar
        </CharString>
        <CharString name="Gcircumflex">
          269 -24 53 231 46 135 21 196 48 94 79 hstem
          16 100 112 243 74 84 vstem
          243 728 rmoveto
          -27 callsubr
          123 -752 rmoveto
          -96 callsubr
          endchar
        </CharString>
        <CharString name="Gcommaaccent">
          269 -311 247 40 53 231 46 135 21 196 48 hstem
          16 100 257 51 121 84 vstem
          336 -64 rmoveto
          -104 callsubr
          30 40 rmoveto
          -96 callsubr
          endchar
        </CharString>
        <CharString name="Gdotaccent">
          269 -24 53 231 46 135 21 196 48 53 112 hstem
          16 100 181 116 132 84 vstem
          297 814 rmoveto
          -17 callsubr
          69 -838 rmoveto
          -96 callsubr
          endchar
        </CharString>
        <CharString name="H">
          340 -6 50 321 62 209 51 hstem
          109 89 369 88 vstem
          158 hmoveto
          -95 callsubr
          endchar
        </CharString>
        <CharString name="Hcircumflex">
          340 -6 50 321 62 209 51 113 79 hstem
          109 89 63 243 63 88 vstem
          276 728 rmoveto
          -27 callsubr
          -118 -728 rmoveto
          -95 callsubr
          endchar
        </CharString>
        <CharString name="I">
          -99 -6 54 583 49 hstem
          118 91 vstem
          52 680 rmoveto
          -94 callsubr
          endchar
        </CharString>
        <CharString name="IJ">
          217 -212 60 146 54 583 49 -48 48 hstemhm
          118 91 232 91 hintmask 10010100
          488 675 rmoveto
          -93 callsubr
          hintmask 01101000
          -436 5 rmoveto
          -94 callsubr
          endchar
        </CharString>
        <CharString name="Iacute">
          -99 -6 54 583 49 48 169 hstemhm
          35 248 -165 91 hintmask 00110000
          243 897 rmoveto
          -28 callsubr
          hintmask 11001000
          -191 -217 rmoveto
          -94 callsubr
          endchar
        </CharString>
        <CharString name="Ibreve">
          -99 -6 54 583 49 58 65 hstemhm
          13 293 -188 91 hintmask 00110000
          159 803 rmoveto
          -19 callsubr
          hintmask 11001000
          -107 -123 rmoveto
          -94 callsubr
          endchar
        </CharString>
        <CharString name="Icircumflex">
          -99 -6 54 583 49 120 79 hstemhm
          38 243 -163 91 hintmask 00110000
          53 728 rmoveto
          -27 callsubr
          hintmask 11001000
          -1 -48 rmoveto
          -94 callsubr
          endchar
        </CharString>
        <CharString name="Idieresis">
          -99 -6 54 583 49 48 94 hstemhm
          44 96 -22 91 -30 96 hintmask 00110100
          179 775 rmoveto
          -32 callsubr
          -135 hmoveto
          -32 callsubr
          hintmask 11001000
          8 -95 rmoveto
          -94 callsubr
          endchar
        </CharString>
        <CharString name="Idotaccent">
          -99 -6 54 583 49 79 112 hstemhm
          101 116 -99 91 hintmask 00110000
          101 814 rmoveto
          -17 callsubr
          hintmask 11001000
          -49 -134 rmoveto
          -94 callsubr
          endchar
        </CharString>
        <CharString name="Igrave">
          -99 -6 54 583 49 49 169 hstemhm
          35 248 -165 91 hintmask 00110000
          35 862 rmoveto
          -29 callsubr
          hintmask 11001000
          17 -182 rmoveto
          -94 callsubr
          endchar
        </CharString>
        <CharString name="Itilde">
          -99 -6 54 583 49 55 54 -9 52 hstemhm
          7 304 -193 91 hintmask 00101000
          214 789 rmoveto
          hintmask 00011000
          -26 callsubr
          hintmask 00101000
          -25 callsubr
          hintmask 11000100
          -162 -109 rmoveto
          -94 callsubr
          endchar
        </CharString>
        <CharString name="J">
          -106 -212 60 784 48 hstem
          118 91 vstem
          165 675 rmoveto
          -93 callsubr
          endchar
        </CharString>
        <CharString name="Jcircumflex">
          -106 -212 60 784 48 120 79 hstemhm
          35 243 -160 91 hintmask 00110000
          50 728 rmoveto
          -27 callsubr
          hintmask 11001000
          115 -53 rmoveto
          -93 callsubr
          endchar
        </CharString>
        <CharString name="K">
          232 -6 50 271 55 270 48 hstem
          111 88 vstem
          280 -6 rmoveto
          -92 callsubr
          endchar
        </CharString>
        <CharString name="Kcommaaccent">
          232 -293 247 40 50 271 55 270 48 hstem
          111 88 154 51 vstem
          316 -46 rmoveto
          -104 callsubr
          -36 40 rmoveto
          -92 callsubr
          endchar
        </CharString>
        <CharString name="L">
          141 -6 66 -60 45 584 49 hstemhm
          92 93 hintmask 01110000
          151 675 rmoveto
          -91 callsubr
          hintmask 10110000
          -90 callsubr
          endchar
        </CharString>
        <CharString name="Lacute">
          141 -6 66 -60 45 584 49 50 169 hstemhm
          92 93 -30 248 hintmask 00010100
          363 897 rmoveto
          -28 callsubr
          hintmask 01101000
          -212 -222 rmoveto
          -91 callsubr
          hintmask 10101000
          -90 callsubr
          endchar
        </CharString>
        <CharString name="Lcaron">
          141 -6 66 -60 45 426 247 -89 49 hstemhm
          92 93 319 51 hintmask 00100100
          467 718 rmoveto
          -104 callsubr
          hintmask 01011000
          -316 -43 rmoveto
          -91 callsubr
          hintmask 10011000
          -90 callsubr
          endchar
        </CharString>
        <CharString name="Lcommaaccent">
          141 -293 247 40 66 -60 45 584 49 hstemhm
          92 93 117 51 hintmask 10000100
          265 -46 rmoveto
          -104 callsubr
          hintmask 00111000
          -114 721 rmoveto
          -91 callsubr
          hintmask 01011000
          -90 callsubr
          endchar
        </CharString>
        <CharString name="M">
          576 -6 55 567 59 -40 40 hstemhm
          149 45 615 89 hintmask 11011000
          721 -6 rmoveto
          4 0 55 6 68 0 69 0 55 -6 5 0 12 0 8 9 0 13 0 29 -20 -4 -44 4 -34 4 -1 20 0 25 rrcurveto
          7 vlineto
          0 49 -1 49 -4 388 0 18 8 7 16 4 54 17 24 -7 0 27 rrcurveto
          21 -8 1 -7 vhcurveto
          hintmask 10111000
          -145 hlineto
          -9 0 -5 -2 -4 -7 -1 0 1 0 -271 -507 -3 -7 -4 -4 -7 0 -9 0 -6 8 -2 4 rrcurveto
          -117 186 -189 316 rlineto
          -6 10 -5 3 -14 0 rrcurveto
          -144 hlineto
          -7 -11 -1 -21 hvcurveto
          0 -17 13 0 7 -1 58 -1 23 -44 15 -16 5 -6 6 -6 0 -13 0 -45 -10 -224 -15 -178 -3 -28 4 -21 -33 -4 -50 -6 -24 3 0 -30 rrcurveto
          -18 11 -4 7 vhcurveto
          4 0 52 6 64 0 64 0 52 -6 4 0 14 0 4 14 0 9 0 48 -84 -36 -10 33 -3 10 -3 151 0 42 0 70 2 68 4 70 rrcurveto
          2 1 3 3 vhcurveto
          1 0 1 0 1 -1 8 -5 144 -229 108 -222 7 -14 9 -22 19 0 4 0 9 1 9 11 18 22 154 304 89 142 3 5 4 7 7 0 rrcurveto
          3 0 3 -1 1 -5 1 -3 2 -88 0 -69 rrcurveto
          -213 vlineto
          0 -6 0 -7 -1 -6 -11 -59 -95 43 0 -45 rrcurveto
          -9 4 -15 15 vhcurveto
          endchar
        </CharString>
        <CharString name="N">
          377 -6 46 596 45 hstemhm
          638 62 -53 49 hintmask 11100000
          791 658 rmoveto
          -89 callsubr
          hintmask 11010000
          -88 callsubr
          hintmask 11100000
          -87 callsubr
          hintmask 11010000
          -86 callsubr
          hintmask 11100000
          -85 callsubr
          endchar
        </CharString>
        <CharString name="Nacute">
          377 -6 46 596 45 47 169 hstemhm
          312 248 78 62 -53 49 hintmask 00110000
          520 897 rmoveto
          -28 callsubr
          hintmask 11001000
          271 -239 rmoveto
          -89 callsubr
          hintmask 11000100
          -88 callsubr
          hintmask 11001000
          -87 callsubr
          hintmask 11000100
          -86 callsubr
          hintmask 11001000
          -85 callsubr
          endchar
        </CharString>
        <CharString name="Ncaron">
          377 -6 46 596 45 47 79 hstemhm
          278 243 117 62 -53 49 hintmask 00110000
          506 879 rmoveto
          -16 callsubr
          hintmask 11001000
          285 -221 rmoveto
          -89 callsubr
          hintmask 11000100
          -88 callsubr
          hintmask 11001000
          -87 callsubr
          hintmask 11000100
          -86 callsubr
          hintmask 11001000
          -85 callsubr
          endchar
        </CharString>
        <CharString name="Ncommaaccent">
          377 -309 247 56 46 596 45 hstemhm
          423 51 164 62 -53 49 hintmask 10010000
          386 -62 rmoveto
          -104 callsubr
          hintmask 01101000
          405 720 rmoveto
          -89 callsubr
          hintmask 01100100
          -88 callsubr
          hintmask 01101000
          -87 callsubr
          hintmask 01100100
          -86 callsubr
          hintmask 01101000
          -85 callsubr
          endchar
        </CharString>
        <CharString name="Ntilde">
          377 -6 46 596 45 54 54 -9 52 hstemhm
          248 304 86 62 -53 49 hintmask 00101000
          455 789 rmoveto
          hintmask 00011000
          -26 callsubr
          hintmask 00101000
          -25 callsubr
          hintmask 11000100
          336 -131 rmoveto
          -89 callsubr
          hintmask 11000010
          -88 callsubr
          hintmask 11000100
          -87 callsubr
          hintmask 11000010
          -86 callsubr
          hintmask 11000100
          -85 callsubr
          endchar
        </CharString>
        <CharString name="O">
          356 -24 58 633 53 hstem
          18 95 548 99 vstem
          760 337 rmoveto
          -84 callsubr
          -647 47 rmoveto
          -83 callsubr
          endchar
        </CharString>
        <CharString name="OE">
          596 -24 58 -34 55 314 58 211 53 -24 53 hstemhm
          18 94 436 91 211 55 hintmask 00110111
          638 97 rmoveto
          232 vlineto
          36 10 4 64 vhcurveto
          112 hlineto
          14 12 -2 -20 hvcurveto
          -54 vlineto
          -13 5 -9 23 20 7 11 18 vhcurveto
          184 vlineto
          16 -6 14 -23 -13 -13 -8 -15 vhcurveto
          -31 vlineto
          -32 -21 -1 -17 vhcurveto
          -158 hlineto
          -12 -3 15 7 hvcurveto
          165 vlineto
          12 11 12 20 vhcurveto
          194 hlineto
          16 0 4 -3 10 -17 rrcurveto
          43 -73 rlineto
          3 -7 1 -13 19 0 rrcurveto
          12 12 7 14 hvcurveto
          0 3 -28 126 rlineto
          -2 7 -2 9 -16 0 rrcurveto
          -305 hlineto
          0 0 -58 2 -44 8 rrcurveto
          hintmask 10101111
          -39 7 -41 12 -63 0 rrcurveto
          -201 -167 -165 -202 -206 173 -171 210 hvcurveto
          hintmask 01110111
          52 0 59 24 151 0 rrcurveto
          278 hlineto
          17 0 10 1 5 19 29 133 1 3 0 6 rrcurveto
          1 vlineto
          14 -7 9 -10 vhcurveto
          -7 0 -9 -6 -6 -11 -44 -75 -6 -12 -7 -6 -21 -15 -92 -6 -32 0 rrcurveto
          -116 -8 15 27 hvcurveto
          hintmask 10101111
          -267 570 rmoveto
          60 0 64 -19 53 -47 rrcurveto
          -497 vlineto
          0 -25 -1 0 -14 -8 -44 -27 -47 -10 -45 0 rrcurveto
          -189 -96 177 173 198 135 85 123 hvcurveto
          endchar
        </CharString>
        <CharString name="Oacute">
          356 -24 58 633 53 10 169 hstem
          18 95 152 248 148 99 vstem
          473 899 rmoveto
          -28 callsubr
          287 -562 rmoveto
          -84 callsubr
          -647 47 rmoveto
          -83 callsubr
          endchar
        </CharString>
        <CharString name="Obreve">
          356 -24 58 633 53 20 65 hstem
          18 95 130 293 125 99 vstem
          389 805 rmoveto
          -19 callsubr
          371 -468 rmoveto
          -84 callsubr
          -647 47 rmoveto
          -83 callsubr
          endchar
        </CharString>
        <CharString name="Ocircumflex">
          356 -24 58 633 53 82 79 hstem
          18 95 155 243 150 99 vstem
          283 730 rmoveto
          -27 callsubr
          477 -393 rmoveto
          -84 callsubr
          -647 47 rmoveto
          -83 callsubr
          endchar
        </CharString>
        <CharString name="Odieresis">
          356 -24 58 633 53 20 94 hstem
          18 95 161 96 39 96 156 99 vstem
          409 787 rmoveto
          -32 callsubr
          -135 hmoveto
          -32 callsubr
          486 -450 rmoveto
          -84 callsubr
          -647 47 rmoveto
          -83 callsubr
          endchar
        </CharString>
        <CharString name="Ograve">
          356 -24 58 633 53 10 169 hstem
          18 95 152 248 148 99 vstem
          265 863 rmoveto
          -29 callsubr
          495 -526 rmoveto
          -84 callsubr
          -647 47 rmoveto
          -83 callsubr
          endchar
        </CharString>
        <CharString name="Oslash">
          356 -24 58 633 53 hstem
          18 95 548 99 vstem
          760 337 rmoveto
          0 132 -67 126 -110 69 28 51 6 8 0 6 0 6 -6 10 -30 0 -18 0 3 0 -30 -56 -47 20 -51 11 -51 0 -201 0 -168 -164 0 -203 rrcurveto
          1 -123 63 -117 101 -69 -39 -72 -1 1 0 -3 rrcurveto
          -1 vlineto
          -11 15 -2 19 vhcurveto
          11 0 5 3 3 2 3 3 -2 -3 31 57 54 -27 59 -15 60 0 195 0 164 151 0 210 rrcurveto
          -647 47 rmoveto
          198 134 85 124 vhcurveto
          47 0 46 -12 41 -22 rrcurveto
          -288 -527 rlineto
          -77 74 -27 113 0 91 rrcurveto
          284 -350 rmoveto
          -55 0 -46 16 -38 23 rrcurveto
          291 529 rlineto
          81 -71 31 -112 0 -100 0 -210 -150 -75 -114 0 rrcurveto
          endchar
        </CharString>
        <CharString name="Otilde">
          356 -24 58 633 53 27 54 -9 52 hstemhm
          18 95 124 304 120 99 hintmask 00100100
          444 801 rmoveto
          hintmask 00010100
          -26 callsubr
          hintmask 00100100
          -25 callsubr
          hintmask 11001010
          316 -464 rmoveto
          -84 callsubr
          -647 47 rmoveto
          -83 callsubr
          endchar
        </CharString>
        <CharString name="P">
          150 -6 53 254 35 299 48 -35 45 hstemhm
          104 88 284 84 hintmask 11011100
          476 498 rmoveto
          -97 -100 -65 -147 -34 -3 1 11 vhcurveto
          285 vlineto
          12 6 3 55 vhcurveto
          142 81 -67 -83 hvcurveto
          hintmask 11101100
          -407 185 rmoveto
          -25 hlineto
          -15 -7 -7 -15 -25 14 -1 10 hvcurveto
          36 hlineto
          21 1 -14 -12 hvcurveto
          -535 vlineto
          0 -16 -5 -8 -23 -3 -52 -5 -10 4 0 -28 0 -11 4 -13 16 0 5 0 59 6 75 0 73 0 60 -6 5 0 rrcurveto
          16 3 12 12 hvcurveto
          1 vlineto
          0 30 -13 -6 -95 4 -26 2 -6 11 0 22 rrcurveto
          203 vlineto
          10 3 6 10 vhcurveto
          30 hlineto
          124 0 63 20 38 21 55 29 46 56 1 75 rrcurveto
          1 vlineto
          0 49 -22 48 -36 33 rrcurveto
          hintmask 11011100
          -48 43 -64 17 -83 0 rrcurveto
          -72 0 -71 -10 -95 0 rrcurveto
          endchar
        </CharString>
        <CharString name="Q">
          330 -203 49 138 48 643 49 hstem
          20 97 538 89 vstem
          407 32 rmoveto
          -178 -112 186 174 187 131 96 128 hvcurveto
          61 0 60 -21 46 -39 85 -73 27 -120 0 -93 rrcurveto
          -183 -113 -114 -135 vhcurveto
          49 -43 rmoveto
          22 0 86 -86 1 -1 44 -44 51 -61 80 0 rrcurveto
          42 47 24 16 6 -5 4 -7 hvcurveto
          -4 0 -4 -1 -13 0 -30 0 -30 10 -25 17 -50 33 -26 49 -73 51 -2 1 -1 1 0 2 0 3 2 1 1 1 106 72 76 131 0 138 rrcurveto
          0 99 -39 99 -71 70 -70 69 -93 31 -83 0 -95 0 -94 -38 -67 -66 -71 -69 -41 -99 0 -98 0 -96 38 -95 68 -69 65 -66 95 -44 103 0 rrcurveto
          36 0 23 5 8 0 rrcurveto
          endchar
        </CharString>
        <CharString name="R">
          274 -13 62 -55 51 285 36 274 35 -27 39 hstemhm
          113 89 236 78 hintmask 00101110
          438 496 rmoveto
          -82 callsubr
          -155 191 rmoveto
          hintmask 01110110
          -81 callsubr
          hintmask 10101110
          -80 callsubr
          endchar
        </CharString>
        <CharString name="Racute">
          274 -13 62 -55 51 285 36 274 35 -27 39 41 169 hstemhm
          113 89 27 248 -39 78 hintmask 0000010100000000
          437 897 rmoveto
          -28 callsubr
          hintmask 0010101010000000
          1 -401 rmoveto
          -82 callsubr
          -155 191 rmoveto
          hintmask 0111001010000000
          -81 callsubr
          hintmask 1010101010000000
          -80 callsubr
          endchar
        </CharString>
        <CharString name="Rcaron">
          274 -13 62 -55 51 285 36 274 35 -27 39 41 79 hstemhm
          113 89 -31 243 24 78 hintmask 0000010100000000
          399 879 rmoveto
          -16 callsubr
          hintmask 0010101010000000
          39 -383 rmoveto
          -82 callsubr
          -155 191 rmoveto
          hintmask 0111001010000000
          -81 callsubr
          hintmask 1010101010000000
          -80 callsubr
          endchar
        </CharString>
        <CharString name="Rcommaaccent">
          274 -300 247 40 62 -55 51 285 36 274 35 -27 39 hstemhm
          113 89 174 51 11 78 hintmask 1000000100000000
          339 -53 rmoveto
          -104 callsubr
          hintmask 0001011010000000
          99 549 rmoveto
          -82 callsubr
          -155 191 rmoveto
          hintmask 0011101010000000
          -81 callsubr
          hintmask 0101011010000000
          -80 callsubr
          endchar
        </CharString>
        <CharString name="S">
          70 -17 56 596 50 hstemhm
          32 72 -56 50 300 73 hintmask 11101000
          32 516 rmoveto
          -79 callsubr
          hintmask 11011000
          -78 callsubr
          hintmask 11101000
          -77 callsubr
          endchar
        </CharString>
        <CharString name="Sacute">
          70 -17 56 596 50 43 169 hstemhm
          32 72 -56 50 26 248 26 73 hintmask 00100100
          332 897 rmoveto
          -28 callsubr
          hintmask 11010010
          -300 -381 rmoveto
          -79 callsubr
          hintmask 11001010
          -78 callsubr
          hintmask 11010010
          -77 callsubr
          endchar
        </CharString>
        <CharString name="Scaron">
          70 -17 56 596 50 43 79 hstemhm
          32 72 -56 50 29 243 28 73 hintmask 00100100
          355 879 rmoveto
          -16 callsubr
          hintmask 11010010
          -323 -363 rmoveto
          -79 callsubr
          hintmask 11001010
          -78 callsubr
          hintmask 11010010
          -77 callsubr
          endchar
        </CharString>
        <CharString name="Scedilla">
          70 -195 36 -23 31 134 56 596 50 hstemhm
          32 72 -56 50 186 61 53 73 hintmask 10111011
          345 -120 rmoveto
          1 vlineto
          50 -36 26 -48 vhcurveto
          -3 hlineto
          -3 -1 1 2 hvcurveto
          0 2 2 2 6 19 125 5 84 101 0 109 0 91 -54 65 -72 31 -64 27 -72 -1 -54 39 -31 22 -20 32 0 37 0 52 41 42 56 0 rrcurveto
          44 0 39 -26 27 -30 48 -55 -11 -36 32 -1 rrcurveto
          1 hlineto
          10 7 5 10 hvcurveto
          0 8 -4 24 0 49 0 50 4 25 0 8 0 11 -7 8 -9 0 -24 0 -3 -40 -15 0 -13 0 -35 40 -81 0 -105 0 -74 -80 0 -89 rrcurveto
          0 -65 37 -65 82 -32 67 -27 64 3 58 -42 36 -26 22 -40 0 -44 0 -78 -66 -61 -79 0 -59 0 -45 32 -25 34 rrcurveto
          hintmask 10110111
          -30 40 11 -25 -7 70 -6 49 -1 9 -21 0 -17 0 -4 -10 -1 -11 -9 -114 -14 -37 0 -12 0 -6 4 -9 14 0 9 0 7 3 10 0 rrcurveto
          5 0 6 -1 5 -3 15 -7 42 -49 87 -8 -7 -19 -14 -36 0 -1 0 -3 3 0 2 0 42 -3 29 -22 0 -27 0 -19 -16 -13 -22 0 rrcurveto
          hintmask 01111011
          -22 callsubr
          hintmask 10111011
          -20 callsubr
          endchar
        </CharString>
        <CharString name="Scircumflex">
          70 -17 56 596 50 115 79 hstemhm
          32 72 -56 50 29 243 28 73 hintmask 00100100
          142 728 rmoveto
          -27 callsubr
          hintmask 11010010
          -110 -212 rmoveto
          -79 callsubr
          hintmask 11001010
          -78 callsubr
          hintmask 11010010
          -77 callsubr
          endchar
        </CharString>
        <CharString name="T">
          270 -6 53 575 66 hstem
          309 93 vstem
          494 -6 rmoveto
          -76 callsubr
          endchar
        </CharString>
        <CharString name="Tcaron">
          270 -6 53 575 66 40 79 hstemhm
          229 243 -163 93 hintmask 00110000
          457 879 rmoveto
          -16 callsubr
          hintmask 11001000
          37 -885 rmoveto
          -76 callsubr
          endchar
        </CharString>
        <CharString name="Tcommaaccent">
          270 -195 36 -23 31 145 53 575 66 hstemhm
          304 46 -41 93 -22 61 hintmask 10111010
          441 -120 rmoveto
          1 vlineto
          50 -36 26 -48 vhcurveto
          -3 hlineto
          -3 -1 1 2 hvcurveto
          0 1 9 25 5 14 69 0 56 -6 5 0 13 0 4 10 0 10 0 20 -2 6 -16 2 rrcurveto
          hintmask 10110100
          -78 7 -13 -4 0 26 rrcurveto
          524 vlineto
          13 1 14 21 vhcurveto
          147 hlineto
          31 0 -2 -6 47 -82 4 -7 6 -12 13 0 11 0 8 10 0 12 0 6 -4 20 -20 102 -2 13 -2 10 -16 0 rrcurveto
          -583 hlineto
          -8 0 -10 -1 -3 -14 -28 -129 -1 -3 0 -6 rrcurveto
          -1 vlineto
          -14 9 -11 13 vhcurveto
          19 0 1 12 41 81 7 14 4 6 27 0 rrcurveto
          149 hlineto
          26 1 -17 -14 hvcurveto
          -507 vlineto
          0 -20 -4 -14 -30 -3 -62 -6 -11 4 0 -25 0 -14 4 -12 16 0 11 0 33 5 66 1 rrcurveto
          hintmask 10111000
          -10 -24 -18 -47 0 -1 rrcurveto
          hintmask 10110100
          -3 3 0 2 vhcurveto
          hintmask 10111010
          42 -3 29 -22 0 -27 0 -19 -16 -13 -22 0 rrcurveto
          hintmask 01111010
          -22 callsubr
          hintmask 10111010
          -20 callsubr
          endchar
        </CharString>
        <CharString name="U">
          334 -15 57 599 48 hstem
          86 90 442 56 vstem
          742 663 rmoveto
          -75 callsubr
          endchar
        </CharString>
        <CharString name="Uacute">
          334 -15 57 599 48 39 169 hstem
          86 90 140 248 54 56 vstem
          524 897 rmoveto
          -28 callsubr
          218 -234 rmoveto
          -75 callsubr
          endchar
        </CharString>
        <CharString name="Ubreve">
          334 -15 57 599 48 39 65 hstem
          86 90 78 293 71 56 vstem
          400 793 rmoveto
          -19 callsubr
          342 -130 rmoveto
          -75 callsubr
          endchar
        </CharString>
        <CharString name="Ucircumflex">
          334 -15 57 599 48 111 79 hstem
          86 90 82 243 117 56 vstem
          273 728 rmoveto
          -27 callsubr
          469 -65 rmoveto
          -75 callsubr
          endchar
        </CharString>
        <CharString name="Udieresis">
          334 -15 57 599 48 39 94 hstem
          86 90 112 96 39 96 99 56 vstem
          423 775 rmoveto
          -32 callsubr
          -135 hmoveto
          -32 callsubr
          454 -112 rmoveto
          -75 callsubr
          endchar
        </CharString>
        <CharString name="Ugrave">
          334 -15 57 599 48 40 169 hstem
          86 90 79 248 115 56 vstem
          255 862 rmoveto
          -29 callsubr
          487 -199 rmoveto
          -75 callsubr
          endchar
        </CharString>
        <CharString name="Uring">
          334 -15 57 599 48 40 39 99 38 hstem
          86 90 120 40 91 39 152 56 vstem
          381 905 rmoveto
          -24 callsubr
          -38 vmoveto
          -23 callsubr
          361 -204 rmoveto
          -75 callsubr
          endchar
        </CharString>
        <CharString name="Utilde">
          334 -15 57 599 48 46 54 -9 52 hstemhm
          86 90 88 304 50 56 hintmask 00100100
          471 789 rmoveto
          hintmask 00010100
          -26 callsubr
          hintmask 00100100
          -25 callsubr
          hintmask 11001010
          271 -126 rmoveto
          -75 callsubr
          endchar
        </CharString>
        <CharString name="V">
          408 1 -21 659 50 hstem
          16 182 464 161 vstem
          45 689 rmoveto
          -23 -6 -12 -8 hvcurveto
          0 -22 34 -6 12 -9 30 -21 -13 -50 321 -561 3 -5 7 -15 16 0 15 0 7 15 3 5 214 394 52 190 30 33 32 34 44 -23 0 34 rrcurveto
          17 -6 10 -16 vhcurveto
          -10 0 -30 -3 -62 0 -61 0 -31 3 -10 0 -17 0 -5 -13 0 -12 0 -34 40 16 25 -9 9 -3 13 -9 0 -18 0 -8 -4 -8 -2 -6 rrcurveto
          -57 -153 -67 -145 -76 -138 -1 -2 -3 -6 -7 0 -4 0 -3 2 -2 2 -7 8 -121 208 -104 232 -2 4 -4 8 0 8 0 21 18 4 9 1 rrcurveto
          45 7 11 -1 0 25 0 9 -4 10 -14 0 -10 0 -32 -3 -64 0 -67 0 -34 3 -11 0 rrcurveto
          endchar
        </CharString>
        <CharString name="W">
          580 -1 -21 666 45 hstem
          38 689 rmoveto
          -74 callsubr
          endchar
        </CharString>
        <CharString name="Wcircumflex">
          580 -22 21 645 45 111 79 hstem
          385 243 vstem
          400 728 rmoveto
          -27 callsubr
          -362 -39 rmoveto
          -74 callsubr
          endchar
        </CharString>
        <CharString name="X">
          243 -6 53 594 48 hstem
          5 162 118 89 99 185 vstem
          156 686 rmoveto
          -3 hlineto
          -69 0 -35 3 -11 0 -16 0 -4 -11 0 -11 0 -21 13 -4 12 -1 42 -4 10 3 31 -49 156 -249 3 -3 0 -6 0 -5 0 2 -147 -206 rrcurveto
          -40 -56 -6 -14 -38 -7 -41 -7 -8 2 0 -29 0 -9 3 -10 12 0 4 0 46 6 59 0 58 0 48 -6 3 0 15 0 3 13 0 9 rrcurveto
          0 21 -15 3 -12 2 -43 5 -19 0 0 22 0 10 6 9 5 7 134 193 -1 0 4 0 2 0 1 -2 0 -1 126 -201 3 -2 0 -12 rrcurveto
          -2 vlineto
          0 -9 -3 -10 -19 -3 -45 -6 -15 1 0 -26 0 -12 6 -9 13 0 4 0 56 6 68 0 70 0 55 -6 4 0 6 0 11 2 0 19 rrcurveto
          0 21 -13 5 -13 2 -57 6 -3 -3 -26 41 -170 269 -2 1 0 6 0 6 1 -1 129 183 7 11 37 50 18 13 43 32 49 -38 0 52 rrcurveto
          11 -6 7 -12 vhcurveto
          -12 0 -35 -3 -70 0 -69 0 -35 3 -11 0 -13 0 -3 -9 0 -8 0 -22 10 -6 16 -1 30 -2 25 2 0 -32 0 -28 -16 -15 -112 -158 rrcurveto
          -1 -1 -1 -1 -2 0 -4 0 -1 3 -107 176 -3 6 -9 12 0 12 0 42 70 -32 0 33 0 25 -7 4 -12 0 -11 0 -33 -3 -68 0 rrcurveto
          endchar
        </CharString>
        <CharString name="Y">
          245 -6 54 591 50 hstem
          273 85 163 138 vstem
          490 21 rmoveto
          -73 callsubr
          endchar
        </CharString>
        <CharString name="Yacute">
          245 -6 54 591 50 39 169 hstemhm
          259 248 -234 85 163 138 hintmask 00110000
          467 897 rmoveto
          -28 callsubr
          hintmask 11001100
          23 -876 rmoveto
          -73 callsubr
          endchar
        </CharString>
        <CharString name="Ycircumflex">
          245 -6 54 591 50 111 79 hstemhm
          226 243 -196 85 163 138 hintmask 00110000
          241 728 rmoveto
          -27 callsubr
          hintmask 11001100
          249 -707 rmoveto
          -73 callsubr
          endchar
        </CharString>
        <CharString name="Ydieresis">
          245 -6 54 591 50 39 94 hstemhm
          232 96 -55 85 9 96 58 138 hintmask 00110100
          367 775 rmoveto
          -32 callsubr
          -135 hmoveto
          -32 callsubr
          hintmask 11001010
          258 -754 rmoveto
          -73 callsubr
          endchar
        </CharString>
        <CharString name="Z">
          207 0 81 519 75 51 -20 hstemhm
          16 41 -33 47 506 43 hintmask 11110100
          16 511 rmoveto
          -72 callsubr
          hintmask 11101100
          -71 callsubr
          hintmask 11110100
          -70 callsubr
          hintmask 11101100
          -69 callsubr
          endchar
        </CharString>
        <CharString name="Zacute">
          207 0 81 519 75 31 20 10 169 hstemhm
          16 41 -33 47 123 248 135 43 hintmask 00010010
          402 905 rmoveto
          -28 callsubr
          hintmask 11101001
          -386 -394 rmoveto
          -72 callsubr
          hintmask 11100101
          -71 callsubr
          hintmask 11101001
          -70 callsubr
          hintmask 11100101
          -69 callsubr
          endchar
        </CharString>
        <CharString name="Zcaron">
          207 0 81 519 75 31 20 10 79 hstemhm
          16 41 -33 47 125 243 138 43 hintmask 00010010
          424 887 rmoveto
          -16 callsubr
          hintmask 11101001
          -408 -376 rmoveto
          -72 callsubr
          hintmask 11100101
          -71 callsubr
          hintmask 11101001
          -70 callsubr
          hintmask 11100101
          -69 callsubr
          endchar
        </CharString>
        <CharString name="Zdotaccent">
          207 0 81 519 75 31 20 40 112 hstemhm
          16 41 -33 47 189 116 201 43 hintmask 00010010
          260 821 rmoveto
          -17 callsubr
          hintmask 11101001
          -244 -310 rmoveto
          -72 callsubr
          hintmask 11100101
          -71 callsubr
          hintmask 11101001
          -70 callsubr
          hintmask 11100101
          -69 callsubr
          endchar
        </CharString>
        <CharString name="a">
          1 -20 55 -47 59 340 47 hstemhm
          33 74 153 70 hintmask 10111000
          29 345 rmoveto
          -66 callsubr
          hintmask 01111000
          -65 callsubr
          hintmask 10111000
          142 -310 rmoveto
          -64 callsubr
          endchar
        </CharString>
        <CharString name="aacute">
          1 -20 55 -47 59 340 47 40 227 hstemhm
          33 74 18 197 -62 70 hintmask 00010100
          285 701 rmoveto
          -31 callsubr
          hintmask 10101010
          -256 -356 rmoveto
          -66 callsubr
          hintmask 01101010
          -65 callsubr
          hintmask 10101010
          142 -310 rmoveto
          -64 callsubr
          endchar
        </CharString>
        <CharString name="abreve">
          1 -20 55 -47 59 340 47 39 68 hstemhm
          33 74 -45 242 -44 70 hintmask 00010100
          62 625 rmoveto
          -18 callsubr
          hintmask 10101010
          -33 -280 rmoveto
          -66 callsubr
          hintmask 01101010
          -65 callsubr
          hintmask 10101010
          142 -310 rmoveto
          -64 callsubr
          endchar
        </CharString>
        <CharString name="acircumflex">
          1 -20 55 -47 59 340 47 40 221 hstemhm
          33 74 -15 180 -12 70 hintmask 00010100
          107 474 rmoveto
          -21 callsubr
          hintmask 10101010
          -78 -129 rmoveto
          -66 callsubr
          hintmask 01101010
          -65 callsubr
          hintmask 10101010
          142 -310 rmoveto
          -64 callsubr
          endchar
        </CharString>
        <CharString name="acute">
          474 227 hstem
          15 197 vstem
          175 701 rmoveto
          -31 callsubr
          endchar
        </CharString>
        <CharString name="acute.cap">
          -140 730 169 hstem
          17 248 vstem
          225 899 rmoveto
          -28 callsubr
          endchar
        </CharString>
        <CharString name="adieresis">
          1 -20 55 -47 59 340 47 137 94 hstemhm
          33 74 -39 96 39 96 -39 70 hintmask 00010110
          203 618 rmoveto
          -32 callsubr
          -135 hmoveto
          -32 callsubr
          hintmask 10101001
          -39 -273 rmoveto
          -66 callsubr
          hintmask 01101001
          -65 callsubr
          hintmask 10101001
          142 -310 rmoveto
          -64 callsubr
          endchar
        </CharString>
        <CharString name="ae">
          223 -22 54 159 37 148 56 -47 47 hstemhm
          32 74 153 74 196 98 hintmask 11101110
          424 376 rmoveto
          55 50 -52 -14 hvcurveto
          0 -4 -2 -5 -6 -3 -4 -2 -181 -70 -3 0 rrcurveto
          -3 -2 2 5 hvcurveto
          88 39 55 57 vhcurveto
          -318 -275 rmoveto
          0 72 83 14 58 4 rrcurveto
          2 hlineto
          9 1 0 -47 hvcurveto
          -29 vlineto
          0 -39 -3 -3 -21 -17 -17 -14 -26 -10 -23 0 -51 0 -12 41 0 28 rrcurveto
          341 331 rmoveto
          -63 0 -44 -37 -16 -15 -3 -3 -3 -2 -3 0 rrcurveto
          hintmask 11011110
          -15 0 -14 57 -103 0 rrcurveto
          -87 -68 -54 -35 -22 21 -14 18 hvcurveto
          9 0 8 4 6 7 4 6 25 61 57 0 21 0 21 -9 16 -18 20 -23 4 -25 0 -32 rrcurveto
          -28 vlineto
          0 -14 -1 -6 -7 -2 0 0 -124 -6 -52 -42 -24 -19 -18 -32 0 -38 rrcurveto
          -1 vlineto
          -61 46 -51 68 vhcurveto
          86 0 66 76 5 0 6 0 40 -73 105 0 65 0 68 31 45 58 4 6 2 6 0 5 0 8 -6 6 -9 0 -11 0 -8 -9 -4 -5 rrcurveto
          -32 -31 -43 -18 -44 0 -126 0 -22 133 0 12 0 9 6 -1 206 71 29 10 52 10 1 30 rrcurveto
          1 vlineto
          30 -86 89 -94 vhcurveto
          endchar
        </CharString>
        <CharString name="agrave">
          1 -20 55 -47 59 340 47 40 227 hstemhm
          33 74 -62 198 17 70 hintmask 00010100
          45 664 rmoveto
          -67 callsubr
          hintmask 10101010
          -16 -319 rmoveto
          -66 callsubr
          hintmask 01101010
          -65 callsubr
          hintmask 10101010
          142 -310 rmoveto
          -64 callsubr
          endchar
        </CharString>
        <CharString name="ampersand">
          406 -23 77 100 35 171 32 -8 62 -6 33 172 56 -24 38 hstemhm
          30 79 -51 44 -2 76 127 35 0 36 94 53 52 70 -57 33 149 41 hintmask 1101001001111001
          100 422 rmoveto
          -1 vlineto
          0 -2 -1 -3 -1 -2 rrcurveto
          hintmask 1101001100111011
          -4 -7 -64 -57 0 -105 rrcurveto
          -143 124 -125 167 164 134 119 134 vhcurveto
          2 vlineto
          0 69 -34 36 0 7 0 8 7 0 8 0 112 2 97 86 0 108 rrcurveto
          99 -77 68 -71 vhcurveto
          hintmask 1101001000111101
          -46 -42 -31 -43 -26 19 -23 26 24 17 19 22 hvcurveto
          0 23 -16 7 0 5 rrcurveto
          7 21 2 9 48 47 -44 -63 vhcurveto
          0 -61 -44 -39 -42 -19 -69 -30 -94 9 -84 -42 -60 -30 -37 -50 0 -53 rrcurveto
          -56 43 -45 54 49 37 37 39 34 -29 24 -29 -23 -16 -17 -19 vhcurveto
          0 -8 3 -8 4 -6 15 -20 22 7 0 -11 rrcurveto
          -10 -23 -7 -13 -35 -23 30 32 49 49 47 59 vhcurveto
          hintmask 1101000100111011
          63 41 -53 -67 -69 -47 -104 -162 hvcurveto
          -18 hlineto
          -192 9 -58 120 0 85 0 36 9 36 18 32 1 1 4 11 8 0 rrcurveto
          hintmask 1110100010111001
          7 0 34 -24 55 0 rrcurveto
          1 hlineto
          51 41 23 34 34 -38 22 -49 hvcurveto
          hintmask 1101010010111001
          -60 0 -42 -27 -8 0 rrcurveto
          -14 -25 42 41 72 64 44 42 hvcurveto
          44 0 2 -50 41 0 rrcurveto
          22 23 19 26 48 -71 13 -36 -93 -82 -82 -90 hvcurveto
          0 -66 42 -30 0 -11 rrcurveto
          hintmask 1110100001111001
          161 -30 rmoveto
          -33 0 -25 1 -24 18 -1 1 -2 2 0 3 rrcurveto
          9 34 14 50 36 7 -15 -10 vhcurveto
          -19 -22 -4 -20 vhcurveto
          endchar
        </CharString>
        <CharString name="aring">
          1 -20 55 -47 59 340 47 40 39 99 38 hstemhm
          33 74 -9 40 91 39 -8 70 hintmask 0001101100000000
          183 650 rmoveto
          -24 callsubr
          -38 vmoveto
          -23 callsubr
          hintmask 1010010010000000
          -154 -267 rmoveto
          -66 callsubr
          hintmask 0110010010000000
          -65 callsubr
          hintmask 1010010010000000
          142 -310 rmoveto
          -64 callsubr
          endchar
        </CharString>
        <CharString name="asciicircum">
          1 606 110 hstem
          51 322 vstem
          73 462 rmoveto
          19 0 11 18 17 20 88 108 -4 -3 8 1 9 0 -2 -1 80 -103 13 -17 16 -25 21 0 13 0 11 9 0 14 0 15 -5 2 -109 175 rrcurveto
          -11 16 -15 25 -24 0 -5 0 -5 -1 -5 -2 -22 -10 0 -6 -114 -193 -3 -5 -4 -7 0 -8 0 -12 9 -10 13 0 rrcurveto
          endchar
        </CharString>
        <CharString name="asciitilde">
          29 183 71 -12 70 hstemhm
          hintmask 01000000
          40 173 rmoveto
          4 0 2 3 1 2 26 40 25 24 35 0 rrcurveto
          hintmask 10000000
          54 0 22 -59 68 0 rrcurveto
          84 66 108 7 10 -19 8 -5 hvcurveto
          -2 0 -2 -1 -2 -1 -9 -5 -33 -55 -56 0 rrcurveto
          hintmask 01000000
          -59 0 -32 58 -59 0 -29 0 -23 -16 -14 -15 -22 -22 -37 -62 0 -4 rrcurveto
          -6 11 -14 5 vhcurveto
          endchar
        </CharString>
        <CharString name="asterisk">
          -87 469 -21 49 109 115 -20 hstemhm
          129 78 -71 62 hintmask 11101000
          321 617 rmoveto
          22 -20 17 -19 vhcurveto
          -35 0 -36 -49 -13 0 -1 0 -1 1 0 1 0 7 12 31 0 28 rrcurveto
          26 -11 20 -28 vhcurveto
          hintmask 11110000
          -20 -20 -10 -35 hvcurveto
          0 -24 9 -27 0 -12 0 -6 -2 -1 -3 0 -24 0 -21 53 -33 0 -17 0 -21 -14 0 -21 0 -53 88 9 0 -20 0 -18 -91 -9 0 -45 rrcurveto
          -7 7 -28 25 vhcurveto
          37 0 31 44 16 0 rrcurveto
          hintmask 11101000
          5 1 -5 -6 hvcurveto
          hintmask 11110000
          0 -14 -7 -25 0 -21 rrcurveto
          -33 24 -9 12 10 32 8 31 vhcurveto
          hintmask 11101000
          0 14 -9 30 0 25 0 6 1 3 6 0 11 0 30 -53 35 0 19 0 19 16 0 23 0 57 -91 -10 0 18 rrcurveto
          0 15 93 8 0 42 rrcurveto
          endchar
        </CharString>
        <CharString name="at">
          578 -176 38 124 66 -60 46 325 33 33 -20 163 39 hstemhm
          88 82 132 74 448 42 hintmask 1011111110000000
          725 -71 rmoveto
          -7 0 -7 -6 -5 -3 -31 -25 -78 -33 -97 0 rrcurveto
          -198 -132 141 195 227 179 147 194 153 128 -94 -177 hvcurveto
          -1 vlineto
          0 -70 -18 -72 -33 -46 -32 -45 -57 -29 -41 0 -20 0 -28 10 0 38 0 14 3 16 2 9 31 181 38 92 0 14 0 11 -12 6 -11 0 rrcurveto
          -4 0 -5 -1 -4 -3 -7 -6 -5 -26 -13 0 -5 0 -6 3 -18 0 -27 0 -25 -10 -23 -14 -77 -47 -125 -149 0 -93 rrcurveto
          hintmask 1101111110000000
          -58 42 -39 51 vhcurveto
          53 0 49 40 29 36 2 2 1 2 2 0 rrcurveto
          hintmask 1011111110000000
          7 0 -2 -74 96 0 rrcurveto
          117 117 134 170 173 -128 142 -196 hvcurveto
          -87 0 -76 -27 -54 -27 -202 -101 -35 -172 0 -97 rrcurveto
          -1 vlineto
          0 -227 175 -134 218 -1 rrcurveto
          1 hlineto
          46 0 45 6 44 14 41 13 79 36 0 24 rrcurveto
          9 -7 3 -5 vhcurveto
          -138 424 rmoveto
          0 -4 0 2 -49 -212 -3 -15 -3 -1 -16 -18 rrcurveto
          hintmask 1101111110000000
          -30 -35 -48 -18 -20 0 -17 0 -25 10 0 40 0 20 6 21 8 19 49 125 100 76 37 0 7 0 4 -4 0 -6 rrcurveto
          endchar
        </CharString>
        <CharString name="atilde">
          1 -20 55 -47 59 340 47 134 54 -9 52 hstemhm
          32 304 -303 74 153 70 hintmask 00010100
          239 622 rmoveto
          hintmask 00001100
          -26 callsubr
          hintmask 00010100
          -25 callsubr
          hintmask 10100011
          -210 -277 rmoveto
          -66 callsubr
          hintmask 01100011
          -65 callsubr
          hintmask 10100011
          142 -310 rmoveto
          -64 callsubr
          endchar
        </CharString>
        <CharString name="b">
          64 -19 41 355 53 283 -20 hstemhm
          69 69 -66 67 275 63 hintmask 11101100
          142 395 rmoveto
          0 30 3 209 0 59 0 16 -8 3 -6 1 -4 0 -9 -4 -101 -40 -5 -2 -8 -3 0 -8 0 -8 12 -5 44 -27 9 -6 3 -4 0 -12 rrcurveto
          hintmask 11110100
          0 -117 -3 -351 0 -117 0 -14 2 -16 14 0 15 0 5 21 30 0 30 0 19 -19 48 0 22 0 48 4 42 16 111 42 22 103 0 63 rrcurveto
          132 -78 89 -117 vhcurveto
          -85 0 -42 -41 -9 0 rrcurveto
          -2 -2 1 5 hvcurveto
          272 -203 rmoveto
          -101 -68 -69 -102 vhcurveto
          -32 0 -31 7 -29 12 -12 5 -2 7 0 12 rrcurveto
          hintmask 11101100
          0 2 1 3 0 2 rrcurveto
          256 vlineto
          21 62 28 46 86 81 -73 -112 vhcurveto
          endchar
        </CharString>
        <CharString name="backslash">
          -187 -205 -21 hstem
          3 46 141 42 vstem
          232 -200 rmoveto
          0 19 -91 325 -92 459 -2 7 -2 8 -11 0 -8 0 -23 -10 0 -12 0 -4 23 -99 164 -708 rrcurveto
          -2 2 -9 9 6 25 12 14 vhcurveto
          endchar
        </CharString>
        <CharString name="bar">
          -269 718 -20 hstem
          50 53 vstem
          77 -198 rmoveto
          23 3 5 8 hvcurveto
          890 vlineto
          10 -6 3 -21 vhcurveto
          -2 hlineto
          -11 -13 -1 -12 hvcurveto
          -890 vlineto
          -12 13 -1 10 vhcurveto
          endchar
        </CharString>
        <CharString name="braceleft">
          -171 720 -20 hstemhm
          45 77 -49 64 -32 60 hintmask 11000000
          45 256 rmoveto
          0 -1 0 0 1 -1 rrcurveto
          hintmask 10010000
          3 -3 56 -22 0 -81 rrcurveto
          hintmask 10100000
          0 -64 -32 -64 0 -77 rrcurveto
          -110 67 -31 45 13 3 1 2 vhcurveto
          0 3 -64 30 0 92 rrcurveto
          hintmask 10010000
          0 63 28 62 0 65 rrcurveto
          hintmask 11000000
          0 86 -43 38 0 10 0 9 46 52 0 96 0 77 -27 58 0 58 0 16 2 15 5 15 18 51 42 10 0 4 rrcurveto
          4 -14 1 -10 -43 -64 -29 -105 vhcurveto
          0 -81 27 -69 0 -77 rrcurveto
          0 -88 -59 -8 0 -7 rrcurveto
          endchar
        </CharString>
        <CharString name="braceright">
          -171 720 -20 hstemhm
          89 60 -32 64 -49 77 hintmask 10010000
          177 586 rmoveto
          105 -64 29 -43 -9 -15 -1 -4 vhcurveto
          0 -5 67 -17 0 -89 0 -58 -27 -58 0 -77 0 -44 10 -53 32 -50 1 -2 3 -4 0 -4 rrcurveto
          hintmask 11000000
          0 -10 -43 -37 0 -87 rrcurveto
          hintmask 10100000
          0 -65 28 -62 0 -63 0 -92 -64 -30 0 -3 rrcurveto
          -2 3 -1 13 45 67 31 110 vhcurveto
          hintmask 11000000
          0 77 -32 64 0 64 0 52 23 34 33 18 rrcurveto
          hintmask 10010000
          3 1 1 2 0 2 0 1 0 0 -1 1 -4 3 -54 12 0 85 rrcurveto
          0 77 27 69 0 81 rrcurveto
          endchar
        </CharString>
        <CharString name="bracketleft">
          -44 -185 25 383 77 379 29 hstemhm
          23 102 -45 45 67 42 hintmask 11101100
          125 -155 rmoveto
          829 vlineto
          3 1 2 2 vhcurveto
          2 0 1 -1 1 -1 38 -24 22 9 0 -13 rrcurveto
          -780 vlineto
          0 -3 0 -2 -4 -1 -40 -6 -14 -17 -5 0 rrcurveto
          -3 -1 2 3 hvcurveto
          -21 899 rmoveto
          -23 -2 -21 -13 hvcurveto
          -410 vlineto
          -4 -1 -3 -3 vhcurveto
          -4 0 -6 7 -13 0 rrcurveto
          hintmask 11110100
          -12 -17 -7 -29 -18 6 -23 23 hvcurveto
          14 0 6 10 4 0 rrcurveto
          hintmask 11101100
          3 1 -3 -4 hvcurveto
          -414 vlineto
          -12 3 -10 13 vhcurveto
          11 0 35 25 69 0 76 0 46 -35 9 0 7 0 5 7 0 6 0 10 -22 22 -25 16 -54 32 -19 -20 0 20 rrcurveto
          -1 773 rlineto
          5 1 2 5 vhcurveto
          70 1 46 55 0 12 0 5 -5 11 -7 0 -5 0 -50 -29 -66 0 -77 0 -18 36 -23 0 rrcurveto
          endchar
        </CharString>
        <CharString name="bracketright">
          -44 -185 25 383 77 379 29 hstemhm
          144 42 67 102 -102 46 hintmask 11110100
          253 -155 rmoveto
          -3 -1 -2 -3 vhcurveto
          -5 0 -14 17 -40 6 -4 1 0 2 0 3 rrcurveto
          780 vlineto
          0 13 22 -9 38 24 1 1 1 1 2 0 rrcurveto
          2 1 -2 -3 hvcurveto
          21 70 rmoveto
          -23 0 -18 -36 -77 0 -66 0 -50 29 -5 0 -7 0 -5 -11 0 -5 0 -12 46 -55 70 -1 rrcurveto
          5 1 -2 -5 hvcurveto
          -1 -773 rlineto
          0 -20 -19 20 -54 -32 -25 -16 -22 -22 0 -10 0 -6 5 -7 7 0 9 0 46 35 76 0 69 0 35 -25 11 0 rrcurveto
          13 3 10 12 hvcurveto
          414 vlineto
          4 1 3 3 vhcurveto
          4 0 6 -10 14 0 rrcurveto
          hintmask 11111000
          23 6 23 18 29 -17 7 -12 hvcurveto
          -13 0 -6 -7 -4 0 rrcurveto
          hintmask 11110100
          -3 -1 3 4 hvcurveto
          410 vlineto
          13 -2 21 -23 vhcurveto
          endchar
        </CharString>
        <CharString name="breve">
          -150 481 68 hstem
          15 242 vstem
          15 633 rmoveto
          -18 callsubr
          endchar
        </CharString>
        <CharString name="breve.cap">
          -98 728 65 hstem
          16 293 vstem
          162 793 rmoveto
          -19 callsubr
          endchar
        </CharString>
        <CharString name="bullet">
          -136 188 160 hstem
          63 160 vstem
          143 188 rmoveto
          41 39 34 46 41 -34 39 -46 -41 -39 -34 -46 -41 34 -39 46 hvcurveto
          endchar
        </CharString>
        <CharString name="c">
          -41 -18 64 330 52 hstem
          17 66 vstem
          209 -18 rmoveto
          -63 callsubr
          endchar
        </CharString>
        <CharString name="cacute">
          -41 -18 64 330 52 44 227 hstem
          17 66 18 197 vstem
          261 699 rmoveto
          -31 callsubr
          -52 -717 rmoveto
          -63 callsubr
          endchar
        </CharString>
        <CharString name="caron">
          -207 479 221 hstem
          19 180 vstem
          184 700 rmoveto
          -15 callsubr
          endchar
        </CharString>
        <CharString name="caron.cap">
          -151 732 79 hstem
          14 243 vstem
          242 883 rmoveto
          -16 callsubr
          endchar
        </CharString>
        <CharString name="ccaron">
          -41 -18 64 330 52 43 221 hstem
          17 66 46 180 vstem
          294 692 rmoveto
          -15 callsubr
          -85 -710 rmoveto
          -63 callsubr
          endchar
        </CharString>
        <CharString name="ccedilla">
          -41 -195 36 -23 31 133 64 330 52 hstemhm
          17 66 145 61 hintmask 10111100
          289 -120 rmoveto
          1 vlineto
          50 -36 26 -48 vhcurveto
          -3 hlineto
          -3 -1 1 2 hvcurveto
          0 2 2 2 6 18 rrcurveto
          3 hlineto
          75 0 58 41 32 44 3 4 3 6 0 6 0 10 -8 7 -9 0 -23 0 -21 -54 -78 0 rrcurveto
          -92 -66 83 93 84 53 70 61 hvcurveto
          58 0 17 -60 46 0 rrcurveto
          21 19 15 23 38 -55 36 -72 -128 -86 -95 -136 hvcurveto
          0 -113 63 -82 94 -16 -7 -20 -15 -37 0 -1 0 -3 3 0 2 0 42 -3 29 -22 0 -27 0 -19 -16 -13 -22 0 rrcurveto
          hintmask 01111100
          -22 callsubr
          hintmask 10111100
          -20 callsubr
          endchar
        </CharString>
        <CharString name="ccircumflex">
          -41 -18 64 330 52 43 221 hstem
          17 66 25 180 vstem
          123 471 rmoveto
          -21 callsubr
          86 -489 rmoveto
          -63 callsubr
          endchar
        </CharString>
        <CharString name="cdotaccent">
          -41 -18 64 330 52 44 112 hstem
          17 66 77 116 vstem
          160 527 rmoveto
          -17 callsubr
          49 -545 rmoveto
          -63 callsubr
          endchar
        </CharString>
        <CharString name="cedilla">
          -223 -199 36 -23 31 hstemhm
          46 47 29 61 hintmask 10110000
          101 -199 rmoveto
          66 16 43 33 50 -36 26 -48 hvcurveto
          -2 hlineto
          -4 0 1 2 hvcurveto
          0 1 11 32 5 16 rrcurveto
          -31 hlineto
          -11 -27 -21 -52 0 -2 0 -3 4 0 1 0 42 -3 29 -22 0 -26 0 -20 -15 -13 -23 0 rrcurveto
          hintmask 01110000
          -19 0 -31 8 -1 0 -11 0 -3 -23 0 -1 0 -3 1 -2 2 -2 rrcurveto
          5 -4 42 -9 32 0 rrcurveto
          endchar
        </CharString>
        <CharString name="circumflex">
          -207 479 221 hstem
          16 180 vstem
          31 479 rmoveto
          -21 callsubr
          endchar
        </CharString>
        <CharString name="circumflex.cap">
          -151 804 79 hstem
          14 243 vstem
          29 732 rmoveto
          -27 callsubr
          endchar
        </CharString>
        <CharString name="colon">
          -194 -17 118 192 118 hstem
          65 119 vstem
          124 411 rmoveto
          -103 callsubr
          -310 vmoveto
          -31 -28 -23 -35 -35 28 -25 31 34 26 28 31 33 -28 26 -32 hvcurveto
          endchar
        </CharString>
        <CharString name="comma">
          -147 247 hstem
          137 51 vstem
          100 100 rmoveto
          -104 callsubr
          endchar
        </CharString>
        <CharString name="copyright">
          350 -24 51 61 38 394 34 83 52 hstem
          30 51 70 66 342 25 107 51 vstem
          386 27 rmoveto
          -164 -141 133 172 166 133 139 171 175 131 -142 -162 -176 -143 -130 -162 hvcurveto
          -356 305 rmoveto
          -201 163 -155 192 204 153 165 191 194 -157 163 -199 -201 -155 -164 -193 vhcurveto
          520 52 rmoveto
          16 1 7 10 hvcurveto
          0 16 -5 35 -12 82 -2 9 -5 1 -5 0 -20 0 4 -23 -8 0 -13 0 -29 33 -84 0 rrcurveto
          -132 -105 -107 -127 -126 103 -106 131 hvcurveto
          35 0 43 9 41 24 18 10 -3 3 14 0 rrcurveto
          18 hlineto
          14 0 3 7 1 11 1 15 14 83 0 0 0 6 -4 4 -7 0 -5 0 -6 -3 -3 -7 -24 -78 -71 -46 -69 0 rrcurveto
          -98 -80 90 116 119 85 69 84 hvcurveto
          58 0 45 -30 26 -32 28 -36 -23 -38 30 0 rrcurveto
          endchar
        </CharString>
        <CharString name="d">
          72 -21 52 352 40 291 -20 hstem
          17 67 271 68 vstem
          238 383 rmoveto
          -62 callsubr
          2 40 rmoveto
          -61 callsubr
          endchar
        </CharString>
        <CharString name="dcaron">
          312 -21 52 352 40 51 247 -27 20 hstemhm
          17 67 271 68 227 51 hintmask 00100010
          613 721 rmoveto
          -104 callsubr
          hintmask 11011100
          -375 -338 rmoveto
          -62 callsubr
          2 40 rmoveto
          -61 callsubr
          endchar
        </CharString>
        <CharString name="degree">
          -210 496 38 119 37 hstem
          12 40 110 38 vstem
          106 690 rmoveto
          -51 -43 -43 -54 -54 43 -43 51 52 42 44 53 52 -41 45 -53 hvcurveto
          -37 vmoveto
          32 24 -29 -31 -30 -22 -29 -33 -31 -24 27 33 32 23 27 31 hvcurveto
          endchar
        </CharString>
        <CharString name="dieresis">
          -167 571 94 hstem
          12 96 39 96 vstem
          147 618 rmoveto
          -32 callsubr
          -135 hmoveto
          -32 callsubr
          endchar
        </CharString>
        <CharString name="divide">
          279 67 103 61 57 61 103 hstemhm
          285 106 -99 105 cntrmask 11100000
          hintmask 11100000
          76 231 rmoveto
          546 hlineto
          12 14 1 23 hvcurveto
          14 vlineto
          16 -7 3 -13 vhcurveto
          -552 hlineto
          -11 -12 -1 -21 hvcurveto
          -13 vlineto
          -18 7 -4 16 vhcurveto
          hintmask 11110000
          209 169 rmoveto
          -29 24 -22 29 29 24 23 29 28 -23 23 -29 vhcurveto
          -29 -25 -23 -29 hvcurveto
          60 -333 rmoveto
          hintmask 11101000
          29 23 22 29 29 -24 23 -29 -29 -23 -22 -29 -30 25 -22 28 hvcurveto
          endchar
        </CharString>
        <CharString name="dollar">
          60 1 41 557 39 hstemhm
          16 91 -66 58 87 41 105 70 hintmask 11011100
          376 531 rmoveto
          0 42 -54 55 -88 10 -5 0 -1 3 0 3 rrcurveto
          0 2 0 19 rlineto
          10 -4 10 -17 vhcurveto
          -1 hlineto
          -19 -1 -13 -7 hvcurveto
          -21 vlineto
          0 -6 -3 -1 -6 -1 -77 -6 -59 -65 0 -81 0 -65 43 -80 93 -20 6 -1 3 -2 0 -10 rrcurveto
          -260 vlineto
          -3 -2 -1 -3 -23 -54 13 52 vhcurveto
          hintmask 11101100
          0 13 3 10 0 12 rrcurveto
          29 -19 17 -23 -28 -21 -24 -31 vhcurveto
          0 -53 63 -76 99 -3 7 0 2 -3 0 -7 rrcurveto
          -69 vlineto
          -11 5 -8 15 16 4 9 10 vhcurveto
          69 vlineto
          0 6 0 4 8 2 84 14 83 60 0 112 0 20 -3 21 -6 20 -10 33 -22 52 -86 37 -36 15 -12 -3 0 20 0 3 1 7 0 6 rrcurveto
          174 vlineto
          4 3 1 2 vhcurveto
          2 hlineto
          62 -13 -25 -99 63 0 rrcurveto
          25 16 19 25 hvcurveto
          -193 68 rmoveto
          3 0 -2 -25 hvcurveto
          0 -83 0 -75 rlineto
          -3 -1 -2 -4 vhcurveto
          hintmask 11011100
          -4 -78 24 71 67 67 28 17 hvcurveto
          51 -304 rmoveto
          11 87 -36 -88 -89 -85 -38 -15 hvcurveto
          -2 hlineto
          -3 -1 0 31 hvcurveto
          0 30 1 60 0 121 rrcurveto
          5 1 4 6 vhcurveto
          endchar
        </CharString>
        <CharString name="dotaccent">
          -276 479 112 hstem
          15 116 vstem
          15 534 rmoveto
          -17 callsubr
          endchar
        </CharString>
        <CharString name="dotlessi">
          -179 -6 44 403 -20 hstem
          94 67 vstem
          94 121 rmoveto
          -50 callsubr
          endchar
        </CharString>
        <CharString name="dotmath">
          201 117 hstem
          54 119 vstem
          113 318 rmoveto
          -30 callsubr
          endchar
        </CharString>
        <CharString name="e">
          -13 -19 57 338 55 hstem
          22 71 197 97 vstem
          22 206 rmoveto
          -60 callsubr
          268 104 rmoveto
          -59 callsubr
          endchar
        </CharString>
        <CharString name="eacute">
          -13 -19 57 338 55 41 227 hstemhm
          22 71 19 197 -19 97 hintmask 00101000
          272 699 rmoveto
          -31 callsubr
          hintmask 11010100
          -250 -493 rmoveto
          -60 callsubr
          268 104 rmoveto
          -59 callsubr
          endchar
        </CharString>
        <CharString name="ebreve">
          -13 -19 57 338 55 40 68 hstemhm
          22 71 -4 242 -41 97 hintmask 00101000
          89 623 rmoveto
          -18 callsubr
          hintmask 11010100
          -67 -417 rmoveto
          -60 callsubr
          268 104 rmoveto
          -59 callsubr
          endchar
        </CharString>
        <CharString name="ecaron">
          -13 -19 57 338 55 40 221 hstemhm
          22 71 26 180 -9 97 hintmask 00101000
          284 692 rmoveto
          -15 callsubr
          hintmask 11010100
          -262 -486 rmoveto
          -60 callsubr
          268 104 rmoveto
          -59 callsubr
          endchar
        </CharString>
        <CharString name="ecircumflex">
          -13 -19 57 338 55 40 221 hstemhm
          22 71 26 180 -9 97 hintmask 00101000
          134 471 rmoveto
          -21 callsubr
          hintmask 11010100
          -112 -265 rmoveto
          -60 callsubr
          268 104 rmoveto
          -59 callsubr
          endchar
        </CharString>
        <CharString name="edieresis">
          -13 -19 57 338 55 140 94 hstemhm
          22 71 2 96 39 96 -36 97 hintmask 00101100
          230 618 rmoveto
          -32 callsubr
          -135 hmoveto
          -32 callsubr
          hintmask 11010010
          -73 -412 rmoveto
          -60 callsubr
          268 104 rmoveto
          -59 callsubr
          endchar
        </CharString>
        <CharString name="edotaccent">
          -13 -19 57 338 55 41 112 hstem
          22 71 40 116 41 97 vstem
          133 527 rmoveto
          -17 callsubr
          -111 -321 rmoveto
          -60 callsubr
          268 104 rmoveto
          -59 callsubr
          endchar
        </CharString>
        <CharString name="egrave">
          -13 -19 57 338 55 41 227 hstemhm
          22 71 -61 198 60 97 hintmask 00101000
          32 662 rmoveto
          -67 callsubr
          hintmask 11010100
          -10 -456 rmoveto
          -60 callsubr
          268 104 rmoveto
          -59 callsubr
          endchar
        </CharString>
        <CharString name="eight">
          25 -22 47 283 58 255 47 hstemhm
          16 74 -57 69 198 74 -32 83 hintmask 11101100
          102 514 rmoveto
          0 58 41 48 54 1 rrcurveto
          1 hlineto
          60 42 -55 -63 hvcurveto
          0 -52 -26 -47 -34 -31 -4 -4 -4 -3 -6 0 rrcurveto
          -24 -100 49 99 hvcurveto
          118 -489 rmoveto
          hintmask 11110010
          -69 -61 51 75 88 79 69 14 hvcurveto
          5 0 5 -3 5 -3 80 -40 64 -59 0 -67 rrcurveto
          -64 -57 -47 -65 vhcurveto
          -11 -47 rmoveto
          113 103 86 97 hvcurveto
          0 75 -64 70 -93 42 -1 1 -2 1 0 2 0 2 1 2 2 1 rrcurveto
          hintmask 11101100
          61 34 45 67 0 68 rrcurveto
          95 -79 47 -86 -105 -71 -87 -79 vhcurveto
          0 -68 48 -62 59 -40 3 -2 2 -2 0 -2 0 -4 -1 1 -59 -46 rrcurveto
          hintmask 11110010
          -35 -28 -34 -37 0 -59 rrcurveto
          -93 85 -82 108 vhcurveto
          endchar
        </CharString>
        <CharString name="emdash">
          646 224 55 hstem
          27 250 rmoveto
          -12 0 -14 14 vhcurveto
          987 hlineto
          11 3 6 22 hvcurveto
          2 vlineto
          10 -1 15 -13 vhcurveto
          -987 hlineto
          -13 -1 -13 -12 hvcurveto
          endchar
        </CharString>
        <CharString name="endash">
          105 224 55 hstem
          27 250 rmoveto
          -68 callsubr
          endchar
        </CharString>
        <CharString name="equal">
          279 156 58 91 58 hstem
          76 305 rmoveto
          546 hlineto
          12 14 2 23 hvcurveto
          13 vlineto
          16 -7 4 -13 vhcurveto
          -552 hlineto
          -11 -12 -1 -21 hvcurveto
          -14 vlineto
          -18 8 -4 15 vhcurveto
          -149 vmoveto
          547 hlineto
          12 14 1 23 hvcurveto
          14 vlineto
          16 -7 4 -13 vhcurveto
          -552 hlineto
          -11 -12 -1 -21 hvcurveto
          -14 vlineto
          -17 7 -5 15 vhcurveto
          endchar
        </CharString>
        <CharString name="exclam">
          -97 -16 101 hstemhm
          108 96 -90 103 hintmask 11000000
          194 674 rmoveto
          -6 0 1 0 -68 -40 -8 -5 -5 -4 0 -14 0 -1 13 -146 6 -222 rrcurveto
          -17 vlineto
          -15 2 -15 13 vhcurveto
          10 0 5 10 2 6 7 21 38 179 0 214 rrcurveto
          23 vlineto
          19 -1 7 -9 vhcurveto
          -28 -589 rmoveto
          hintmask 10100000
          -27 -25 -20 -30 -30 25 -21 27 29 22 23 27 29 -24 22 -27 hvcurveto
          endchar
        </CharString>
        <CharString name="exclamdown">
          -97 5 -21 588 102 hstemhm
          108 103 -89 95 -51 33 hintmask 11010000
          132 -16 rmoveto
          5 0 -1 0 68 40 8 4 5 5 0 13 rrcurveto
          hintmask 11001000
          0 1 -13 146 -5 223 rrcurveto
          13 vlineto
          16 -2 17 -14 vhcurveto
          -10 0 -5 -10 -2 -6 rrcurveto
          hintmask 11010000
          -6 -21 -38 -179 0 -214 rrcurveto
          -23 vlineto
          -18 1 -7 9 vhcurveto
          28 588 rmoveto
          hintmask 11100000
          27 24 20 31 30 -25 21 -27 -29 -22 -24 -27 -28 24 -23 28 hvcurveto
          endchar
        </CharString>
        <CharString name="f">
          -130 -6 45 320 52 242 67 hstem
          82 70 vstem
          33 -6 rmoveto
          3 0 39 6 49 0 48 0 39 -6 3 0 12 0 4 10 0 12 0 23 -11 -6 -46 4 -19 1 -1 13 0 10 rrcurveto
          0 3 0 287 rlineto
          7 3 1 6 vhcurveto
          94 hlineto
          24 2 22 9 hvcurveto
          1 vlineto
          16 -10 4 -12 vhcurveto
          -98 hlineto
          -9 -1 3 13 hvcurveto
          9 vlineto
          117 32 100 71 vhcurveto
          31 0 24 -24 28 0 rrcurveto
          27 15 20 19 21 -18 31 -54 hvcurveto
          -61 0 -82 -41 -40 -68 -37 -65 -5 -88 -1 -39 rrcurveto
          -1 vlineto
          0 -12 -1 4 -50 -2 rrcurveto
          -13 -8 -7 -23 -18 15 0 6 hvcurveto
          48 -1 5 3 0 -12 0 -194 -2 -68 -2 -25 -1 -12 1 -10 -15 -2 -37 -6 -10 2 0 -16 0 -11 2 -14 13 0 rrcurveto
          endchar
        </CharString>
        <CharString name="f_f">
          77 -6 43 323 51 219 90 -77 62 hstemhm
          71 70 153 70 hintmask 11011100
          325 617 rmoveto
          3 hlineto
          3 1 -2 -2 hvcurveto
          0 -5 -38 -58 0 -119 rrcurveto
          -8 vlineto
          -11 -6 -1 -9 vhcurveto
          -128 hlineto
          -9 -2 5 8 hvcurveto
          17 vlineto
          73 20 129 77 vhcurveto
          35 0 20 -26 33 0 rrcurveto
          -263 -206 rmoveto
          -22 hlineto
          -12 -8 -8 -24 -15 9 -4 11 hvcurveto
          19 hlineto
          8 4 -1 -9 hvcurveto
          -184 vlineto
          0 -120 -2 -3 -16 -4 -31 -8 -13 7 0 -21 0 -14 3 -9 10 0 3 0 38 6 49 0 49 0 39 -6 3 0 10 0 2 9 0 11 rrcurveto
          0 24 -15 -4 -41 3 -17 2 -1 11 0 8 rrcurveto
          0 2 0 289 rlineto
          10 6 1 8 vhcurveto
          130 hlineto
          9 2 -4 -6 hvcurveto
          -1 -249 rlineto
          0 -69 -10 9 -19 -4 -33 -6 -6 1 0 -21 0 -8 3 -8 10 0 3 0 40 5 50 0 57 0 28 -5 9 0 11 0 3 8 0 10 rrcurveto
          0 13 -3 7 -13 1 -50 4 -10 -2 0 22 rrcurveto
          290 vlineto
          7 1 4 8 vhcurveto
          88 hlineto
          4 0 3 0 4 1 12 6 2 24 0 6 rrcurveto
          10 -4 5 -12 vhcurveto
          -97 hlineto
          -8 -2 3 8 hvcurveto
          32 vlineto
          0 25 1 25 4 24 17 105 33 22 34 0 rrcurveto
          hintmask 11101100
          32 0 23 -25 30 0 rrcurveto
          24 17 18 22 20 -17 30 -52 hvcurveto
          -85 0 -52 -53 -5 0 rrcurveto
          hintmask 11011100
          -6 0 -14 38 -61 0 -23 0 -23 -6 -21 -9 -134 -56 -17 -154 0 -59 rrcurveto
          -1 vlineto
          -6 -1 -3 -6 vhcurveto
          endchar
        </CharString>
        <CharString name="f_f_i">
          290 -6 42 324 51 233 61 -37 59 hstemhm
          70 70 163 70 192 70 hintmask 11101110
          243 644 rmoveto
          38 0 20 -27 33 0 rrcurveto
          3 hlineto
          3 1 -2 -2 hvcurveto
          0 -5 -38 -58 0 -119 rrcurveto
          -8 vlineto
          -11 -6 -1 -9 vhcurveto
          -138 hlineto
          -9 -2 5 8 hvcurveto
          17 vlineto
          84 21 119 83 vhcurveto
          hintmask 11011110
          292 83 rmoveto
          -110 0 -41 -60 -7 -1 rrcurveto
          hintmask 11101110
          -7 0 -11 39 -63 0 rrcurveto
          -1 hlineto
          -54 0 -53 -28 -29 -25 -67 -57 -24 -95 0 -79 rrcurveto
          -1 vlineto
          -5 -1 -4 -6 vhcurveto
          -22 hlineto
          -12 -8 -8 -24 -15 9 -4 11 hvcurveto
          19 hlineto
          8 4 -1 -9 hvcurveto
          -147 vlineto
          0 -94 0 -30 -4 -24 -1 -9 -3 -5 -10 -2 -31 -8 -13 7 0 -21 0 -14 3 -9 10 0 3 0 38 6 49 0 49 0 39 -6 3 0 rrcurveto
          10 2 9 11 hvcurveto
          0 24 -15 -4 -41 3 -17 2 -1 11 0 8 rrcurveto
          0 2 0 289 rlineto
          10 6 1 8 vhcurveto
          140 hlineto
          9 2 -4 -6 hvcurveto
          -1 -249 rlineto
          0 -69 -10 9 -19 -4 -34 -7 -5 2 0 -21 0 -8 3 -8 10 0 3 0 40 5 50 0 57 0 28 -5 9 0 11 0 3 8 0 10 rrcurveto
          0 13 -3 7 -13 1 -49 4 -11 -2 0 22 rrcurveto
          290 vlineto
          7 1 4 8 vhcurveto
          123 hlineto
          11 0 12 -1 11 -2 23 -2 4 -1 0 -12 0 -22 -2 -67 0 -132 rrcurveto
          0 -43 1 -3 rlineto
          0 -17 -2 -15 -25 -4 -46 -6 -3 2 0 -23 0 -10 5 -7 9 0 3 0 39 6 49 0 49 0 24 -5 8 0 13 0 3 15 0 7 rrcurveto
          0 16 -12 3 -6 1 -32 6 -3 0 -3 10 -2 5 -1 108 0 18 0 115 7 90 0 6 0 23 -13 4 -9 0 -9 0 -26 -8 -54 -3 rrcurveto
          -146 hlineto
          -8 -2 3 8 hvcurveto
          32 vlineto
          hintmask 11011110
          179 65 35 43 vhcurveto
          46 0 26 -38 39 0 rrcurveto
          23 21 16 25 hvcurveto
          22 -17 34 -84 vhcurveto
          endchar
        </CharString>
        <CharString name="f_f_l">
          286 -6 43 323 51 234 60 -50 65 hstemhm
          80 70 171 70 166 73 hintmask 11101110
          351 617 rmoveto
          3 hlineto
          3 1 -2 -2 hvcurveto
          0 -5 -37 -58 0 -119 rrcurveto
          -8 vlineto
          -11 -7 -1 -8 vhcurveto
          -146 hlineto
          -9 -2 5 8 hvcurveto
          17 vlineto
          0 23 1 24 4 23 19 110 40 24 40 0 rrcurveto
          44 0 21 -28 33 0 rrcurveto
          44 50 rmoveto
          -3 hlineto
          -2 2 -20 36 -58 0 -36 0 -62 -15 -44 -36 -50 -40 -29 -67 -10 -75 -6 -53 8 -8 -12 0 rrcurveto
          -42 hlineto
          -12 -8 -8 -24 -17 12 -2 8 hvcurveto
          39 hlineto
          7 5 -1 -9 hvcurveto
          -160 vlineto
          0 -144 -2 -3 -16 -4 -32 -8 -12 7 0 -21 0 -12 1 -11 12 0 3 0 37 6 50 0 48 0 40 -6 2 0 10 0 3 9 0 11 rrcurveto
          0 24 -15 -4 -41 3 -17 2 -1 11 0 8 rrcurveto
          0 2 0 289 rlineto
          10 5 1 8 vhcurveto
          149 hlineto
          9 2 -4 -6 hvcurveto
          -1 -249 rlineto
          0 -10 -2 -32 -3 -9 -5 -13 -6 3 -13 -3 -33 -6 -7 1 0 -21 0 -8 3 -8 10 0 3 0 40 5 51 0 56 0 28 -5 10 0 rrcurveto
          10 4 8 10 hvcurveto
          0 13 -4 7 -12 1 -50 4 -10 -2 0 22 rrcurveto
          290 vlineto
          7 1 4 7 vhcurveto
          89 hlineto
          3 0 4 0 3 1 12 6 3 24 0 6 rrcurveto
          10 -5 5 -11 vhcurveto
          -97 hlineto
          -8 -2 3 8 hvcurveto
          32 vlineto
          hintmask 11011110
          83 17 118 72 vhcurveto
          hintmask 11101110
          11 0 13 -3 15 -7 25 -15 13 -16 0 -47 rrcurveto
          -491 vlineto
          0 -20 -3 -15 -25 -3 -34 -4 -8 1 0 -19 0 -7 0 -14 15 0 3 0 39 5 48 0 50 0 41 -6 3 0 10 0 2 9 0 11 rrcurveto
          0 13 -5 5 -12 2 -41 7 -11 -2 0 32 0 3 1 3 0 3 rrcurveto
          624 vlineto
          9 -3 10 -11 vhcurveto
          -9 0 -10 -11 -13 0 rrcurveto
          -1 hlineto
          hintmask 11011110
          -10 0 -11 8 -26 0 -88 0 -47 -53 -6 0 rrcurveto
          endchar
        </CharString>
        <CharString name="f_i">
          53 -6 43 323 51 245 65 hstem
          82 70 175 70 vstem
          327 721 rmoveto
          -23 0 -93 -6 -65 -89 -39 -53 -22 -76 -3 -78 rrcurveto
          -2 vlineto
          0 -9 -2 2 -40 -2 rrcurveto
          -1 hlineto
          -4 -16 -1 -29 -14 11 -4 10 hvcurveto
          37 -1 7 3 0 -12 0 -194 -2 -68 -2 -25 -1 -12 1 -10 -15 -2 -37 -6 -10 2 0 -16 0 -11 2 -14 13 0 3 0 39 6 49 0 rrcurveto
          48 0 39 -6 3 0 12 0 4 10 0 12 0 23 -11 -6 -46 4 -19 1 -1 13 0 10 rrcurveto
          0 3 0 287 rlineto
          7 3 1 6 vhcurveto
          102 hlineto
          13 0 12 -1 12 -2 23 -2 4 -1 0 -12 0 -22 -1 -67 0 -132 rrcurveto
          -46 vlineto
          0 -17 -2 -15 -25 -4 -45 -6 -4 2 0 -23 0 -10 5 -7 10 0 3 0 39 6 48 0 49 0 24 -5 8 0 13 0 3 15 0 7 rrcurveto
          0 16 -11 3 -7 1 -31 6 -4 0 -3 10 -1 5 -2 108 0 18 0 115 7 90 0 6 0 23 -13 4 -9 0 -9 0 -27 -8 -54 -3 rrcurveto
          -127 hlineto
          -9 -1 3 15 hvcurveto
          9 vlineto
          0 11 0 10 1 10 3 39 19 148 90 0 37 0 23 -27 33 0 rrcurveto
          1 hlineto
          24 19 17 23 31 -31 21 -44 hvcurveto
          endchar
        </CharString>
        <CharString name="f_l">
          38 -6 45 320 52 245 64 hstem
          77 69 164 73 vstem
          75 417 rmoveto
          0 -9 -4 2 -34 -2 rrcurveto
          -4 -17 0 -30 -14 10 -4 11 hvcurveto
          34 -1 6 3 0 -12 0 -194 -2 -68 -2 -25 -1 -12 1 -10 -14 -2 -38 -6 -10 2 0 -16 0 -11 3 -14 12 0 3 0 39 6 49 0 rrcurveto
          48 0 40 -6 2 0 12 0 4 10 0 12 0 23 -11 -6 -46 4 -19 1 -1 12 0 9 rrcurveto
          0 5 0 287 rlineto
          7 3 1 6 vhcurveto
          78 hlineto
          23 3 22 9 hvcurveto
          1 vlineto
          16 -11 4 -11 vhcurveto
          -81 hlineto
          -11 0 3 20 78 10 144 82 hvcurveto
          7 0 7 -1 7 -3 50 -15 2 -46 0 -25 rrcurveto
          0 -8 0 -482 rlineto
          0 -20 -2 -15 -26 -3 -33 -4 -8 1 0 -19 0 -7 0 -14 15 0 2 0 39 5 48 0 51 0 41 -6 2 0 11 0 2 9 0 11 rrcurveto
          0 13 -6 5 -11 2 -41 7 -11 -2 0 32 rrcurveto
          633 vlineto
          10 -3 9 -11 vhcurveto
          -9 0 -10 -11 -13 0 -11 0 -11 8 -29 0 -91 0 -60 -65 -25 -50 -31 -63 -4 -81 0 -36 rrcurveto
          endchar
        </CharString>
        <CharString name="five">
          -41 191 66 42 88 -40 88 hstemhm
          235 61 hintmask 10110000
          117 257 rmoveto
          -13 hlineto
          -5 -2 4 2 hvcurveto
          0 2 1 2 0 1 19 69 0 10 11 0 rrcurveto
          1 hlineto
          hintmask 11010000
          8 -1 143 -47 12 0 8 0 3 5 2 6 46 106 0 -1 0 4 0 9 -10 5 -6 0 -1 0 -3 0 -4 -3 -7 -7 -17 -36 -18 0 rrcurveto
          hintmask 10110000
          -15 0 -140 48 -12 0 -10 0 -5 -8 -2 -5 0 -1 -63 -218 0 -7 0 -8 4 -7 9 0 6 0 17 10 28 0 66 0 67 -57 0 -96 rrcurveto
          0 -48 -17 -41 -19 -30 -49 -75 -53 -1 0 -22 0 -10 9 -5 8 0 26 0 72 51 37 55 25 37 22 53 0 59 rrcurveto
          122 -88 74 -91 vhcurveto
          endchar
        </CharString>
        <CharString name="four">
          25 0 66 -66 74 355 -20 hstemhm
          270 60 hintmask 01110000
          40 hmoveto
          hintmask 10110000
          222 hlineto
          7 1 -4 -6 hvcurveto
          -164 vlineto
          -7 1 -5 9 vhcurveto
          40 hlineto
          9 1 4 8 hvcurveto
          167 vlineto
          hintmask 01110000
          6 4 1 5 vhcurveto
          56 hlineto
          6 0 3 1 3 3 4 5 7 52 0 2 0 8 -5 5 -15 0 -8 0 -4 -2 -30 0 rrcurveto
          -16 hlineto
          -8 -2 4 7 hvcurveto
          1 326 rlineto
          15 -8 3 -6 vhcurveto
          -7 0 -5 -4 -4 -5 -7 -9 6 9 -260 -374 -7 -10 -10 -10 0 -12 rrcurveto
          -12 9 -2 8 vhcurveto
          hintmask 10110000
          220 66 rmoveto
          -145 hlineto
          -5 -1 3 2 hvcurveto
          0 3 0 0 150 222 1 1 1 3 4 0 rrcurveto
          4 1 -4 -4 hvcurveto
          -213 vlineto
          -6 -2 -7 -8 vhcurveto
          endchar
        </CharString>
        <CharString name="fraction">
          13 35 -187 rmoveto
          6 0 4 1 3 3 4 4 -2 -4 376 735 1 3 2 3 0 4 0 15 -23 3 -8 0 -9 0 -3 -4 -3 -5 -377 -740 0 1 0 -5 rrcurveto
          -13 22 -1 7 vhcurveto
          endchar
        </CharString>
        <CharString name="g">
          18 -234 47 299 35 252 34 hstemhm
          22 78 -73 56 -39 51 197 72 9 58 hintmask 11110011
          187 399 rmoveto
          -58 callsubr
          hintmask 11101011
          -104 -487 rmoveto
          -57 callsubr
          hintmask 11110011
          -61 365 rmoveto
          -56 callsubr
          hintmask 11100111
          -55 callsubr
          hintmask 11101011
          -54 callsubr
          hintmask 11100111
          -53 callsubr
          endchar
        </CharString>
        <CharString name="gbreve">
          18 -234 47 299 35 252 34 46 68 hstemhm
          22 78 -73 56 -39 51 10 242 -55 72 9 58 hintmask 0001000100000000
          105 631 rmoveto
          -18 callsubr
          hintmask 1110100011000000
          82 -232 rmoveto
          -58 callsubr
          hintmask 1110010011000000
          -104 -487 rmoveto
          -57 callsubr
          hintmask 1110100011000000
          -61 365 rmoveto
          -56 callsubr
          hintmask 1110001011000000
          -55 callsubr
          hintmask 1110010011000000
          -54 callsubr
          hintmask 1110001011000000
          -53 callsubr
          endchar
        </CharString>
        <CharString name="gcircumflex">
          18 -234 47 299 35 252 34 46 221 hstemhm
          22 78 -73 56 -39 51 8 180 9 72 9 58 hintmask 0001000100000000
          118 479 rmoveto
          -21 callsubr
          hintmask 1110100011000000
          69 -80 rmoveto
          -58 callsubr
          hintmask 1110010011000000
          -104 -487 rmoveto
          -57 callsubr
          hintmask 1110100011000000
          -61 365 rmoveto
          -56 callsubr
          hintmask 1110001011000000
          -55 callsubr
          hintmask 1110010011000000
          -54 callsubr
          hintmask 1110001011000000
          -53 callsubr
          endchar
        </CharString>
        <CharString name="gdotaccent">
          18 -234 47 299 35 252 34 46 112 hstemhm
          22 78 -73 56 -39 51 73 116 8 72 9 58 hintmask 0001000100000000
          168 534 rmoveto
          -17 callsubr
          hintmask 1110100011000000
          19 -135 rmoveto
          -58 callsubr
          hintmask 1110010011000000
          -104 -487 rmoveto
          -57 callsubr
          hintmask 1110100011000000
          -61 365 rmoveto
          -56 callsubr
          hintmask 1110001011000000
          -55 callsubr
          hintmask 1110010011000000
          -54 callsubr
          hintmask 1110001011000000
          -53 callsubr
          endchar
        </CharString>
        <CharString name="germandbls">
          107 -19 56 -43 45 321 47 252 60 hstemhm
          82 71 99 57 -51 41 41 81 39 61 hintmask 0111110110000000
          30 -6 rmoveto
          3 0 38 6 48 0 47 0 39 -6 2 0 11 0 0 12 0 11 0 17 -6 -1 -28 2 -31 3 -1 15 0 15 0 31 1 32 0 249 rrcurveto
          10 vlineto
          0 40 0 39 5 39 17 140 69 11 21 0 45 0 30 -38 0 -46 0 -85 -88 -49 0 -73 0 -32 16 -24 24 -24 99 -102 69 -27 0 -59 rrcurveto
          hintmask 1011101110000000
          -38 -33 -25 -37 vhcurveto
          -45 0 -38 41 -8 13 -19 34 20 31 -25 0 -9 0 -5 -6 -1 -1 -2 -3 0 2 0 -17 rrcurveto
          -66 vlineto
          0 -11 1 -7 5 -9 12 -20 47 -37 74 0 68 0 56 47 0 69 0 56 -37 45 -25 27 rrcurveto
          hintmask 0111110110000000
          -83 90 -67 23 0 61 0 74 112 29 0 105 0 68 -50 44 -67 0 -40 0 -53 -15 -41 -34 -61 -52 -26 -97 -1 -102 rrcurveto
          -2 vlineto
          0 -3 0 -3 -3 -1 -4 -2 -43 2 -9 -3 -12 -4 -2 -19 0 -5 rrcurveto
          -18 15 -1 6 vhcurveto
          1 hlineto
          46 -1 7 3 0 -11 0 -50 -1 -175 -1 -25 -2 -40 4 -20 -19 -2 -38 -5 -9 2 0 -23 rrcurveto
          -14 5 -5 7 vhcurveto
          endchar
        </CharString>
        <CharString name="grave">
          474 227 hstem
          8 198 vstem
          8 664 rmoveto
          -67 callsubr
          endchar
        </CharString>
        <CharString name="grave.cap">
          -140 730 169 hstem
          17 248 vstem
          17 863 rmoveto
          -29 callsubr
          endchar
        </CharString>
        <CharString name="greater">
          250 621 249 rmoveto
          0 11 -10 4 -8 3 -521 190 1 1 -8 0 -12 0 -11 -11 0 -27 0 -12 9 -5 10 -3 rrcurveto
          441 -161 -447 -162 rlineto
          -8 -3 -5 -5 0 -9 0 -10 6 -27 23 0 7 0 0 1 516 188 9 3 8 4 0 11 rrcurveto
          endchar
        </CharString>
        <CharString name="guillemotleft">
          -57 52 282 hstem
          22 80 61 79 vstem
          185 334 rmoveto
          -5 0 1 0 -152 -130 -3 -3 -4 -3 0 -5 0 -4 3 -3 3 -2 152 -132 -1 0 5 0 8 0 9 11 0 8 0 3 -2 3 -2 2 rrcurveto
          -92 107 -3 2 0 6 0 3 2 2 1 2 97 109 0 -1 0 6 0 7 -9 12 -8 0 rrcurveto
          141 hmoveto
          -6 0 2 0 -152 -130 -4 -3 -3 -3 0 -5 0 -4 3 -3 3 -2 152 -132 -2 0 6 0 8 0 8 11 0 8 0 3 -1 3 -3 2 rrcurveto
          -91 107 -4 2 0 6 0 3 2 2 2 2 97 109 0 -1 0 6 0 7 -9 12 -8 0 rrcurveto
          endchar
        </CharString>
        <CharString name="guillemotright">
          -57 52 282 hstem
          123 79 61 79 vstem
          180 334 rmoveto
          -8 -10 -10 -9 hvcurveto
          0 -6 1 1 97 -109 2 -3 1 -3 0 -2 0 -3 -1 -2 -2 -3 -95 -110 -1 1 0 -6 0 -9 10 -9 6 0 6 0 -1 0 151 132 rrcurveto
          4 2 2 3 0 4 0 5 -2 3 -4 3 -153 130 3 0 -6 0 rrcurveto
          -140 hmoveto
          -8 -10 -10 -9 hvcurveto
          0 -4 2 -3 2 -3 rrcurveto
          94 -104 rlineto
          2 -3 1 -2 0 -2 0 -3 -2 -3 -3 -3 -92 -107 -2 -2 0 -6 0 -9 8 -9 8 0 6 0 -1 0 151 132 4 3 2 3 0 3 rrcurveto
          0 3 -2 4 -6 4 -145 125 -4 5 -5 0 rrcurveto
          endchar
        </CharString>
        <CharString name="guilsinglleft">
          -199 52 282 hstem
          22 79 vstem
          185 334 rmoveto
          -6 0 1 0 -151 -130 -4 -3 -3 -3 0 -5 0 -4 3 -3 2 -2 152 -132 -1 0 6 0 8 0 8 11 0 8 0 3 -2 3 -2 2 rrcurveto
          -92 107 -3 2 0 6 0 3 2 2 2 2 96 109 0 -1 0 6 0 7 -8 12 -8 0 rrcurveto
          endchar
        </CharString>
        <CharString name="guilsinglright">
          -199 52 282 hstem
          122 79 vstem
          38 334 rmoveto
          -6 -10 -10 -9 hvcurveto
          0 -4 1 -3 3 -3 rrcurveto
          92 -104 rlineto
          3 -3 1 -2 0 -3 0 -4 -3 -3 -92 -107 -3 -3 -1 -3 0 -3 0 -9 9 -9 7 0 4 0 3 2 3 3 149 129 3 0 0 6 rrcurveto
          1 vlineto
          0 5 -3 3 -4 3 -152 130 2 0 -6 0 rrcurveto
          endchar
        </CharString>
        <CharString name="h">
          92 -6 40 388 -20 hstem
          86 67 217 74 vstem
          293 8 rmoveto
          -52 callsubr
          endchar
        </CharString>
        <CharString name="hcircumflex">
          92 -6 40 368 20 378 79 hstemhm
          33 243 -190 67 217 74 hintmask 00110000
          48 728 rmoveto
          -27 callsubr
          hintmask 11001100
          245 -720 rmoveto
          -52 callsubr
          endchar
        </CharString>
        <CharString name="hyphen">
          154 181 hstem
          12 203 vstem
          199 335 rmoveto
          -10 0 -6 -7 -152 -106 -16 -11 -3 -3 0 -14 rrcurveto
          -14 vlineto
          -12 3 -14 15 vhcurveto
          13 0 8 12 146 102 10 8 8 7 0 13 0 22 -3 17 -13 0 rrcurveto
          endchar
        </CharString>
        <CharString name="i">
          -179 -6 44 383 20 130 94 hstemhm
          94 67 -57 96 hintmask 11101000
          104 618 rmoveto
          -51 callsubr
          hintmask 11010000
          -10 -497 rmoveto
          -50 callsubr
          endchar
        </CharString>
        <CharString name="iacute">
          -179 -6 44 383 20 40 227 hstemhm
          24 197 -127 67 hintmask 00110000
          184 708 rmoveto
          -31 callsubr
          hintmask 11001000
          -90 -587 rmoveto
          -50 callsubr
          endchar
        </CharString>
        <CharString name="ibreve">
          -179 -6 44 383 20 39 68 hstemhm
          1 242 -149 67 hintmask 00110000
          1 632 rmoveto
          -18 callsubr
          hintmask 11001000
          93 -511 rmoveto
          -50 callsubr
          endchar
        </CharString>
        <CharString name="icircumflex">
          -179 -6 44 383 20 40 221 hstemhm
          27 180 -113 67 hintmask 00110000
          42 481 rmoveto
          -21 callsubr
          hintmask 11001000
          52 -360 rmoveto
          -50 callsubr
          endchar
        </CharString>
        <CharString name="idieresis">
          -179 -6 44 383 20 130 94 hstemhm
          -5 96 3 67 -31 96 hintmask 11001000
          94 121 rmoveto
          -50 callsubr
          hintmask 00110100
          36 497 rmoveto
          -32 callsubr
          -135 hmoveto
          -32 callsubr
          endchar
        </CharString>
        <CharString name="igrave">
          -179 -6 44 383 20 40 227 hstemhm
          15 198 -48 67 hintmask 00110000
          15 671 rmoveto
          -67 callsubr
          hintmask 11001000
          150 -550 rmoveto
          -50 callsubr
          endchar
        </CharString>
        <CharString name="ij">
          53 -231 77 148 44 383 20 -19 20 116 93 -80 94 hstemhm
          94 67 -57 96 138 71 -62 96 hintmask 1001100010000000
          337 102 rmoveto
          -49 callsubr
          hintmask 1001100001000000
          10 502 rmoveto
          -48 callsubr
          hintmask 0110010100000000
          -243 14 rmoveto
          -51 callsubr
          hintmask 0110001000000000
          -10 -497 rmoveto
          -50 callsubr
          endchar
        </CharString>
        <CharString name="itilde">
          -179 -6 44 383 20 127 54 -9 52 hstemhm
          -40 304 -170 67 hintmask 00101000
          167 622 rmoveto
          hintmask 00011000
          -26 callsubr
          hintmask 00101000
          -25 callsubr
          hintmask 11000100
          -73 -501 rmoveto
          -50 callsubr
          endchar
        </CharString>
        <CharString name="j">
          -190 -231 77 596 -20 136 93 hstemhm
          95 71 -62 96 hintmask 11110000
          94 102 rmoveto
          -49 callsubr
          hintmask 11101000
          10 502 rmoveto
          -48 callsubr
          endchar
        </CharString>
        <CharString name="jcircumflex">
          -190 -231 77 576 20 40 221 hstemhm
          21 180 -106 71 hintmask 00110000
          36 482 rmoveto
          -21 callsubr
          hintmask 11001000
          58 -380 rmoveto
          -14 callsubr
          endchar
        </CharString>
        <CharString name="k">
          32 -4 38 167 24 145 45 303 -20 hstem
          67 68 vstem
          224 12 rmoveto
          -47 callsubr
          endchar
        </CharString>
        <CharString name="kcommaaccent">
          32 -293 247 42 38 167 24 145 45 283 20 hstem
          67 68 113 51 vstem
          211 -46 rmoveto
          -104 callsubr
          13 58 rmoveto
          -47 callsubr
          endchar
        </CharString>
        <CharString name="l">
          -183 -5 43 685 -20 hstem
          87 73 vstem
          228 14 rmoveto
          -46 callsubr
          endchar
        </CharString>
        <CharString name="lacute">
          -183 -5 43 665 20 10 227 hstemhm
          21 197 -131 73 hintmask 00110000
          181 960 rmoveto
          -31 callsubr
          hintmask 11001000
          47 -946 rmoveto
          -46 callsubr
          endchar
        </CharString>
        <CharString name="lcaron">
          -7 -5 43 438 247 -20 20 hstemhm
          87 73 181 51 hintmask 01001000
          304 723 rmoveto
          -104 callsubr
          hintmask 10110000
          -76 -709 rmoveto
          -46 callsubr
          endchar
        </CharString>
        <CharString name="lcommaaccent">
          -183 -293 247 41 43 665 20 hstemhm
          87 73 -17 51 hintmask 10001000
          106 -46 rmoveto
          -104 callsubr
          hintmask 01110000
          122 60 rmoveto
          -46 callsubr
          endchar
        </CharString>
        <CharString name="less">
          250 52 249 rmoveto
          -19 vlineto
          0 -11 8 -4 9 -3 518 -189 -3 0 8 0 23 0 6 27 0 10 0 9 -5 5 -8 3 rrcurveto
          -447 162 441 161 rlineto
          10 3 9 5 0 12 0 27 -11 11 -12 0 -8 0 1 -1 -521 -190 -8 -3 -10 -4 0 -11 rrcurveto
          endchar
        </CharString>
        <CharString name="logicalnot">
          279 231 57 hstem
          592 57 vstem
          76 231 rmoveto
          516 -164 hlineto
          -14 3 -12 21 vhcurveto
          14 hlineto
          16 3 7 13 hvcurveto
          218 vlineto
          6 -1 3 -7 vhcurveto
          -564 hlineto
          -11 -13 -1 -21 hvcurveto
          -13 vlineto
          -18 8 -4 15 vhcurveto
          endchar
        </CharString>
        <CharString name="longs">
          -182 -6 45 321 48 245 67 hstem
          84 69 vstem
          33 -6 rmoveto
          3 0 39 6 49 0 48 0 39 -6 3 0 12 0 4 10 0 12 0 23 -11 -6 -46 4 -19 1 -1 13 0 10 rrcurveto
          0 3 0 301 rlineto
          0 42 -1 14 0 15 0 117 32 100 71 0 31 0 24 -24 28 0 rrcurveto
          27 15 20 19 21 -18 31 -54 hvcurveto
          -61 0 -82 -41 -40 -68 -37 -65 -5 -88 -1 -39 rrcurveto
          -1 vlineto
          0 -12 -1 4 -50 -2 rrcurveto
          -13 -8 -7 -23 -18 15 0 6 hvcurveto
          48 -1 5 3 0 -12 0 -194 -2 -68 -2 -25 -1 -12 1 -10 -15 -2 -37 -6 -10 2 0 -16 0 -11 2 -14 13 0 rrcurveto
          endchar
        </CharString>
        <CharString name="longs_i">
          54 -6 44 -44 45 321 48 13 20 215 65 hstemhm
          84 69 175 67 hintmask 01111110
          152 436 rmoveto
          89 31 131 82 vhcurveto
          37 0 23 -27 33 0 rrcurveto
          1 hlineto
          23 20 17 23 31 -31 21 -44 hvcurveto
          -60 0 -122 -33 -47 -163 -24 -86 15 -29 -13 0 rrcurveto
          -36 -2 rlineto
          -4 -16 0 -30 -11 5 -7 15 hvcurveto
          32 hlineto
          12 -1 0 -2 0 -9 -1 -296 2 -10 -20 -3 -34 -6 -13 1 0 -15 0 -11 2 -14 13 0 3 0 39 6 49 0 48 0 39 -6 3 0 rrcurveto
          11 5 10 10 10 -4 9 -8 hvcurveto
          -45 4 rlineto
          -18 1 -3 6 0 34 0 11 1 14 0 17 rrcurveto
          242 vlineto
          0 66 -1 -7 0 15 rrcurveto
          hintmask 10010010
          176 -315 rmoveto
          -50 callsubr
          endchar
        </CharString>
        <CharString name="longs_l">
          38 -6 45 321 48 248 64 hstem
          75 70 165 73 vstem
          146 366 rmoveto
          0 61 -1 -13 0 15 rrcurveto
          5 vlineto
          106 19 116 73 vhcurveto
          7 0 7 -1 7 -3 51 -16 1 -46 0 -32 rrcurveto
          -479 vlineto
          0 -21 0 -17 -28 -3 -32 -4 -9 2 0 -21 0 -16 3 -4 14 0 14 0 27 5 46 0 52 0 27 -5 14 0 12 0 2 4 0 15 rrcurveto
          0 12 -5 6 -12 2 -42 7 -10 -1 0 29 rrcurveto
          635 vlineto
          10 -3 9 -11 vhcurveto
          -9 0 -10 -10 -13 0 -12 0 -7 7 -32 0 -27 0 -28 -8 -15 -6 -132 -54 -9 -158 0 -75 rrcurveto
          -2 vlineto
          -4 0 -3 -6 vhcurveto
          -32 -2 rlineto
          -4 -17 0 -29 -12 5 -7 16 hvcurveto
          28 hlineto
          11 -1 1 -2 0 -7 -1 -300 2 -8 -19 -3 -36 -6 -12 2 0 -16 0 -11 3 -14 12 0 3 0 39 6 49 0 48 0 40 -6 2 0 rrcurveto
          11 6 11 10 9 -5 9 -8 hvcurveto
          -45 4 rlineto
          -18 1 -2 7 0 33 rrcurveto
          endchar
        </CharString>
        <CharString name="longs_longs">
          17 -6 43 323 51 219 90 -77 62 -50 12 hstemhm
          71 70 155 69 hintmask 11001110
          294 421 rmoveto
          -6 0 -4 -7 vhcurveto
          -22 hlineto
          -18 -3 -24 -6 -11 6 -10 15 hvcurveto
          19 hlineto
          7 5 -1 -9 hvcurveto
          0 -25 0 -25 -1 -199 0 -67 -8 7 -21 -4 -32 -6 -7 2 0 -23 0 -12 5 -3 13 0 16 0 28 5 44 0 59 0 24 -5 11 0 rrcurveto
          12 3 11 7 hvcurveto
          0 10 -5 10 -12 1 -52 4 -8 -1 0 21 rrcurveto
          290 vlineto
          0 25 -1 24 0 25 rrcurveto
          32 vlineto
          49 7 152 82 vhcurveto
          hintmask 11100110
          32 0 22 -25 32 0 rrcurveto
          28 12 21 19 20 -17 30 -52 hvcurveto
          hintmask 11001110
          -83 0 -54 -53 -4 0 rrcurveto
          hintmask 11010110
          -10 0 -10 38 -62 0 rrcurveto
          -109 -109 -109 -175 -6 0 -4 -7 hvcurveto
          -22 hlineto
          -18 -3 -24 -6 -11 6 -10 15 hvcurveto
          19 hlineto
          7 5 -1 -9 hvcurveto
          -181 vlineto
          0 -131 -3 3 -22 -4 -31 -5 -6 1 0 -16 0 -14 3 -9 10 0 3 0 38 6 49 0 49 0 39 -6 3 0 8 0 5 10 0 9 rrcurveto
          0 10 -5 9 -12 1 -42 3 -16 -2 0 25 rrcurveto
          290 vlineto
          0 10 -1 57 0 8 rrcurveto
          17 vlineto
          74 20 128 77 vhcurveto
          35 0 22 -26 30 0 rrcurveto
          3 hlineto
          3 1 -1 -2 hvcurveto
          0 -11 -37 -39 0 -143 rrcurveto
          endchar
        </CharString>
        <CharString name="longs_longs_i">
          291 -6 43 -43 44 322 51 10 20 203 61 -37 59 hstemhm
          70 70 164 69 192 67 hintmask 1011011110000000
          293 360 rmoveto
          7 5 -1 -9 hvcurveto
          -1 -249 rlineto
          0 -67 -8 7 -21 -4 -31 -6 -8 2 0 -23 0 -12 5 -3 13 0 16 0 27 5 45 0 59 0 24 -5 11 0 12 0 3 11 0 7 rrcurveto
          0 10 -5 10 -12 1 -48 4 -12 -2 0 22 rrcurveto
          290 vlineto
          0 74 -1 -7 0 7 rrcurveto
          32 vlineto
          179 65 35 43 vhcurveto
          45 0 26 -38 40 0 rrcurveto
          28 16 20 21 22 -17 34 -84 hvcurveto
          -112 0 -37 -60 -8 0 rrcurveto
          hintmask 1011101110000000
          -10 0 -8 38 -64 0 rrcurveto
          -1 hlineto
          -24 0 -25 -6 -23 -9 -135 -53 -20 -147 0 -69 rrcurveto
          -6 0 -4 -7 vhcurveto
          -22 hlineto
          -18 -3 -24 -6 -11 6 -10 15 hvcurveto
          19 hlineto
          7 5 -1 -9 hvcurveto
          -228 vlineto
          0 -81 -5 -1 -20 -3 -29 -4 -8 2 0 -18 0 -14 3 -9 10 0 3 0 38 6 49 0 49 0 39 -6 3 0 8 0 5 10 0 9 rrcurveto
          0 10 -5 10 -12 1 -42 3 -16 -4 0 26 rrcurveto
          290 vlineto
          0 10 -1 57 0 8 rrcurveto
          17 vlineto
          164 62 39 42 vhcurveto
          36 0 24 -27 30 0 rrcurveto
          3 hlineto
          3 1 -1 -2 hvcurveto
          0 -11 -36 -53 0 -106 rrcurveto
          -23 vlineto
          -6 -1 -4 -7 vhcurveto
          -21 hlineto
          -19 -2 -24 -6 -11 5 -10 16 hvcurveto
          hintmask 0101000010000000
          290 -239 rmoveto
          -50 callsubr
          endchar
        </CharString>
        <CharString name="longs_longs_l">
          286 -6 40 326 51 234 60 -49 64 hstemhm
          80 70 171 70 166 73 hintmask 11011110
          480 656 rmoveto
          13 64 -5 -84 hvcurveto
          -488 vlineto
          0 -21 0 -17 -28 -3 -32 -4 -10 2 0 -21 1 -16 3 -4 13 0 15 0 26 5 47 0 50 0 41 -6 3 0 10 0 2 8 0 12 rrcurveto
          0 12 -5 6 -12 2 -40 7 -12 -2 0 30 0 4 1 3 0 4 rrcurveto
          624 vlineto
          9 -3 10 -11 vhcurveto
          -10 0 -10 -11 -13 0 -12 0 -7 8 -28 0 -85 0 -51 -53 -5 0 rrcurveto
          hintmask 11101110
          -10 0 -9 38 -64 0 -51 0 -153 -26 -27 -207 -6 -53 8 -8 -12 0 rrcurveto
          -42 hlineto
          -12 -8 -8 -24 -17 12 -2 8 hvcurveto
          39 hlineto
          7 5 -1 -9 hvcurveto
          -228 vlineto
          0 -81 -6 -1 -20 -3 -23 -3 -14 1 0 -21 0 -10 5 -10 9 0 3 0 37 6 50 0 48 0 40 -6 2 0 9 0 5 10 0 9 rrcurveto
          0 10 -5 10 -12 1 -42 3 -16 -4 0 26 rrcurveto
          290 vlineto
          0 10 -1 57 0 8 rrcurveto
          17 vlineto
          0 23 1 24 4 23 19 110 40 24 40 0 42 0 26 -28 25 0 rrcurveto
          5 hlineto
          6 1 -1 -2 hvcurveto
          0 -13 -37 -47 0 -112 rrcurveto
          -25 0 -6 -8 vhcurveto
          -41 hlineto
          -12 -8 -8 -24 -17 11 -2 9 hvcurveto
          38 hlineto
          8 5 -1 -9 hvcurveto
          -1 -249 rlineto
          -1 -67 -7 7 -21 -4 -33 -6 -7 2 0 -22 0 -13 6 -3 13 0 16 0 28 5 44 0 58 0 24 -5 11 0 12 0 3 11 0 7 rrcurveto
          0 10 -5 10 -11 1 -56 5 -4 -1 0 20 rrcurveto
          290 vlineto
          0 7 -1 59 0 8 rrcurveto
          32 vlineto
          72 14 130 75 vhcurveto
          endchar
        </CharString>
        <CharString name="m">
          301 -6 43 334 51 hstem
          78 62 182 66 188 71 vstem
          142 378 rmoveto
          -3 -1 3 3 hvcurveto
          38 vlineto
          5 -1 7 -8 vhcurveto
          -6 0 -2 -3 -11 -6 -81 -52 0 3 0 -9 0 -6 6 -4 3 -2 37 -28 3 1 0 -20 rrcurveto
          -248 vlineto
          -4 -40 -52 27 0 -31 0 -10 2 -10 12 0 7 0 22 4 44 0 46 0 36 -6 3 0 9 0 4 7 0 9 0 10 0 9 -14 2 rrcurveto
          -44 7 -9 -2 0 29 rrcurveto
          241 vlineto
          0 15 2 6 2 5 6 11 26 28 44 0 28 0 25 -11 17 -13 28 -21 4 -33 0 -33 rrcurveto
          -185 vlineto
          0 -24 -4 -10 -22 -4 -42 -7 -12 2 0 -16 0 -13 2 -9 12 0 2 0 41 6 50 0 50 0 40 -6 3 0 11 0 2 12 0 9 rrcurveto
          0 11 -6 6 -13 2 -41 5 -8 -2 0 19 rrcurveto
          1 vlineto
          0 3 1 2 0 3 rrcurveto
          193 vlineto
          0 43 -6 23 0 1 0 15 47 31 44 0 31 0 21 -14 10 -8 38 -33 3 -61 0 -52 rrcurveto
          -139 vlineto
          0 -14 0 -10 -20 -3 -40 -8 -7 2 0 -20 0 -13 10 -4 6 0 8 0 26 6 51 0 50 0 26 -6 8 0 13 0 2 11 0 9 rrcurveto
          0 7 -1 9 -13 2 -38 8 -10 -3 0 32 rrcurveto
          127 vlineto
          0 40 0 39 -11 38 -23 82 -61 27 -51 0 -19 0 -35 -4 -43 -25 -38 -22 4 -5 -8 0 -2 0 -1 0 -1 1 -2 1 -41 54 -65 0 rrcurveto
          -60 0 -43 -44 -5 0 rrcurveto
          endchar
        </CharString>
        <CharString name="minus">
          279 231 57 hstem
          76 231 rmoveto
          546 hlineto
          13 14 1 23 hvcurveto
          14 vlineto
          15 -7 4 -13 vhcurveto
          -552 hlineto
          -11 -13 -1 -21 hvcurveto
          -13 vlineto
          -18 8 -4 15 vhcurveto
          endchar
        </CharString>
        <CharString name="minute">
          -198 457 258 hstem
          38 149 vstem
          150 715 rmoveto
          -105 callsubr
          endchar
        </CharString>
        <CharString name="multiply">
          130 54 69 rmoveto
          -12 23 -21 10 vhcurveto
          11 0 -3 1 182 182 rrcurveto
          174 -174 rlineto
          5 -5 5 -4 7 0 12 0 21 23 0 10 0 11 -1 -3 -182 182 178 178 4 1 0 11 rrcurveto
          1 vlineto
          13 -24 21 -8 vhcurveto
          -1 hlineto
          -10 -1 6 2 -186 -185 -177 178 -1 4 -11 0 rrcurveto
          -1 hlineto
          -14 -20 -24 -8 hvcurveto
          0 -11 12 -7 172 -173 rrcurveto
          -174 -173 rlineto
          -5 -5 -4 -5 0 -7 rrcurveto
          endchar
        </CharString>
        <CharString name="n">
          77 -6 42 348 49 hstem
          76 69 217 65 vstem
          141 377 rmoveto
          -45 callsubr
          endchar
        </CharString>
        <CharString name="nacute">
          77 -6 42 348 49 44 227 hstem
          76 69 7 197 13 65 vstem
          312 704 rmoveto
          -31 callsubr
          -171 -327 rmoveto
          -45 callsubr
          endchar
        </CharString>
        <CharString name="ncaron">
          77 -6 42 348 49 44 221 hstem
          76 69 17 180 20 65 vstem
          327 698 rmoveto
          -15 callsubr
          -186 -321 rmoveto
          -45 callsubr
          endchar
        </CharString>
        <CharString name="ncommaaccent">
          77 -294 247 41 42 348 49 hstem
          76 69 129 51 37 65 vstem
          237 -47 rmoveto
          -104 callsubr
          -96 424 rmoveto
          -45 callsubr
          endchar
        </CharString>
        <CharString name="nine">
          87 -5 39 349 45 hstem
          32 73 290 77 vstem
          105 250 rmoveto
          96 64 37 52 90 84 -92 -115 vhcurveto
          0 -24 -4 -24 -7 -23 -13 -40 -22 -31 -65 0 rrcurveto
          -118 -61 120 96 hvcurveto
          170 -255 rmoveto
          43 0 36 13 2 0 2 0 1 -1 0 -2 0 -4 -80 -122 -157 -49 -10 -3 -7 -4 0 -10 0 -6 4 -18 15 0 6 0 10 3 15 4 rrcurveto
          193 60 124 168 0 151 rrcurveto
          143 -108 110 -126 -111 -95 -86 -115 -123 108 -109 135 vhcurveto
          endchar
        </CharString>
        <CharString name="ntilde">
          77 -6 42 348 49 135 54 -9 52 hstemhm
          76 69 -53 304 -34 65 hintmask 00100100
          299 622 rmoveto
          hintmask 00010100
          -26 callsubr
          hintmask 00100100
          -25 callsubr
          hintmask 11001010
          -158 -245 rmoveto
          -45 callsubr
          endchar
        </CharString>
        <CharString name="numbersign">
          130 157 45 151 45 hstem
          128 44 8 26 12 44 33 42 9 26 13 42 vstem
          346 348 rmoveto
          0 -9 -5 -28 -14 -101 -1 -8 -6 0 -4 0 rrcurveto
          -102 hlineto
          -5 -3 1 4 hvcurveto
          0 5 13 88 6 46 1 4 1 3 7 0 rrcurveto
          105 hlineto
          6 1 -2 -3 hvcurveto
          58 267 rmoveto
          -3 hlineto
          -4 0 -8 -1 -4 -6 -3 -4 1 -1 -28 -198 -1 -7 -4 0 -4 0 rrcurveto
          -104 hlineto
          -5 -3 1 4 hvcurveto
          0 6 28 186 0 7 rrcurveto
          12 -12 1 -8 vhcurveto
          -1 hlineto
          -14 0 -5 -2 -4 -6 -3 -5 2 2 -28 -198 rrcurveto
          -5 -2 -3 -7 vhcurveto
          -108 hlineto
          -14 -4 -8 -15 -19 7 -3 11 hvcurveto
          101 hlineto
          4 3 -1 -4 hvcurveto
          0 -5 -13 -91 -7 -48 rrcurveto
          -2 -1 0 -2 vhcurveto
          -87 hlineto
          -16 0 -9 -17 -11 2 -8 14 hvcurveto
          74 hlineto
          6 3 -2 -5 hvcurveto
          0 -5 -25 -168 0 -6 0 -11 9 -3 10 0 15 0 6 2 4 7 2 5 -1 -2 25 180 1 7 2 1 41 0 rrcurveto
          69 hlineto
          4 4 -1 -5 hvcurveto
          0 -5 -24 -168 0 -7 0 -8 5 -6 15 0 10 0 8 2 4 8 3 6 -2 -5 25 178 1 6 2 5 10 0 rrcurveto
          104 hlineto
          14 4 7 16 19 -7 3 -11 hvcurveto
          -101 hlineto
          -5 -2 2 4 hvcurveto
          0 4 13 89 6 46 1 3 0 3 4 0 rrcurveto
          86 hlineto
          10 6 3 16 18 -4 8 -15 hvcurveto
          -74 hlineto
          -4 -1 2 3 hvcurveto
          0 10 27 181 0 10 rrcurveto
          8 -6 3 -10 vhcurveto
          endchar
        </CharString>
        <CharString name="o">
          45 -19 49 355 47 hstem
          21 78 279 68 vstem
          21 204 rmoveto
          -44 callsubr
          215 -174 rmoveto
          -43 callsubr
          endchar
        </CharString>
        <CharString name="oacute">
          45 -19 49 355 47 40 227 hstem
          21 78 36 197 46 68 vstem
          295 699 rmoveto
          -31 callsubr
          -274 -495 rmoveto
          -44 callsubr
          215 -174 rmoveto
          -43 callsubr
          endchar
        </CharString>
        <CharString name="obreve">
          45 -19 49 355 47 39 68 hstem
          21 78 13 242 24 68 vstem
          112 623 rmoveto
          -18 callsubr
          -91 -419 rmoveto
          -44 callsubr
          215 -174 rmoveto
          -43 callsubr
          endchar
        </CharString>
        <CharString name="ocircumflex">
          45 -19 49 355 47 40 221 hstem
          21 78 43 180 56 68 vstem
          157 472 rmoveto
          -21 callsubr
          -136 -268 rmoveto
          -44 callsubr
          215 -174 rmoveto
          -43 callsubr
          endchar
        </CharString>
        <CharString name="odieresis">
          45 -19 49 355 47 139 94 hstem
          21 78 20 96 39 96 28 68 vstem
          254 618 rmoveto
          -32 callsubr
          -135 hmoveto
          -32 callsubr
          -98 -414 rmoveto
          -44 callsubr
          215 -174 rmoveto
          -43 callsubr
          endchar
        </CharString>
        <CharString name="oe">
          341 -19 49 -49 57 338 55 -46 47 hstemhm
          21 78 279 72 197 97 hintmask 00101110
          564 431 rmoveto
          -73 0 -53 -45 -28 -49 rrcurveto
          hintmask 10011110
          -39 62 -67 33 -67 0 rrcurveto
          -112 -104 -89 -139 -123 85 -100 127 hvcurveto
          71 0 68 33 38 58 rrcurveto
          hintmask 01101110
          30 -52 57 -39 75 0 70 0 66 36 41 53 5 6 2 6 0 4 0 9 -7 6 -9 0 -10 0 -9 -9 -4 -5 -31 -30 -44 -19 -44 0 rrcurveto
          -126 -22 133 12 hvcurveto
          0 9 6 -1 206 71 29 10 52 10 1 30 rrcurveto
          1 vlineto
          0 9 -5 8 -4 5 rrcurveto
          -36 51 -66 45 -69 0 rrcurveto
          83 -121 rmoveto
          0 -4 -3 -5 -6 -3 -2 -1 -183 -71 -2 0 rrcurveto
          -2 -3 1 6 89 38 54 58 56 49 -54 -12 hvcurveto
          hintmask 10011110
          -411 -280 rmoveto
          -82 -55 75 104 134 79 42 52 76 72 -78 -107 hvcurveto
          -89 -57 -81 -85 vhcurveto
          endchar
        </CharString>
        <CharString name="ograve">
          45 -19 49 355 47 40 227 hstemhm
          21 78 -44 198 125 68 hintmask 00101000
          55 662 rmoveto
          -67 callsubr
          hintmask 11010100
          -34 -458 rmoveto
          -44 callsubr
          215 -174 rmoveto
          -43 callsubr
          endchar
        </CharString>
        <CharString name="one">
          -66 -6 40 347 43 hstem
          135 76 vstem
          164 421 rmoveto
          -74 0 -37 3 -12 0 -10 0 -5 -6 0 -10 0 -30 15 7 79 -4 9 -1 6 -2 0 -13 rrcurveto
          -307 vlineto
          0 -23 -6 5 -70 -6 -10 -1 -8 -3 0 -15 0 -12 2 -9 12 0 4 0 53 6 65 0 66 0 54 -6 4 0 11 0 6 7 0 11 rrcurveto
          0 28 -17 -6 -72 6 -15 1 -3 8 0 12 rrcurveto
          304 vlineto
          0 10 2 5 12 1 62 4 13 -4 0 21 0 14 -2 8 -12 0 -12 0 -37 -3 -73 0 rrcurveto
          endchar
        </CharString>
        <CharString name="oslash">
          45 -19 49 355 47 hstem
          21 78 279 68 vstem
          446 204 rmoveto
          0 69 -26 72 -56 43 21 37 7 11 0 6 0 14 -15 3 -21 0 -13 0 -3 -11 -18 -34 -27 11 -29 7 -29 0 -112 0 -104 -89 0 -139 rrcurveto
          0 -79 35 -65 49 -37 -16 -29 -6 -9 0 -5 0 -7 3 -6 32 0 14 0 5 15 9 17 28 -12 29 -6 30 0 112 0 101 80 0 143 rrcurveto
          -210 -174 rmoveto
          -19 0 -22 4 -22 13 rrcurveto
          160 285 rlineto
          33 -40 12 -52 0 -40 0 -89 -57 -81 -85 0 rrcurveto
          -6 355 rmoveto
          26 0 22 -9 17 -11 rrcurveto
          -158 -284 rlineto
          -30 39 -8 51 0 38 0 134 79 42 52 0 rrcurveto
          endchar
        </CharString>
        <CharString name="otilde">
          45 -19 49 355 47 136 54 -9 52 hstemhm
          21 78 -19 304 -6 68 hintmask 00100100
          287 622 rmoveto
          hintmask 00010100
          -26 callsubr
          hintmask 00100100
          -25 callsubr
          hintmask 11001010
          -266 -418 rmoveto
          -44 callsubr
          215 -174 rmoveto
          -43 callsubr
          endchar
        </CharString>
        <CharString name="p">
          72 -228 46 175 34 345 59 hstemhm
          93 73 -73 65 250 67 hintmask 11101100
          250 27 rmoveto
          -23 0 -23 6 -20 10 -26 12 0 10 0 9 rrcurveto
          215 vlineto
          0 29 7 17 22 16 26 20 27 1 13 0 rrcurveto
          80 75 -80 -97 hvcurveto
          -100 -77 -68 -81 vhcurveto
          36 404 rmoveto
          -8 0 -7 0 -8 -1 -78 -11 -32 -54 -5 0 rrcurveto
          -2 -1 3 3 hvcurveto
          59 vlineto
          6 -2 5 -6 vhcurveto
          -5 0 -2 -3 -10 -5 -105 -62 -2 1 0 -6 rrcurveto
          -1 vlineto
          0 -7 2 1 65 -29 12 -5 1 -10 0 -5 rrcurveto
          0 -2 rlineto
          hintmask 11110100
          -462 vlineto
          0 -17 -6 -8 -16 -3 -46 -10 -12 2 0 -18 0 -17 10 -3 6 0 5 0 55 8 73 0 56 0 29 -4 9 0 9 0 3 7 0 8 rrcurveto
          0 31 -20 -6 -60 6 -21 2 -1 14 0 10 rrcurveto
          0 3 0 137 rlineto
          7 1 4 6 vhcurveto
          2 0 28 -6 34 0 rrcurveto
          139 99 89 133 116 -78 100 -111 hvcurveto
          endchar
        </CharString>
        <CharString name="paragraph">
          328 -204 53 133 36 661 31 -16 39 hstemhm
          26 172 167 26 53 37 189 54 hintmask 11001111
          444 315 rmoveto
          0 -90 16 -90 8 -44 -6 -15 -18 -24 -6 0 -12 0 -35 144 0 127 0 134 25 103 45 89 2 2 1 2 2 0 10 0 21 -33 0 -13 rrcurveto
          0 -8 -53 -101 0 -183 rrcurveto
          -5 350 rmoveto
          0 -12 -74 -112 0 -228 0 -171 47 -94 0 -9 rrcurveto
          -11 -32 -10 -21 -96 -65 129 173 vhcurveto
          1 vlineto
          0 61 9 61 19 57 rrcurveto
          hintmask 11101111
          26 76 58 103 86 0 13 0 30 -5 0 -9 rrcurveto
          208 -32 rmoveto
          -13 11 -8 12 21 33 24 37 vhcurveto
          hintmask 11011111
          27 -21 33 -46 vhcurveto
          -25 0 -23 -9 -21 -13 -48 -29 -6 -26 -9 0 rrcurveto
          hintmask 11101111
          -7 0 -36 54 -92 0 rrcurveto
          -168 -196 -173 -242 -173 113 -140 169 hvcurveto
          7 0 6 1 7 0 98 6 22 28 29 25 15 -53 5 -19 31 -60 16 -30 16 -31 25 -24 28 -27 19 -2 11 0 rrcurveto
          4 hlineto
          20 18 11 16 hvcurveto
          0 26 -37 -9 -16 9 -14 8 -25 26 -19 28 -42 65 -50 149 -1 192 rrcurveto
          4 vlineto
          0 89 10 103 52 105 rrcurveto
          hintmask 11011111
          13 27 39 49 47 0 21 0 7 -12 0 -8 0 -16 -23 -6 0 -19 rrcurveto
          endchar
        </CharString>
        <CharString name="parenleft">
          -59 718 -20 hstem
          45 76 vstem
          316 -174 rmoveto
          0 13 -11 9 -5 5 -112 102 -67 146 0 162 0 179 82 142 101 91 5 4 9 8 0 12 0 11 -9 8 -12 0 -12 0 -10 -8 -8 -6 rrcurveto
          -142 -114 -80 -167 0 -161 0 -178 92 -163 134 -105 7 -6 8 -4 9 0 11 0 10 8 0 12 rrcurveto
          endchar
        </CharString>
        <CharString name="parenright">
          -59 722 -20 hstem
          242 76 vstem
          48 701 rmoveto
          0 -13 10 -8 6 -5 112 -103 66 -145 0 -163 0 -179 -81 -141 -101 -91 -5 -5 -10 -8 0 -11 0 -12 10 -8 11 0 12 0 10 8 8 6 rrcurveto
          142 114 80 167 0 161 0 178 -91 163 -134 105 -8 6 -7 5 -9 0 -11 0 -10 -8 0 -13 rrcurveto
          endchar
        </CharString>
        <CharString name="percent">
          398 -93 39 224 38 44 38 225 38 hstem
          41 60 170 60 158 60 170 60 vstem
          213 -123 rmoveto
          10 0 7 5 5 6 5 5 -2 -3 401 676 2 3 2 4 0 4 0 14 -22 4 -8 0 -10 0 -8 -4 -5 -6 -4 -4 1 1 -395 -674 rrcurveto
          -2 -4 -2 -3 0 -5 0 -11 13 -8 12 0 rrcurveto
          -34 638 rmoveto
          61 31 -89 -78 hvcurveto
          0 -18 -2 -19 -3 -18 -3 -21 -11 -64 -59 0 -9 0 -18 3 -17 14 -36 31 -12 82 0 41 rrcurveto
          48 14 88 64 vhcurveto
          14 38 rmoveto
          -80 -72 -69 -138 -137 83 -39 55 91 61 84 121 138 -83 40 -55 hvcurveto
          434 -301 rmoveto
          61 31 -89 -77 hvcurveto
          0 -19 -2 -19 -3 -18 -3 -20 -11 -64 -59 0 -9 0 -18 2 -17 15 -36 31 -12 82 0 40 rrcurveto
          -1 2 rlineto
          47 15 87 64 vhcurveto
          14 38 rmoveto
          -80 -72 -69 -138 -137 83 -39 55 91 61 85 120 138 -83 40 -55 hvcurveto
          endchar
        </CharString>
        <CharString name="period">
          -17 118 hstem
          54 119 vstem
          113 101 rmoveto
          -31 -28 -23 -35 -35 29 -25 31 34 25 28 31 33 -28 26 -32 hvcurveto
          endchar
        </CharString>
        <CharString name="periodcentered">
          201 117 hstem
          54 119 vstem
          113 318 rmoveto
          -30 callsubr
          endchar
        </CharString>
        <CharString name="plus">
          279 231 57 hstem
          322 58 vstem
          76 231 rmoveto
          246 -246 hlineto
          -11 1 -12 21 vhcurveto
          14 hlineto
          17 5 7 15 hvcurveto
          247 242 vlineto
          13 14 1 23 hvcurveto
          14 vlineto
          15 -7 4 -13 vhcurveto
          -249 243 hlineto
          12 -2 14 -22 vhcurveto
          -14 hlineto
          -16 -4 -7 -13 hvcurveto
          -249 -245 vlineto
          -11 -13 -1 -21 hvcurveto
          -13 vlineto
          -18 8 -4 15 vhcurveto
          endchar
        </CharString>
        <CharString name="plusminus">
          279 -12 57 235 58 hstem
          322 57 vstem
          76 280 rmoveto
          246 -190 hlineto
          -12 3 -7 19 vhcurveto
          14 hlineto
          13 8 2 16 hvcurveto
          191 243 vlineto
          13 14 1 23 hvcurveto
          14 vlineto
          16 -8 4 -12 vhcurveto
          -250 188 hlineto
          13 -3 8 -20 vhcurveto
          -14 hlineto
          -12 -8 -2 -14 hvcurveto
          -193 -245 vlineto
          -11 -13 -2 -20 hvcurveto
          -14 vlineto
          -17 8 -5 15 vhcurveto
          -292 vmoveto
          546 hlineto
          13 14 1 23 hvcurveto
          14 vlineto
          16 -8 3 -12 vhcurveto
          -552 hlineto
          -11 -13 -1 -21 hvcurveto
          -13 vlineto
          -19 9 -3 14 vhcurveto
          endchar
        </CharString>
        <CharString name="q">
          103 -235 45 -35 36 180 61 349 33 hstemhm
          16 72 286 73 hintmask 00111100
          259 401 rmoveto
          35 0 35 -10 29 -19 11 -8 3 -6 0 -15 3 -188 0 -24 0 -23 0 -12 -1 -10 -8 -8 -13 -12 -43 -14 -37 0 rrcurveto
          -99 -86 79 102 hvcurveto
          94 77 74 94 vhcurveto
          -243 -188 rmoveto
          -123 102 -99 121 vhcurveto
          80 0 40 38 9 0 rrcurveto
          4 2 -3 -4 hvcurveto
          -172 vlineto
          hintmask 10111100
          0 -16 -1 -18 -28 -6 -37 -7 -18 0 0 -20 0 -11 7 -7 11 0 4 0 55 12 76 0 rrcurveto
          hintmask 01111100
          33 0 16 -2 6 0 14 0 4 13 0 9 0 8 -5 4 -9 2 -39 5 -16 1 0 44 rrcurveto
          503 vlineto
          0 9 -1 9 0 9 0 43 -2 12 -9 0 -11 0 2 -25 -29 0 -14 0 -38 13 -62 0 rrcurveto
          -197 -70 -126 -95 hvcurveto
          endchar
        </CharString>
        <CharString name="question">
          -42 -17 118 476 103 -29 38 hstemhm
          99 120 -100 52 81 85 hintmask 10010100
          159 101 rmoveto
          -31 -29 -23 -35 -35 29 -25 31 34 26 28 31 hvcurveto
          33 -28 26 -32 vhcurveto
          hintmask 10101100
          1 588 rmoveto
          hintmask 11001100
          -27 0 -28 -3 -26 -6 -61 -13 -3 -34 0 -12 0 -24 18 -20 24 0 rrcurveto
          hintmask 10101100
          50 0 -6 74 64 0 49 0 38 -47 0 -57 0 -115 -133 -54 0 -131 rrcurveto
          -47 16 -8 11 10 16 9 27 vhcurveto
          0 7 -1 6 0 9 0 140 166 27 0 125 rrcurveto
          59 -49 88 -128 vhcurveto
          endchar
        </CharString>
        <CharString name="questiondown">
          -42 -16 38 -29 103 476 118 hstemhm
          15 85 33 120 -72 52 hintmask 00000000
          hintmask 00000000
          193 572 rmoveto
          31 29 23 35 35 -29 25 -31 -34 -26 -28 -31 hvcurveto
          -33 28 -26 32 vhcurveto
          -1 -588 rmoveto
          27 0 28 3 26 6 61 13 3 34 0 12 0 24 -18 20 -24 0 rrcurveto
          -50 0 6 -74 -64 0 -49 0 -38 47 0 57 0 115 133 54 0 131 rrcurveto
          47 -16 8 -11 -10 -16 -9 -27 vhcurveto
          0 -7 1 -6 0 -9 0 -140 -166 -27 0 -125 rrcurveto
          -59 49 -88 128 vhcurveto
          endchar
        </CharString>
        <CharString name="quotedbl">
          -33 457 258 hstem
          38 314 vstem
          150 715 rmoveto
          -107 callsubr
          166 hmoveto
          -106 callsubr
          endchar
        </CharString>
        <CharString name="quotedblbase">
          -6 -44 98 hstem
          148 40 150 40 vstem
          102 54 rmoveto
          -13 callsubr
          190 hmoveto
          -13 callsubr
          endchar
        </CharString>
        <CharString name="quotedblbase.001">
          54 -44 98 hstem
          148 40 210 40 vstem
          102 54 rmoveto
          -13 callsubr
          250 hmoveto
          -13 callsubr
          endchar
        </CharString>
        <CharString name="quotedblleft">
          -6 464 98 hstem
          38 40 150 40 vstem
          315 464 rmoveto
          -12 callsubr
          -190 hmoveto
          -12 callsubr
          endchar
        </CharString>
        <CharString name="quotedblleft.001">
          54 464 98 hstem
          38 40 210 40 vstem
          375 464 rmoveto
          -12 callsubr
          -250 hmoveto
          -12 callsubr
          endchar
        </CharString>
        <CharString name="quotedblright">
          -6 586 98 hstem
          148 40 150 40 vstem
          102 684 rmoveto
          -11 callsubr
          190 hmoveto
          -11 callsubr
          endchar
        </CharString>
        <CharString name="quotedblright.001">
          54 586 98 hstem
          148 40 210 40 vstem
          102 684 rmoveto
          -11 callsubr
          250 hmoveto
          -11 callsubr
          endchar
        </CharString>
        <CharString name="quoteleft">
          464 98 hstem
          39 39 vstem
          125 464 rmoveto
          41 23 31 25 16 -10 27 -40 hvcurveto
          -6 0 -6 -1 -6 0 -35 0 -8 23 0 15 0 37 36 15 0 15 0 10 -8 9 -11 1 rrcurveto
          -14 -42 -31 -80 -84 51 -28 35 hvcurveto
          endchar
        </CharString>
        <CharString name="quoteright">
          586 98 hstem
          149 40 vstem
          102 684 rmoveto
          -41 -22 -31 -25 -16 9 -27 40 hvcurveto
          6 0 6 1 6 0 35 0 8 -23 0 -14 0 -37 -36 -15 0 -16 rrcurveto
          -10 8 -9 11 15 42 30 80 84 -52 28 -35 vhcurveto
          endchar
        </CharString>
        <CharString name="quotesinglbase">
          -44 98 hstem
          148 40 vstem
          102 54 rmoveto
          -13 callsubr
          endchar
        </CharString>
        <CharString name="quotesingle">
          -198 457 258 hstem
          38 149 vstem
          150 715 rmoveto
          -105 callsubr
          endchar
        </CharString>
        <CharString name="r">
          -64 -6 42 310 100 hstem
          75 72 vstem
          145 377 rmoveto
          -42 callsubr
          endchar
        </CharString>
        <CharString name="racute">
          -64 -6 42 310 100 41 227 hstemhm
          75 72 -62 197 hintmask 00101000
          245 714 rmoveto
          -31 callsubr
          hintmask 11010000
          -100 -337 rmoveto
          -42 callsubr
          endchar
        </CharString>
        <CharString name="rcaron">
          -64 -6 42 310 100 40 221 hstemhm
          75 72 -52 180 hintmask 00101000
          260 707 rmoveto
          -15 callsubr
          hintmask 11010000
          -115 -330 rmoveto
          -42 callsubr
          endchar
        </CharString>
        <CharString name="rcommaaccent">
          -64 -293 247 40 42 310 100 hstem
          75 72 60 51 vstem
          170 -46 rmoveto
          -104 callsubr
          -25 423 rmoveto
          -42 callsubr
          endchar
        </CharString>
        <CharString name="registered">
          97 335 37 47 27 96 18 97 19 43 36 hstem
          50 35 93 36 77 37 105 36 vstem
          242 676 rmoveto
          -24 0 -24 -5 -32 0 rrcurveto
          -12 hlineto
          -6 -2 -3 -6 -5 4 -3 4 hvcurveto
          19 -4 9 1 0 -10 rrcurveto
          -186 vlineto
          -6 0 -4 -8 vhcurveto
          -18 -3 -6 1 0 -10 0 -6 2 -6 8 0 4 0 14 2 28 0 28 0 12 -2 6 0 6 0 4 4 0 7 0 22 -43 -17 0 17 rrcurveto
          0 1 1 1 hvcurveto
          83 vlineto
          3 0 0 2 vhcurveto
          26 hlineto
          6 0 0 -1 2 -4 rrcurveto
          66 -91 rlineto
          10 -15 14 -12 16 0 rrcurveto
          22 12 23 5 4 -4 3 -2 hvcurveto
          -8 0 0 -8 -8 0 -10 0 -10 11 -6 11 -18 29 -12 19 -28 32 10 4 32 21 0 37 0 27 -20 39 -66 0 rrcurveto
          49 -72 rmoveto
          -17 -5 -27 -52 -18 -2 0 4 vhcurveto
          0 86 -1 1 rlineto
          2 2 4 19 36 21 -25 -28 vhcurveto
          -33 -232 rmoveto
          -93 -80 79 93 96 80 79 93 96 79 -79 -96 -93 -79 -79 -96 hvcurveto
          -37 vmoveto
          117 94 95 114 117 -94 94 -117 -115 -93 -94 -117 -114 93 -95 115 hvcurveto
          endchar
        </CharString>
        <CharString name="ring">
          -226 474 39 99 38 hstem
          13 40 91 39 vstem
          98 650 rmoveto
          -24 callsubr
          -38 vmoveto
          -23 callsubr
          endchar
        </CharString>
        <CharString name="s">
          -84 -19 54 345 47 hstemhm
          26 41 -36 54 177 67 hintmask 11011000
          31 309 rmoveto
          -41 callsubr
          hintmask 11101000
          -40 callsubr
          hintmask 11011000
          -39 callsubr
          endchar
        </CharString>
        <CharString name="sacute">
          -84 -19 54 345 47 45 227 hstemhm
          26 41 -36 54 -6 197 -14 67 hintmask 00100100
          239 699 rmoveto
          -31 callsubr
          hintmask 11001010
          -208 -390 rmoveto
          -41 callsubr
          hintmask 11010010
          -40 callsubr
          hintmask 11001010
          -39 callsubr
          endchar
        </CharString>
        <CharString name="scaron">
          -84 -19 54 345 47 45 221 hstemhm
          26 41 -36 54 4 180 -7 67 hintmask 00100100
          254 693 rmoveto
          -15 callsubr
          hintmask 11001010
          -223 -384 rmoveto
          -41 callsubr
          hintmask 11010010
          -40 callsubr
          hintmask 11001010
          -39 callsubr
          endchar
        </CharString>
        <CharString name="scedilla">
          -84 -195 36 -23 31 132 54 -51 172 224 47 hstemhm
          31 54 111 61 5 67 hintmask 10011111
          27 104 rmoveto
          -39 vlineto
          0 -6 0 -6 2 -6 12 -36 62 -22 38 -5 -7 -19 -14 -36 0 -1 0 -3 3 0 2 0 42 -3 29 -22 0 -27 0 -19 -16 -13 -22 0 rrcurveto
          hintmask 01001111
          -22 callsubr
          hintmask 10101111
          4 -4 43 -9 32 0 rrcurveto
          65 17 43 32 hvcurveto
          1 vlineto
          50 -36 26 -48 vhcurveto
          -3 hlineto
          -3 -1 1 2 hvcurveto
          0 2 1 2 6 17 rrcurveto
          4 hlineto
          99 53 71 64 hvcurveto
          0 16 -4 33 -26 30 -37 43 -47 3 -51 14 -74 21 -5 37 0 14 0 32 29 21 34 0 33 0 36 -21 13 -18 14 -20 -3 -29 21 0 rrcurveto
          8 15 3 13 hvcurveto
          0 4 -13 66 -6 35 -1 5 -3 14 -12 0 -12 0 -4 -10 -9 0 -5 0 -15 5 -30 0 -90 0 -54 -58 0 -60 0 -49 30 -50 81 -23 rrcurveto
          32 -9 88 -10 0 -66 0 -40 -36 -27 -45 0 -58 0 -46 38 -10 21 rrcurveto
          hintmask 10011111
          -14 28 16 34 -25 0 rrcurveto
          -20 3 -15 -37 hvcurveto
          endchar
        </CharString>
        <CharString name="scircumflex">
          -84 -19 54 345 47 45 221 hstemhm
          26 41 -36 54 1 180 -4 67 hintmask 00100100
          101 472 rmoveto
          -21 callsubr
          hintmask 11001010
          -70 -163 rmoveto
          -41 callsubr
          hintmask 11010010
          -40 callsubr
          hintmask 11001010
          -39 callsubr
          endchar
        </CharString>
        <CharString name="second">
          -33 457 258 hstem
          38 314 vstem
          150 715 rmoveto
          -107 callsubr
          166 hmoveto
          -106 callsubr
          endchar
        </CharString>
        <CharString name="semicolon">
          293 118 hstemhm
          65 119 -23 51 hintmask 10100000
          124 100 rmoveto
          -31 -30 -23 -32 hvcurveto
          0 -10 2 -9 6 -7 25 -37 64 25 1 -50 rrcurveto
          -1 vlineto
          0 -9 -4 -17 -22 -21 -23 -21 -20 -1 0 -17 rrcurveto
          -11 9 -6 9 22 80 43 89 vhcurveto
          64 -41 51 -47 vhcurveto
          311 vmoveto
          hintmask 11000000
          -103 callsubr
          endchar
        </CharString>
        <CharString name="seven">
          28 337 75 hstemhm
          35 33 -14 39 hintmask 11000000
          52 217 rmoveto
          11 0 3 9 2 6 27 89 -2 5 19 4 11 3 55 4 43 0 34 0 32 -2 33 -3 12 -2 18 -3 0 -19 0 -7 -21 -55 -44 -121 rrcurveto
          -111 -325 0 1 0 -6 0 -13 12 -1 16 0 rrcurveto
          6 0 1 0 rlineto
          6 0 7 0 6 1 24 2 -22 -3 143 434 57 170 1 1 0 7 rrcurveto
          1 vlineto
          15 -10 3 -12 vhcurveto
          -302 hlineto
          hintmask 10100000
          -7 0 -5 1 -2 11 -7 34 2 12 -16 0 -15 0 -3 -8 0 -11 rrcurveto
          hintmask 11000000
          -2 -121 -17 -88 0 -9 rrcurveto
          -13 12 -3 5 vhcurveto
          endchar
        </CharString>
        <CharString name="six">
          61 -28 40 353 36 hstem
          33 64 271 77 vstem
          368 142 rmoveto
          -81 -51 -49 -64 -84 -72 86 119 67 21 81 82 115 53 -135 -88 vhcurveto
          -164 259 rmoveto
          -28 0 -23 -5 -1 0 -2 0 -2 1 0 2 0 1 1 1 0 1 59 91 88 64 99 32 7 3 9 4 0 11 0 9 -7 14 -13 0 rrcurveto
          -3 0 -2 0 -2 -1 -200 -37 -151 -174 0 -191 rrcurveto
          -164 113 -91 109 114 76 91 106 134 -111 98 -130 vhcurveto
          endchar
        </CharString>
        <CharString name="slash">
          13 36 -187 rmoveto
          5 0 4 1 4 3 3 3 -3 -1 209 415 169 320 2 2 0 6 0 15 -23 3 -8 0 -9 0 -3 -4 -3 -5 -377 -740 0 1 0 -5 rrcurveto
          -13 22 -1 8 vhcurveto
          endchar
        </CharString>
        <CharString name="space">
          -172 endchar
        </CharString>
        <CharString name="t">
          -89 -19 65 317 54 hstem
          75 70 vstem
          40 365 rmoveto
          -38 callsubr
          endchar
        </CharString>
        <CharString name="tcaron">
          71 -19 65 230 247 -160 54 hstemhm
          75 70 272 51 hintmask 01001000
          380 523 rmoveto
          -104 callsubr
          hintmask 10110000
          -340 -158 rmoveto
          -38 callsubr
          endchar
        </CharString>
        <CharString name="tcommaaccent">
          -89 -195 36 -23 31 133 64 317 54 hstemhm
          75 70 63 61 hintmask 10111100
          269 -120 rmoveto
          1 vlineto
          50 -36 26 -48 vhcurveto
          -3 hlineto
          -3 -1 1 2 hvcurveto
          0 2 2 2 5 18 28 2 41 15 62 72 2 3 5 6 0 8 0 9 -7 9 -11 0 -22 0 -39 -60 -48 0 -42 0 -9 39 0 35 rrcurveto
          0 24 0 23 1 187 rrcurveto
          7 3 2 7 vhcurveto
          117 hlineto
          9 0 5 1 4 4 5 6 4 17 0 6 0 19 -17 0 -9 0 -3 0 -2 1 -3 0 rrcurveto
          -90 hlineto
          -12 -8 3 17 hvcurveto
          0 14 1 42 0 14 0 13 -7 3 -6 0 -11 0 -6 -13 -3 -5 -54 -92 -50 -18 0 -17 rrcurveto
          -12 11 -1 9 vhcurveto
          32 hlineto
          6 1 -4 -5 hvcurveto
          0 -22 -4 -155 0 -44 0 -11 0 -10 1 -11 5 -62 25 -44 48 -13 -8 -19 -14 -36 0 -1 0 -3 3 0 2 0 42 -3 29 -22 0 -27 rrcurveto
          -19 -16 -13 -22 vhcurveto
          hintmask 01111100
          -22 callsubr
          hintmask 10111100
          -20 callsubr
          endchar
        </CharString>
        <CharString name="three">
          -62 -182 43 509 73 hstem
          26 35 144 67 13 54 vstem
          119 443 rmoveto
          -61 -32 -51 -53 -32 7 -9 11 4 14 3 10 hvcurveto
          0 2 -1 10 0 9 rrcurveto
          18 5 20 47 74 18 -62 -35 vhcurveto
          0 -49 -31 -41 -33 -32 -29 -28 -6 2 0 -10 0 -5 5 -8 12 0 8 0 8 2 24 0 rrcurveto
          98 24 -52 -62 -61 -23 -68 -68 hvcurveto
          -81 0 10 70 -51 0 rrcurveto
          -22 -22 -16 -24 -23 35 -50 80 hvcurveto
          54 0 64 19 35 46 36 46 7 75 0 31 0 68 -31 31 -26 15 -42 25 -26 -6 0 12 0 5 58 81 0 60 rrcurveto
          84 -113 33 -40 vhcurveto
          endchar
        </CharString>
        <CharString name="tilde">
          -86 568 54 -9 52 hstemhm
          16 304 hintmask 10100000
          223 622 rmoveto
          hintmask 01100000
          -26 callsubr
          hintmask 10100000
          -25 callsubr
          endchar
        </CharString>
        <CharString name="trademark">
          497 370 31 219 91 -36 36 -29 23 hstemhm
          42 26 118 50 226 26 294 48 hintmask 10011111
          830 421 rmoveto
          6 vlineto
          -2 187 0 23 0 24 0 25 50 -18 0 24 rrcurveto
          11 -4 2 -6 vhcurveto
          -72 hlineto
          -10 0 0 -6 -4 -8 rrcurveto
          -128 -237 rlineto
          -2 -2 -3 -2 vhcurveto
          -4 0 0 0 -60 96 rrcurveto
          -92 153 rlineto
          -3 5 -3 2 -8 0 rrcurveto
          -70 hlineto
          -6 -4 -3 -10 -8 6 -2 6 hvcurveto
          32 -1 18 -35 0 -4 0 -12 -2 -60 -4 -48 -8 -123 0 4 -12 -2 -20 -2 -18 1 0 -17 0 -8 4 -5 6 0 6 0 18 3 36 0 rrcurveto
          34 0 18 -3 6 0 6 0 4 5 0 8 0 18 -20 -2 -18 2 -10 0 0 4 0 99 0 40 2 51 0 10 2 0 0 0 0 -1 rrcurveto
          118 -180 4 -58 20 -1 rrcurveto
          2 hlineto
          11 0 -2 0 85 156 42 79 8 5 0 0 rrcurveto
          2 0 -2 -77 hvcurveto
          -103 vlineto
          0 -16 -2 -6 -16 -2 -19 -2 -15 0 0 -13 0 -6 2 -8 10 0 6 0 18 3 38 0 rrcurveto
          2 hlineto
          36 0 18 -3 6 0 rrcurveto
          8 4 5 8 11 -6 3 -6 hvcurveto
          -30 2 -6 -1 0 23 rrcurveto
          -552 -51 rmoveto
          6 4 5 7 hvcurveto
          0 11 0 4 -10 1 -39 2 -3 0 0 10 rrcurveto
          254 vlineto
          hintmask 10101111
          7 0 4 8 vhcurveto
          72 hlineto
          14 0 -2 -2 22 -40 2 -2 4 -8 8 0 4 0 8 4 0 9 0 2 -2 2 0 1 rrcurveto
          hintmask 11001111
          -11 66 2 4 -13 0 rrcurveto
          hintmask 10101111
          -284 hlineto
          -8 0 -2 -2 -2 -6 rrcurveto
          0 -14 -65 -3 hvcurveto
          hintmask 11001111
          -11 8 -4 4 10 4 8 3 vhcurveto
          hintmask 10101111
          22 44 -2 0 14 0 rrcurveto
          74 hlineto
          10 0 -5 -8 hvcurveto
          -246 vlineto
          0 -9 -2 -5 -12 -2 -28 -2 -10 2 0 -15 0 -13 8 -2 4 0 6 0 20 3 40 0 rrcurveto
          2 hlineto
          38 0 20 -3 6 0 rrcurveto
          endchar
        </CharString>
        <CharString name="two">
          28 0 58 304 62 hstem
          25 36 215 62 vstem
          76 -13 rmoveto
          9 0 175 9 93 4 15 1 9 -2 5 16 37 125 0 -2 0 5 0 11 -16 1 -2 0 -7 0 -3 -5 -2 -5 -33 -70 -40 -10 -42 -3 rrcurveto
          -25 -2 -46 -2 -2 0 -9 0 -2 4 0 4 0 2 2 2 2 3 72 76 72 48 0 81 rrcurveto
          86 -84 60 -91 -79 -59 -51 -72 -29 12 -7 8 vhcurveto
          1 hlineto
          14 1 15 11 hvcurveto
          2 35 29 36 52 0 58 0 74 -48 0 -64 0 -26 -15 -20 -9 -12 -36 -46 -42 -41 -46 -36 -61 -47 -18 2 0 -18 0 -7 5 -12 22 0 rrcurveto
          endchar
        </CharString>
        <CharString name="u">
          83 -18 52 348 33 hstem
          64 68 226 71 vstem
          359 33 rmoveto
          -37 callsubr
          endchar
        </CharString>
        <CharString name="uacute">
          83 -18 52 348 33 57 227 hstem
          64 68 17 197 12 71 vstem
          309 699 rmoveto
          -31 callsubr
          50 -666 rmoveto
          -37 callsubr
          endchar
        </CharString>
        <CharString name="ubreve">
          83 -18 52 348 33 56 68 hstemhm
          64 68 -6 242 -10 71 hintmask 00101000
          126 623 rmoveto
          -18 callsubr
          hintmask 11010100
          233 -590 rmoveto
          -37 callsubr
          endchar
        </CharString>
        <CharString name="ucircumflex">
          83 -18 52 348 33 56 221 hstem
          64 68 24 180 22 71 vstem
          171 471 rmoveto
          -21 callsubr
          188 -438 rmoveto
          -37 callsubr
          endchar
        </CharString>
        <CharString name="udieresis">
          83 -18 52 348 33 156 94 hstemhm
          64 68 0 96 39 96 -5 71 hintmask 00101100
          267 618 rmoveto
          -32 callsubr
          -135 hmoveto
          -32 callsubr
          hintmask 11010010
          227 -585 rmoveto
          -37 callsubr
          endchar
        </CharString>
        <CharString name="ugrave">
          83 -18 52 348 33 57 227 hstemhm
          64 68 -63 198 91 71 hintmask 00101000
          69 662 rmoveto
          -67 callsubr
          hintmask 11010100
          290 -629 rmoveto
          -37 callsubr
          endchar
        </CharString>
        <CharString name="underscore">
          105 -76 55 hstem
          27 -50 rmoveto
          -68 callsubr
          endchar
        </CharString>
        <CharString name="uni00A0">
          -172 endchar
        </CharString>
        <CharString name="uni0237">
          -190 -231 77 596 -20 hstem
          95 71 vstem
          94 102 rmoveto
          -14 callsubr
          endchar
        </CharString>
        <CharString name="uring">
          83 -18 52 348 33 57 39 99 38 hstem
          64 68 6 40 91 39 50 71 vstem
          223 648 rmoveto
          -24 callsubr
          -38 vmoveto
          -23 callsubr
          136 -577 rmoveto
          -37 callsubr
          endchar
        </CharString>
        <CharString name="utilde">
          83 -18 52 348 33 153 54 -9 52 hstemhm
          64 68 -41 304 -37 71 hintmask 00100100
          298 622 rmoveto
          hintmask 00010100
          -26 callsubr
          hintmask 00100100
          -25 callsubr
          hintmask 11001010
          61 -589 rmoveto
          -37 callsubr
          endchar
        </CharString>
        <CharString name="v">
          68 -4 -21 399 41 hstem
          298 396 rmoveto
          0 -16 10 0 5 -1 38 -3 21 2 0 -19 0 -16 -20 -126 -76 -133 0 -1 -2 -4 -3 0 -5 0 -3 7 -1 1 -71 122 -48 134 0 13 rrcurveto
          0 10 8 7 12 1 34 6 22 -10 0 25 0 11 -2 9 -12 0 -10 0 -28 -3 -58 0 -57 0 -28 3 -10 0 -8 0 -4 -5 0 -8 rrcurveto
          0 -39 27 25 20 -25 14 -18 36 -112 128 -227 9 -17 9 -14 15 0 8 0 7 4 4 5 12 13 81 160 52 189 3 12 0 2 3 6 rrcurveto
          13 22 42 -25 0 33 0 10 -3 9 -12 0 -8 0 -24 -3 -48 0 -48 0 -24 3 -8 0 rrcurveto
          -9 -3 -7 -7 hvcurveto
          endchar
        </CharString>
        <CharString name="w">
          330 -25 109 292 39 hstem
          735 415 rmoveto
          -36 callsubr
          endchar
        </CharString>
        <CharString name="wcircumflex">
          330 -25 109 292 39 56 221 hstem
          286 180 vstem
          301 471 rmoveto
          -21 callsubr
          434 -56 rmoveto
          -36 callsubr
          endchar
        </CharString>
        <CharString name="x">
          21 -4 30 -30 42 338 39 hstemhm
          181 68 hintmask 10110000
          24 415 rmoveto
          -5 -8 -2 -15 hvcurveto
          0 -13 2 -7 16 -2 27 -4 -15 13 136 -169 2 -2 2 -2 0 -3 0 -6 0 3 -117 -153 -3 -4 -2 -4 -4 -3 -15 -12 -31 12 0 -26 rrcurveto
          -10 0 -11 10 vhcurveto
          7 0 22 5 43 0 44 0 21 -4 7 0 11 0 2 8 0 12 0 3 0 4 -2 3 -10 13 -49 -13 0 25 0 6 1 2 13 17 rrcurveto
          74 100 -1 1 5 0 1 0 1 -1 1 0 2 -2 -1 1 92 -114 1 -2 3 -4 0 -4 rrcurveto
          hintmask 01110000
          0 -5 -3 -5 -9 -3 -29 -8 -21 7 0 -24 0 -8 1 -9 11 0 8 0 24 4 49 0 49 0 24 -4 8 0 14 0 1 10 0 14 rrcurveto
          0 10 -5 1 -5 1 -20 4 -2 -2 -15 20 -138 175 0 -1 0 3 0 4 0 -2 85 112 16 19 7 8 29 4 30 4 7 -1 0 21 rrcurveto
          7 -3 8 -10 vhcurveto
          -7 0 -22 -3 -44 0 rrcurveto
          -3 hlineto
          -43 0 -21 3 -7 0 -10 0 -3 -8 0 -17 0 -24 49 20 0 -22 0 -6 -9 -11 -61 -81 -2 -2 -1 -1 -2 0 -4 0 2 1 -58 74 rrcurveto
          -5 7 -9 9 0 8 0 10 9 3 7 1 29 3 7 -1 0 12 0 3 -1 2 0 4 rrcurveto
          2 vlineto
          7 -2 7 -10 vhcurveto
          -8 0 -25 -3 -50 0 rrcurveto
          -49 0 -25 3 -8 0 rrcurveto
          endchar
        </CharString>
        <CharString name="y">
          46 -202 -21 599 39 hstem
          92 -223 rmoveto
          -35 callsubr
          endchar
        </CharString>
        <CharString name="yacute">
          46 -223 21 578 39 57 227 hstem
          135 197 vstem
          295 699 rmoveto
          -31 callsubr
          -203 -922 rmoveto
          -35 callsubr
          endchar
        </CharString>
        <CharString name="ycircumflex">
          46 -223 21 578 39 56 221 hstem
          142 180 vstem
          157 471 rmoveto
          -21 callsubr
          -65 -694 rmoveto
          -35 callsubr
          endchar
        </CharString>
        <CharString name="ydieresis">
          46 -223 21 578 39 156 94 hstem
          119 96 39 96 vstem
          254 618 rmoveto
          -32 callsubr
          -135 hmoveto
          -32 callsubr
          -27 -841 rmoveto
          -35 callsubr
          endchar
        </CharString>
        <CharString name="z">
          -61 0 65 290 62 hstemhm
          39 35 217 47 -29 41 hintmask 11110000
          65 454 rmoveto
          -34 callsubr
          hintmask 11101000
          -33 callsubr
          endchar
        </CharString>
        <CharString name="zacute">
          -61 0 65 290 62 77 227 hstemhm
          39 35 8 197 12 47 -29 41 hintmask 00101000
          242 721 rmoveto
          -31 callsubr
          hintmask 11010100
          -177 -267 rmoveto
          -34 callsubr
          hintmask 11010010
          -33 callsubr
          endchar
        </CharString>
        <CharString name="zcaron">
          -61 0 65 290 62 77 221 hstemhm
          39 35 18 180 19 47 -29 41 hintmask 00101000
          257 715 rmoveto
          -15 callsubr
          hintmask 11010100
          -192 -261 rmoveto
          -34 callsubr
          hintmask 11010010
          -33 callsubr
          endchar
        </CharString>
        <CharString name="zdotaccent">
          -61 0 65 290 62 77 112 hstemhm
          39 35 49 116 52 47 -29 41 hintmask 00101000
          123 549 rmoveto
          -17 callsubr
          hintmask 11010100
          -58 -95 rmoveto
          -34 callsubr
          hintmask 11010010
          -33 callsubr
          endchar
        </CharString>
        <CharString name="zero">
          53 -18 60 343 55 hstem
          12 66 316 62 vstem
          235 440 rmoveto
          -122 -101 -102 -127 -129 102 -100 120 122 100 103 126 127 -100 102 -121 hvcurveto
          -1 -55 rmoveto
          84 76 -74 -100 -102 -77 -67 -80 -88 -71 78 95 93 70 77 86 hvcurveto
          endchar
        </CharString>
</ttFont>
